Playpen-Rg18ShortFast.ufo
<glyph name="exclam" format="2">
	<unicode hex="0021"/>
	<advance width="272"/>
	<outline>
		<contour>
			<point x="130" y="173" type="curve" smooth="yes"/>
			<point x="153" y="173"/>
			<point x="167" y="180"/>
			<point x="172" y="195" type="curve" smooth="yes"/>
			<point x="324" y="690" type="line" smooth="yes"/>
			<point x="329" y="705"/>
			<point x="319" y="712"/>
			<point x="296" y="712" type="curve" smooth="yes"/>
			<point x="273" y="712"/>
			<point x="259" y="705"/>
			<point x="254" y="690" type="curve" smooth="yes"/>
			<point x="102" y="195" type="line" smooth="yes"/>
			<point x="97" y="180"/>
			<point x="107" y="173"/>
		</contour>
		<contour>
			<point x="80" y="-11" type="curve" smooth="yes"/>
			<point x="120" y="-11"/>
			<point x="138" y="20"/>
			<point x="137" y="49" type="curve" smooth="yes"/>
			<point x="137" y="76"/>
			<point x="120" y="90"/>
			<point x="98" y="90" type="curve" smooth="yes"/>
			<point x="58" y="90"/>
			<point x="40" y="59"/>
			<point x="41" y="30" type="curve" smooth="yes"/>
			<point x="41" y="3"/>
			<point x="58" y="-11"/>
		</contour>
	</outline>
</glyph>
<glyph name="dollar" format="2">
  <advance width="534"/>
  <unicode hex="0024"/>
  <outline>
    <contour>
      <point x="235" y="-15" type="curve" smooth="yes"/>
      <point x="382" y="-15"/>
      <point x="489" y="68"/>
      <point x="489" y="189" type="curve" smooth="yes"/>
      <point x="489" y="277"/>
      <point x="439" y="337"/>
      <point x="346" y="384" type="curve" smooth="yes"/>
      <point x="257" y="429"/>
      <point x="230" y="462"/>
      <point x="230" y="527" type="curve" smooth="yes"/>
      <point x="230" y="606"/>
      <point x="295" y="644"/>
      <point x="388" y="644" type="curve" smooth="yes"/>
      <point x="459" y="644"/>
      <point x="494" y="617"/>
      <point x="532" y="589" type="curve" smooth="yes"/>
      <point x="543" y="581"/>
      <point x="556" y="582"/>
      <point x="568" y="594" type="curve" smooth="yes"/>
      <point x="582" y="607"/>
      <point x="585" y="619"/>
      <point x="574" y="630" type="curve" smooth="yes"/>
      <point x="530" y="672"/>
      <point x="470" y="712"/>
      <point x="388" y="712" type="curve" smooth="yes"/>
      <point x="245" y="712"/>
      <point x="156" y="634"/>
      <point x="156" y="527" type="curve" smooth="yes"/>
      <point x="156" y="423"/>
      <point x="221" y="370"/>
      <point x="307" y="324" type="curve" smooth="yes"/>
      <point x="379" y="286"/>
      <point x="415" y="247"/>
      <point x="415" y="189" type="curve" smooth="yes"/>
      <point x="415" y="96"/>
      <point x="338" y="53"/>
      <point x="235" y="53" type="curve" smooth="yes"/>
      <point x="163" y="53"/>
      <point x="103" y="91"/>
      <point x="67" y="134" type="curve" smooth="yes"/>
      <point x="57" y="146"/>
      <point x="45" y="141"/>
      <point x="31" y="129" type="curve" smooth="yes"/>
      <point x="20" y="119"/>
      <point x="12" y="108"/>
      <point x="21" y="95" type="curve" smooth="yes"/>
      <point x="65" y="36"/>
      <point x="138" y="-15"/>
    </contour>
    <contour>
      <point x="158" y="-120" type="curve" smooth="yes"/>
      <point x="179" y="-120"/>
      <point x="192" y="-113"/>
      <point x="197" y="-98" type="curve" smooth="yes"/>
      <point x="491" y="807" type="line" smooth="yes"/>
      <point x="496" y="822"/>
      <point x="487" y="829"/>
      <point x="466" y="829" type="curve" smooth="yes"/>
      <point x="445" y="829"/>
      <point x="432" y="822"/>
      <point x="427" y="807" type="curve" smooth="yes"/>
      <point x="133" y="-98" type="line" smooth="yes"/>
      <point x="128" y="-113"/>
      <point x="137" y="-120"/>
    </contour>
  </outline>
</glyph>
<glyph name="ampersand" format="2">
  <advance width="853"/>
  <unicode hex="0026"/>
  <outline>
    <contour>
      <point x="78" y="214" type="curve" smooth="yes"/>
      <point x="78" y="85"/>
      <point x="164" y="-19"/>
      <point x="311" y="-19" type="curve" smooth="yes"/>
      <point x="504" y="-19"/>
      <point x="700" y="138"/>
      <point x="800" y="446" type="curve" smooth="yes"/>
      <point x="806" y="465"/>
      <point x="794" y="474"/>
      <point x="765" y="474" type="curve" smooth="yes"/>
      <point x="736" y="474"/>
      <point x="719" y="465"/>
      <point x="713" y="446" type="curve" smooth="yes"/>
      <point x="629" y="186"/>
      <point x="463" y="64"/>
      <point x="321" y="64" type="curve" smooth="yes"/>
      <point x="221" y="64"/>
      <point x="171" y="126"/>
      <point x="171" y="223" type="curve" smooth="yes"/>
      <point x="171" y="531"/>
      <point x="691" y="434"/>
      <point x="691" y="723" type="curve" smooth="yes"/>
      <point x="691" y="821"/>
      <point x="613" y="890"/>
      <point x="506" y="890" type="curve" smooth="yes"/>
      <point x="368" y="890"/>
      <point x="273" y="783"/>
      <point x="273" y="645" type="curve" smooth="yes"/>
      <point x="273" y="584"/>
      <point x="301" y="518"/>
      <point x="331" y="471" type="curve" smooth="yes"/>
      <point x="645" y="-7" type="line" smooth="yes"/>
      <point x="656" y="-25"/>
      <point x="673" y="-26"/>
      <point x="700" y="-6" type="curve" smooth="yes"/>
      <point x="728" y="14"/>
      <point x="731" y="26"/>
      <point x="719" y="45" type="curve" smooth="yes"/>
      <point x="404" y="526" type="line" smooth="yes"/>
      <point x="383" y="559"/>
      <point x="366" y="610"/>
      <point x="366" y="653" type="curve" smooth="yes"/>
      <point x="366" y="741"/>
      <point x="411" y="808"/>
      <point x="499" y="808" type="curve" smooth="yes"/>
      <point x="560" y="808"/>
      <point x="598" y="774"/>
      <point x="598" y="714" type="curve" smooth="yes"/>
      <point x="598" y="499"/>
      <point x="78" y="586"/>
    </contour>
  </outline>
</glyph>
<glyph name="parenright" format="2">
  <advance width="229"/>
  <unicode hex="0029"/>
  <outline>
    <contour>
      <point x="-33" y="-17" type="curve" smooth="yes"/>
      <point x="-52" y="-40"/>
      <point x="-45" y="-49"/>
      <point x="-27" y="-60" type="curve" smooth="yes"/>
      <point x="-3" y="-74"/>
      <point x="11" y="-71"/>
      <point x="30" y="-47" type="curve" smooth="yes"/>
      <point x="135" y="88"/>
      <point x="190" y="219"/>
      <point x="233" y="350" type="curve" smooth="yes"/>
      <point x="276" y="481"/>
      <point x="290" y="610"/>
      <point x="273" y="740" type="curve" smooth="yes"/>
      <point x="270" y="761"/>
      <point x="257" y="763"/>
      <point x="235" y="760" type="curve" smooth="yes"/>
      <point x="210" y="757"/>
      <point x="203" y="748"/>
      <point x="207" y="719" type="curve" smooth="yes"/>
      <point x="222" y="612"/>
      <point x="209" y="481"/>
      <point x="166" y="350" type="curve" smooth="yes"/>
      <point x="123" y="219"/>
      <point x="50" y="88"/>
    </contour>
  </outline>
</glyph>
<glyph name="zero" format="2">
  <advance width="762"/>
  <unicode hex="0030"/>
  <outline>
    <contour>
      <point x="316" y="-19" type="curve" smooth="yes"/>
      <point x="641" y="-19"/>
      <point x="808" y="359"/>
      <point x="808" y="628" type="curve" smooth="yes"/>
      <point x="808" y="809"/>
      <point x="701" y="890"/>
      <point x="569" y="890" type="curve" smooth="yes"/>
      <point x="244" y="890"/>
      <point x="75" y="513"/>
      <point x="75" y="244" type="curve" smooth="yes"/>
      <point x="75" y="63"/>
      <point x="184" y="-19"/>
    </contour>
    <contour>
      <point x="339" y="66" type="curve" smooth="yes"/>
      <point x="240" y="66"/>
      <point x="169" y="114"/>
      <point x="169" y="273" type="curve" smooth="yes"/>
      <point x="169" y="486"/>
      <point x="319" y="805"/>
      <point x="546" y="805" type="curve" smooth="yes"/>
      <point x="645" y="805"/>
      <point x="714" y="756"/>
      <point x="714" y="599" type="curve" smooth="yes"/>
      <point x="714" y="385"/>
      <point x="564" y="66"/>
    </contour>
  </outline>
</glyph>
<glyph name="two" format="2">
	<unicode hex="0032"/>
	<advance width="530"/>
	<outline>
		<contour>
			<point x="-5" y="0" type="curve" smooth="yes"/>
			<point x="399" y="0" type="line" smooth="yes"/>
			<point x="415" y="0"/>
			<point x="431" y="19"/>
			<point x="431" y="48" type="curve" smooth="yes"/>
			<point x="431" y="58"/>
			<point x="426" y="64"/>
			<point x="416" y="64" type="curve" smooth="yes"/>
			<point x="106" y="64" type="line"/>
			<point x="260" y="185" type="line" smooth="yes"/>
			<point x="501" y="374"/>
			<point x="581" y="471"/>
			<point x="581" y="572" type="curve" smooth="yes"/>
			<point x="581" y="655"/>
			<point x="509" y="712"/>
			<point x="410" y="712" type="curve" smooth="yes"/>
			<point x="321" y="712"/>
			<point x="238" y="677"/>
			<point x="185" y="631" type="curve" smooth="yes"/>
			<point x="161" y="610"/>
			<point x="158" y="600"/>
			<point x="172" y="585" type="curve" smooth="yes"/>
			<point x="190" y="565"/>
			<point x="202" y="565"/>
			<point x="224" y="581" type="curve" smooth="yes"/>
			<point x="279" y="620"/>
			<point x="327" y="646"/>
			<point x="394" y="646" type="curve" smooth="yes"/>
			<point x="471" y="646"/>
			<point x="511" y="618"/>
			<point x="511" y="563" type="curve" smooth="yes"/>
			<point x="511" y="491"/>
			<point x="433" y="401"/>
			<point x="225" y="238" type="curve" smooth="yes"/>
			<point x="-15" y="50" type="line" smooth="yes"/>
			<point x="-37" y="33"/>
			<point x="-28" y="0"/>
		</contour>
	</outline>
</glyph>
<glyph name="three" format="2">
  <advance width="663"/>
  <unicode hex="0033"/>
  <outline>
    <contour>
      <point x="280" y="-19" type="curve" smooth="yes"/>
      <point x="475" y="-19"/>
      <point x="618" y="124"/>
      <point x="618" y="293" type="curve" smooth="yes"/>
      <point x="618" y="370"/>
      <point x="576" y="434"/>
      <point x="505" y="460" type="curve"/>
      <point x="643" y="491"/>
      <point x="711" y="583"/>
      <point x="711" y="706" type="curve" smooth="yes"/>
      <point x="711" y="816"/>
      <point x="614" y="890"/>
      <point x="500" y="890" type="curve" smooth="yes"/>
      <point x="396" y="890"/>
      <point x="303" y="845"/>
      <point x="249" y="788" type="curve" smooth="yes"/>
      <point x="223" y="759"/>
      <point x="216" y="745"/>
      <point x="239" y="724" type="curve" smooth="yes"/>
      <point x="264" y="701"/>
      <point x="274" y="701"/>
      <point x="298" y="725" type="curve" smooth="yes"/>
      <point x="350" y="776"/>
      <point x="413" y="810"/>
      <point x="481" y="810" type="curve" smooth="yes"/>
      <point x="570" y="810"/>
      <point x="620" y="768"/>
      <point x="620" y="699" type="curve" smooth="yes"/>
      <point x="620" y="575"/>
      <point x="515" y="511"/>
      <point x="376" y="511" type="curve" smooth="yes"/>
      <point x="328" y="511" type="line" smooth="yes"/>
      <point x="313" y="511"/>
      <point x="299" y="498"/>
      <point x="291" y="471" type="curve" smooth="yes"/>
      <point x="284" y="444"/>
      <point x="290" y="431"/>
      <point x="305" y="431" type="curve" smooth="yes"/>
      <point x="361" y="431" type="line" smooth="yes"/>
      <point x="466" y="431"/>
      <point x="525" y="369"/>
      <point x="525" y="284" type="curve" smooth="yes"/>
      <point x="525" y="163"/>
      <point x="444" y="61"/>
      <point x="296" y="61" type="curve" smooth="yes"/>
      <point x="188" y="61"/>
      <point x="133" y="113"/>
      <point x="99" y="206" type="curve" smooth="yes"/>
      <point x="88" y="238"/>
      <point x="78" y="243"/>
      <point x="48" y="231" type="curve" smooth="yes"/>
      <point x="15" y="219"/>
      <point x="19" y="205"/>
      <point x="30" y="166" type="curve" smooth="yes"/>
      <point x="61" y="63"/>
      <point x="155" y="-19"/>
    </contour>
  </outline>
</glyph>
<glyph name="five" format="2">
  <advance width="663"/>
  <unicode hex="0035"/>
  <outline>
    <contour>
      <point x="283" y="-19" type="curve" smooth="yes"/>
      <point x="488" y="-19"/>
      <point x="641" y="114"/>
      <point x="641" y="353" type="curve" smooth="yes"/>
      <point x="641" y="465"/>
      <point x="566" y="565"/>
      <point x="414" y="565" type="curve" smooth="yes"/>
      <point x="354" y="565"/>
      <point x="298" y="544"/>
      <point x="251" y="515" type="curve"/>
      <point x="350" y="795" type="line"/>
      <point x="728" y="795" type="line" smooth="yes"/>
      <point x="748" y="795"/>
      <point x="768" y="819"/>
      <point x="768" y="855" type="curve" smooth="yes"/>
      <point x="768" y="868"/>
      <point x="761" y="875"/>
      <point x="749" y="875" type="curve" smooth="yes"/>
      <point x="321" y="875" type="line" smooth="yes"/>
      <point x="303" y="875"/>
      <point x="291" y="864"/>
      <point x="288" y="853" type="curve" smooth="yes"/>
      <point x="145" y="449" type="line" smooth="yes"/>
      <point x="124" y="389"/>
      <point x="185" y="396"/>
      <point x="215" y="418" type="curve" smooth="yes"/>
      <point x="269" y="456"/>
      <point x="330" y="485"/>
      <point x="409" y="485" type="curve" smooth="yes"/>
      <point x="515" y="485"/>
      <point x="549" y="423"/>
      <point x="549" y="339" type="curve" smooth="yes"/>
      <point x="549" y="196"/>
      <point x="464" y="63"/>
      <point x="303" y="63" type="curve" smooth="yes"/>
      <point x="201" y="63"/>
      <point x="145" y="98"/>
      <point x="83" y="168" type="curve" smooth="yes"/>
      <point x="60" y="193"/>
      <point x="49" y="193"/>
      <point x="25" y="171" type="curve" smooth="yes"/>
      <point x="-1" y="149"/>
      <point x="9" y="135"/>
      <point x="33" y="105" type="curve" smooth="yes"/>
      <point x="99" y="24"/>
      <point x="191" y="-19"/>
    </contour>
  </outline>
</glyph>
<glyph name="six" format="2">
  <advance width="570"/>
  <unicode hex="0036"/>
  <outline>
    <contour>
      <point x="274" y="-15" type="curve" smooth="yes"/>
      <point x="440" y="-15"/>
      <point x="553" y="103"/>
      <point x="553" y="272" type="curve" smooth="yes"/>
      <point x="553" y="370"/>
      <point x="478" y="442"/>
      <point x="379" y="442" type="curve" smooth="yes"/>
      <point x="272" y="442"/>
      <point x="177" y="364"/>
      <point x="122" y="268" type="curve"/>
      <point x="147" y="226" type="line"/>
      <point x="189" y="289"/>
      <point x="276" y="378"/>
      <point x="362" y="378" type="curve" smooth="yes"/>
      <point x="428" y="378"/>
      <point x="480" y="333"/>
      <point x="480" y="256" type="curve" smooth="yes"/>
      <point x="480" y="144"/>
      <point x="404" y="49"/>
      <point x="286" y="49" type="curve" smooth="yes"/>
      <point x="217" y="49"/>
      <point x="157" y="94"/>
      <point x="157" y="217" type="curve" smooth="yes"/>
      <point x="157" y="414"/>
      <point x="310" y="611"/>
      <point x="568" y="649" type="curve" smooth="yes"/>
      <point x="593" y="653"/>
      <point x="604" y="656"/>
      <point x="602" y="684" type="curve" smooth="yes"/>
      <point x="600" y="709"/>
      <point x="590" y="713"/>
      <point x="561" y="709" type="curve" smooth="yes"/>
      <point x="293" y="672"/>
      <point x="84" y="467"/>
      <point x="84" y="210" type="curve" smooth="yes"/>
      <point x="84" y="65"/>
      <point x="162" y="-15"/>
    </contour>
  </outline>
</glyph>
<glyph name="seven" format="2">
  <advance width="538"/>
  <unicode hex="0037"/>
  <outline>
    <contour>
      <point x="65" y="-14" type="curve" smooth="yes"/>
      <point x="96" y="-14"/>
      <point x="114" y="1"/>
      <point x="133" y="29" type="curve" smooth="yes"/>
      <point x="695" y="821" type="line" smooth="yes"/>
      <point x="716" y="853"/>
      <point x="693" y="875"/>
      <point x="675" y="875" type="curve" smooth="yes"/>
      <point x="209" y="875" type="line" smooth="yes"/>
      <point x="189" y="875"/>
      <point x="169" y="851"/>
      <point x="169" y="815" type="curve" smooth="yes"/>
      <point x="169" y="803"/>
      <point x="175" y="795"/>
      <point x="188" y="795" type="curve" smooth="yes"/>
      <point x="575" y="795" type="line"/>
      <point x="39" y="39" type="line" smooth="yes"/>
      <point x="15" y="6"/>
      <point x="18" y="-14"/>
    </contour>
  </outline>
</glyph>
<glyph name="eight" format="2">
	<unicode hex="0038"/>
	<advance width="530"/>
	<outline>
		<contour>
			<point x="217" y="-15" type="curve" smooth="yes"/>
			<point x="371" y="-15"/>
			<point x="494" y="55"/>
			<point x="494" y="204" type="curve" smooth="yes"/>
			<point x="494" y="274"/>
			<point x="451" y="335"/>
			<point x="394" y="375" type="curve"/>
			<point x="493" y="409"/>
			<point x="581" y="470"/>
			<point x="581" y="580" type="curve" smooth="yes"/>
			<point x="581" y="661"/>
			<point x="498" y="712"/>
			<point x="395" y="712" type="curve" smooth="yes"/>
			<point x="256" y="712"/>
			<point x="159" y="646"/>
			<point x="159" y="528" type="curve" smooth="yes"/>
			<point x="159" y="481"/>
			<point x="179" y="428"/>
			<point x="247" y="381" type="curve"/>
			<point x="118" y="339"/>
			<point x="12" y="262"/>
			<point x="12" y="150" type="curve" smooth="yes"/>
			<point x="12" y="49"/>
			<point x="94" y="-15"/>
		</contour>
		<contour>
			<point x="234" y="49" type="curve" smooth="yes"/>
			<point x="171" y="49"/>
			<point x="85" y="73"/>
			<point x="85" y="151" type="curve" smooth="yes"/>
			<point x="85" y="241"/>
			<point x="190" y="309"/>
			<point x="308" y="347" type="curve"/>
			<point x="378" y="311"/>
			<point x="421" y="268"/>
			<point x="421" y="199" type="curve" smooth="yes"/>
			<point x="421" y="104"/>
			<point x="337" y="49"/>
		</contour>
		<contour>
			<point x="335" y="408" type="curve"/>
			<point x="284" y="436"/>
			<point x="231" y="471"/>
			<point x="231" y="535" type="curve" smooth="yes"/>
			<point x="231" y="619"/>
			<point x="303" y="648"/>
			<point x="382" y="648" type="curve" smooth="yes"/>
			<point x="443" y="648"/>
			<point x="509" y="624"/>
			<point x="509" y="560" type="curve" smooth="yes"/>
			<point x="509" y="499"/>
			<point x="437" y="440"/>
		</contour>
	</outline>
</glyph>
<glyph name="greater" format="2">
	<unicode hex="003E"/>
	<advance width="610"/>
	<outline>
		<contour>
			<point x="129" y="160" type="curve" smooth="yes"/>
			<point x="551" y="335" type="line" smooth="yes"/>
			<point x="571" y="343"/>
			<point x="579" y="348"/>
			<point x="583" y="363" type="curve" smooth="yes"/>
			<point x="587" y="376"/>
			<point x="583" y="388"/>
			<point x="564" y="397" type="curve" smooth="yes"/>
			<point x="236" y="558" type="line" smooth="yes"/>
			<point x="215" y="568"/>
			<point x="203" y="565"/>
			<point x="192" y="544" type="curve" smooth="yes"/>
			<point x="182" y="524"/>
			<point x="182" y="511"/>
			<point x="203" y="501" type="curve" smooth="yes"/>
			<point x="473" y="369" type="line"/>
			<point x="111" y="221" type="line" smooth="yes"/>
			<point x="87" y="211"/>
			<point x="82" y="198"/>
			<point x="94" y="171" type="curve" smooth="yes"/>
			<point x="101" y="155"/>
			<point x="111" y="152"/>
		</contour>
	</outline>
</glyph>
<glyph name="question" format="2">
  <advance width="489"/>
  <unicode hex="003F"/>
  <guideline x="197" y="327" angle="252.78"/>
  <guideline x="163" y="327" angle="252.78"/>
  <guideline x="129"/>
  <outline>
    <contour>
      <point x="171" y="215" type="curve" smooth="yes"/>
      <point x="200" y="215"/>
      <point x="218" y="224"/>
      <point x="224" y="243" type="curve" smooth="yes"/>
      <point x="269" y="383" type="line"/>
      <point x="508" y="426"/>
      <point x="618" y="564"/>
      <point x="618" y="699" type="curve" smooth="yes"/>
      <point x="618" y="800"/>
      <point x="551" y="890"/>
      <point x="409" y="890" type="curve" smooth="yes"/>
      <point x="336" y="890"/>
      <point x="266" y="859"/>
      <point x="183" y="790" type="curve" smooth="yes"/>
      <point x="166" y="778"/>
      <point x="168" y="765"/>
      <point x="181" y="743" type="curve" smooth="yes"/>
      <point x="191" y="725"/>
      <point x="211" y="718"/>
      <point x="225" y="728" type="curve" smooth="yes"/>
      <point x="273" y="765"/>
      <point x="330" y="810"/>
      <point x="409" y="810" type="curve" smooth="yes"/>
      <point x="485" y="810"/>
      <point x="528" y="766"/>
      <point x="528" y="699" type="curve" smooth="yes"/>
      <point x="528" y="626"/>
      <point x="474" y="480"/>
      <point x="241" y="460" type="curve" smooth="yes"/>
      <point x="219" y="458"/>
      <point x="204" y="449"/>
      <point x="199" y="433" type="curve" smooth="yes"/>
      <point x="136" y="243" type="line" smooth="yes"/>
      <point x="130" y="224"/>
      <point x="143" y="215"/>
    </contour>
    <contour>
      <point x="116" y="-14" type="curve" smooth="yes"/>
      <point x="166" y="-14"/>
      <point x="188" y="25"/>
      <point x="188" y="61" type="curve" smooth="yes"/>
      <point x="188" y="95"/>
      <point x="166" y="113"/>
      <point x="139" y="113" type="curve" smooth="yes"/>
      <point x="89" y="113"/>
      <point x="68" y="74"/>
      <point x="68" y="38" type="curve" smooth="yes"/>
      <point x="68" y="4"/>
      <point x="89" y="-14"/>
    </contour>
  </outline>
</glyph>
<glyph name="at" format="2">
  <advance width="878"/>
  <unicode hex="0040"/>
  <outline>
    <contour>
      <point x="244" y="168" type="curve" smooth="yes"/>
      <point x="244" y="98"/>
      <point x="279" y="54"/>
      <point x="330" y="54" type="curve" smooth="yes"/>
      <point x="379" y="54"/>
      <point x="436" y="93"/>
      <point x="499" y="168" type="curve"/>
      <point x="501" y="176"/>
      <point x="504" y="188"/>
      <point x="506" y="194" type="curve" smooth="yes"/>
      <point x="491" y="150"/>
      <point x="466" y="56"/>
      <point x="554" y="56" type="curve" smooth="yes"/>
      <point x="715" y="56"/>
      <point x="855" y="200"/>
      <point x="855" y="365" type="curve" smooth="yes"/>
      <point x="855" y="549"/>
      <point x="713" y="658"/>
      <point x="523" y="658" type="curve" smooth="yes"/>
      <point x="226" y="658"/>
      <point x="50" y="423"/>
      <point x="50" y="181" type="curve" smooth="yes"/>
      <point x="50" y="-7"/>
      <point x="176" y="-147"/>
      <point x="376" y="-147" type="curve" smooth="yes"/>
      <point x="450" y="-147"/>
      <point x="519" y="-137"/>
      <point x="599" y="-110" type="curve" smooth="yes"/>
      <point x="615" y="-105"/>
      <point x="621" y="-91"/>
      <point x="615" y="-71" type="curve" smooth="yes"/>
      <point x="609" y="-52"/>
      <point x="595" y="-44"/>
      <point x="580" y="-49" type="curve" smooth="yes"/>
      <point x="509" y="-72"/>
      <point x="448" y="-85"/>
      <point x="384" y="-85" type="curve" smooth="yes"/>
      <point x="214" y="-85"/>
      <point x="116" y="30"/>
      <point x="116" y="185" type="curve" smooth="yes"/>
      <point x="116" y="386"/>
      <point x="253" y="595"/>
      <point x="515" y="595" type="curve" smooth="yes"/>
      <point x="679" y="595"/>
      <point x="789" y="516"/>
      <point x="789" y="364" type="curve" smooth="yes"/>
      <point x="789" y="249"/>
      <point x="703" y="125"/>
      <point x="575" y="125" type="curve" smooth="yes"/>
      <point x="568" y="125"/>
      <point x="565" y="131"/>
      <point x="571" y="150" type="curve" smooth="yes"/>
      <point x="666" y="430" type="line" smooth="yes"/>
      <point x="674" y="453"/>
      <point x="665" y="464"/>
      <point x="631" y="464" type="curve" smooth="yes"/>
      <point x="614" y="464"/>
      <point x="603" y="459"/>
      <point x="594" y="450" type="curve" smooth="yes"/>
      <point x="591" y="448" type="line"/>
      <point x="561" y="460"/>
      <point x="528" y="468"/>
      <point x="500" y="468" type="curve" smooth="yes"/>
      <point x="336" y="468"/>
      <point x="244" y="284"/>
    </contour>
    <contour>
      <point x="328" y="184" type="curve" smooth="yes"/>
      <point x="328" y="256"/>
      <point x="384" y="395"/>
      <point x="488" y="395" type="curve" smooth="yes"/>
      <point x="518" y="395"/>
      <point x="544" y="391"/>
      <point x="570" y="383" type="curve"/>
      <point x="563" y="363" type="line"/>
      <point x="484" y="213"/>
      <point x="408" y="128"/>
      <point x="359" y="128" type="curve" smooth="yes"/>
      <point x="340" y="128"/>
      <point x="328" y="149"/>
    </contour>
  </outline>
</glyph>
<glyph name="A" format="2">
  <advance width="751"/>
  <unicode hex="0041"/>
  <anchor x="294" y="0" name="bottom"/>
  <anchor x="635" y="0" name="ogonek"/>
  <anchor x="528" y="838" name="top"/>
  <outline>
    <contour>
      <point x="-20" y="-14" type="curve" smooth="yes"/>
      <point x="14" y="-14"/>
      <point x="21" y="-9"/>
      <point x="45" y="26" type="curve" smooth="yes"/>
      <point x="191" y="244" type="line"/>
      <point x="559" y="244" type="line"/>
      <point x="571" y="23" type="line" smooth="yes"/>
      <point x="573" y="-4"/>
      <point x="579" y="-14"/>
      <point x="609" y="-14" type="curve" smooth="yes"/>
      <point x="644" y="-14"/>
      <point x="658" y="4"/>
      <point x="656" y="31" type="curve" smooth="yes"/>
      <point x="611" y="839" type="line" smooth="yes"/>
      <point x="609" y="881"/>
      <point x="594" y="890"/>
      <point x="569" y="890" type="curve" smooth="yes"/>
      <point x="536" y="890"/>
      <point x="520" y="880"/>
      <point x="500" y="850" type="curve" smooth="yes"/>
      <point x="-47" y="39" type="line" smooth="yes"/>
      <point x="-67" y="10"/>
      <point x="-55" y="-14"/>
    </contour>
    <contour>
      <point x="246" y="324" type="line"/>
      <point x="531" y="749" type="line"/>
      <point x="555" y="324" type="line"/>
    </contour>
  </outline>
</glyph>
<glyph name="C" format="2">
  <advance width="777"/>
  <unicode hex="0043"/>
  <anchor x="358" y="0" name="bottom"/>
  <anchor x="617" y="838" name="top"/>
  <outline>
    <contour>
      <point x="415" y="-19" type="curve" smooth="yes"/>
      <point x="498" y="-19"/>
      <point x="623" y="14"/>
      <point x="745" y="173" type="curve" smooth="yes"/>
      <point x="760" y="193"/>
      <point x="757" y="203"/>
      <point x="740" y="220" type="curve" smooth="yes"/>
      <point x="725" y="235"/>
      <point x="710" y="245"/>
      <point x="695" y="229" type="curve" smooth="yes"/>
      <point x="605" y="126"/>
      <point x="527" y="66"/>
      <point x="430" y="66" type="curve" smooth="yes"/>
      <point x="278" y="66"/>
      <point x="217" y="148"/>
      <point x="217" y="319" type="curve" smooth="yes"/>
      <point x="217" y="520"/>
      <point x="378" y="805"/>
      <point x="621" y="805" type="curve" smooth="yes"/>
      <point x="718" y="805"/>
      <point x="775" y="783"/>
      <point x="817" y="744" type="curve" smooth="yes"/>
      <point x="835" y="728"/>
      <point x="846" y="731"/>
      <point x="863" y="745" type="curve" smooth="yes"/>
      <point x="882" y="760"/>
      <point x="888" y="769"/>
      <point x="878" y="784" type="curve" smooth="yes"/>
      <point x="830" y="853"/>
      <point x="751" y="890"/>
      <point x="636" y="890" type="curve" smooth="yes"/>
      <point x="291" y="890"/>
      <point x="123" y="533"/>
      <point x="123" y="303" type="curve" smooth="yes"/>
      <point x="123" y="100"/>
      <point x="231" y="-19"/>
    </contour>
  </outline>
</glyph>
<glyph name="D" format="2">
	<unicode hex="0044"/>
	<advance width="695"/>
	<outline>
		<contour>
			<point x="70" y="0" type="curve" smooth="yes"/>
			<point x="220" y="0" type="line" smooth="yes"/>
			<point x="474" y="0"/>
			<point x="700" y="198"/>
			<point x="700" y="478" type="curve" smooth="yes"/>
			<point x="700" y="598"/>
			<point x="610" y="700"/>
			<point x="421" y="700" type="curve" smooth="yes"/>
			<point x="298" y="700" type="line" smooth="yes"/>
			<point x="275" y="700"/>
			<point x="261" y="693"/>
			<point x="256" y="678" type="curve" smooth="yes"/>
			<point x="42" y="22" type="line" smooth="yes"/>
			<point x="37" y="7"/>
			<point x="47" y="0"/>
		</contour>
		<contour>
			<point x="127" y="68" type="line"/>
			<point x="311" y="632" type="line"/>
			<point x="420" y="632" type="line" smooth="yes"/>
			<point x="540" y="632"/>
			<point x="621" y="575"/>
			<point x="621" y="478" type="curve" smooth="yes"/>
			<point x="621" y="224"/>
			<point x="420" y="68"/>
			<point x="220" y="68" type="curve" smooth="yes"/>
		</contour>
	</outline>
	<anchor name="bottom" x="278" y="0"/>
	<anchor name="center" x="235" y="355"/>
	<anchor name="top" x="464" y="670"/>
</glyph>
<glyph name="E" format="2">
	<unicode hex="0045"/>
	<advance width="530"/>
	<outline>
		<contour>
			<point x="78" y="0" type="curve" smooth="yes"/>
			<point x="415" y="0" type="line" smooth="yes"/>
			<point x="427" y="0"/>
			<point x="438" y="11"/>
			<point x="444" y="32" type="curve" smooth="yes"/>
			<point x="450" y="54"/>
			<point x="445" y="64"/>
			<point x="433" y="64" type="curve" smooth="yes"/>
			<point x="128" y="64" type="line"/>
			<point x="216" y="338" type="line"/>
			<point x="473" y="338" type="line" smooth="yes"/>
			<point x="485" y="338"/>
			<point x="496" y="349"/>
			<point x="502" y="370" type="curve" smooth="yes"/>
			<point x="508" y="392"/>
			<point x="503" y="402"/>
			<point x="491" y="402" type="curve" smooth="yes"/>
			<point x="236" y="402" type="line"/>
			<point x="312" y="636" type="line"/>
			<point x="620" y="636" type="line" smooth="yes"/>
			<point x="632" y="636"/>
			<point x="643" y="647"/>
			<point x="649" y="668" type="curve" smooth="yes"/>
			<point x="655" y="690"/>
			<point x="650" y="700"/>
			<point x="638" y="700" type="curve" smooth="yes"/>
			<point x="293" y="700" type="line" smooth="yes"/>
			<point x="271" y="700"/>
			<point x="259" y="692"/>
			<point x="255" y="678" type="curve" smooth="yes"/>
			<point x="47" y="32" type="line" smooth="yes"/>
			<point x="39" y="8"/>
			<point x="51" y="0"/>
		</contour>
	</outline>
	<anchor name="bottom" x="253" y="0"/>
	<anchor name="ogonek" x="428" y="10"/>
	<anchor name="top" x="436" y="670"/>
</glyph>
<glyph name="F" format="2">
  <advance width="625"/>
  <unicode hex="0046"/>
  <outline>
    <contour>
      <point x="83" y="-14" type="curve"/>
      <point x="111" y="-14"/>
      <point x="131" y="-5"/>
      <point x="138" y="14" type="curve" smooth="yes"/>
      <point x="261" y="398" type="line"/>
      <point x="581" y="398" type="line" smooth="yes"/>
      <point x="596" y="398"/>
      <point x="610" y="410"/>
      <point x="619" y="436" type="curve" smooth="yes"/>
      <point x="628" y="463"/>
      <point x="623" y="478"/>
      <point x="608" y="478" type="curve" smooth="yes"/>
      <point x="286" y="478" type="line"/>
      <point x="390" y="795" type="line"/>
      <point x="768" y="795" type="line" smooth="yes"/>
      <point x="783" y="795"/>
      <point x="796" y="809"/>
      <point x="804" y="835" type="curve" smooth="yes"/>
      <point x="811" y="863"/>
      <point x="805" y="875"/>
      <point x="790" y="875" type="curve" smooth="yes"/>
      <point x="373" y="875" type="line" smooth="yes"/>
      <point x="344" y="875"/>
      <point x="325" y="866"/>
      <point x="319" y="848" type="curve" smooth="yes"/>
      <point x="49" y="14" type="line" smooth="yes"/>
      <point x="43" y="-5"/>
      <point x="54" y="-14"/>
    </contour>
  </outline>
</glyph>
<glyph name="G" format="2">
	<unicode hex="0047"/>
	<advance width="700"/>
	<outline>
		<contour>
			<point x="330" y="-15" type="curve" smooth="yes"/>
			<point x="453" y="-16"/>
			<point x="607" y="65"/>
			<point x="681" y="342" type="curve" smooth="yes"/>
			<point x="687" y="366"/>
			<point x="685" y="374"/>
			<point x="669" y="374" type="curve" smooth="yes"/>
			<point x="438" y="374" type="line" smooth="yes"/>
			<point x="422" y="374"/>
			<point x="414" y="366"/>
			<point x="406" y="342" type="curve" smooth="yes"/>
			<point x="398" y="318"/>
			<point x="401" y="310"/>
			<point x="417" y="310" type="curve" smooth="yes"/>
			<point x="598" y="310" type="line"/>
			<point x="537" y="129"/>
			<point x="438" y="53"/>
			<point x="342" y="53" type="curve" smooth="yes"/>
			<point x="221" y="53"/>
			<point x="172" y="118"/>
			<point x="172" y="255" type="curve" smooth="yes"/>
			<point x="172" y="416"/>
			<point x="301" y="644"/>
			<point x="495" y="644" type="curve" smooth="yes"/>
			<point x="573" y="644"/>
			<point x="618" y="626"/>
			<point x="652" y="595" type="curve" smooth="yes"/>
			<point x="666" y="582"/>
			<point x="675" y="585"/>
			<point x="689" y="596" type="curve" smooth="yes"/>
			<point x="704" y="608"/>
			<point x="709" y="615"/>
			<point x="701" y="627" type="curve" smooth="yes"/>
			<point x="662" y="682"/>
			<point x="599" y="712"/>
			<point x="507" y="712" type="curve" smooth="yes"/>
			<point x="231" y="712"/>
			<point x="97" y="426"/>
			<point x="97" y="242" type="curve" smooth="yes"/>
			<point x="97" y="80"/>
			<point x="183" y="-14"/>
		</contour>
	</outline>
	<anchor name="bottom" x="295" y="0"/>
	<anchor name="top" x="495" y="670"/>
</glyph>
<glyph name="H" format="2">
  <advance width="888"/>
  <unicode hex="0048"/>
  <anchor x="363" y="0" name="bottom"/>
  <anchor x="584" y="676" name="center"/>
  <anchor x="618" y="838" name="top"/>
  <outline>
    <contour>
      <point x="84" y="-14" type="curve" smooth="yes"/>
      <point x="113" y="-14"/>
      <point x="130" y="-5"/>
      <point x="136" y="14" type="curve" smooth="yes"/>
      <point x="268" y="419" type="line"/>
      <point x="730" y="419" type="line"/>
      <point x="599" y="14" type="line" smooth="yes"/>
      <point x="593" y="-5"/>
      <point x="605" y="-14"/>
      <point x="634" y="-14" type="curve" smooth="yes"/>
      <point x="663" y="-14"/>
      <point x="680" y="-5"/>
      <point x="686" y="14" type="curve" smooth="yes"/>
      <point x="961" y="863" type="line" smooth="yes"/>
      <point x="968" y="881"/>
      <point x="955" y="890"/>
      <point x="926" y="890" type="curve" smooth="yes"/>
      <point x="898" y="890"/>
      <point x="880" y="881"/>
      <point x="874" y="863" type="curve" smooth="yes"/>
      <point x="756" y="499" type="line"/>
      <point x="294" y="499" type="line"/>
      <point x="411" y="863" type="line" smooth="yes"/>
      <point x="418" y="881"/>
      <point x="405" y="890"/>
      <point x="376" y="890" type="curve" smooth="yes"/>
      <point x="348" y="890"/>
      <point x="330" y="881"/>
      <point x="324" y="863" type="curve" smooth="yes"/>
      <point x="49" y="14" type="line" smooth="yes"/>
      <point x="43" y="-5"/>
      <point x="55" y="-14"/>
    </contour>
  </outline>
</glyph>
<glyph name="J" format="2">
	<unicode hex="004A"/>
	<advance width="520"/>
	<outline>
		<contour>
			<point x="192" y="-15" type="curve" smooth="yes"/>
			<point x="298" y="-15"/>
			<point x="381" y="38"/>
			<point x="434" y="200" type="curve" smooth="yes"/>
			<point x="593" y="690" type="line" smooth="yes"/>
			<point x="598" y="705"/>
			<point x="588" y="712"/>
			<point x="565" y="712" type="curve" smooth="yes"/>
			<point x="542" y="712"/>
			<point x="528" y="705"/>
			<point x="523" y="690" type="curve" smooth="yes"/>
			<point x="364" y="200" type="line" smooth="yes"/>
			<point x="325" y="81"/>
			<point x="269" y="53"/>
			<point x="192" y="53" type="curve" smooth="yes"/>
			<point x="134" y="53"/>
			<point x="87" y="85"/>
			<point x="71" y="135" type="curve" smooth="yes"/>
			<point x="64" y="156"/>
			<point x="55" y="161"/>
			<point x="29" y="154" type="curve" smooth="yes"/>
			<point x="11" y="150"/>
			<point x="3" y="143"/>
			<point x="6" y="126" type="curve" smooth="yes"/>
			<point x="24" y="34"/>
			<point x="118" y="-15"/>
		</contour>
	</outline>
	<anchor name="bottom" x="195" y="0"/>
	<anchor name="top" x="546" y="670"/>
</glyph>
<glyph name="K" format="2">
  <advance width="687"/>
  <unicode hex="004B"/>
  <anchor x="299" y="0" name="bottom"/>
  <anchor x="573" y="838" name="top"/>
  <outline>
    <contour>
      <point x="83" y="-14" type="curve" smooth="yes"/>
      <point x="112" y="-14"/>
      <point x="129" y="-5"/>
      <point x="135" y="14" type="curve" smooth="yes"/>
      <point x="270" y="430" type="line"/>
      <point x="338" y="283"/>
      <point x="429" y="130"/>
      <point x="538" y="-4" type="curve" smooth="yes"/>
      <point x="549" y="-17"/>
      <point x="568" y="-24"/>
      <point x="588" y="-10" type="curve" smooth="yes"/>
      <point x="615" y="10"/>
      <point x="622" y="23"/>
      <point x="603" y="46" type="curve" smooth="yes"/>
      <point x="500" y="171"/>
      <point x="422" y="289"/>
      <point x="338" y="454" type="curve"/>
      <point x="814" y="813" type="line" smooth="yes"/>
      <point x="842" y="834"/>
      <point x="842" y="844"/>
      <point x="825" y="868" type="curve" smooth="yes"/>
      <point x="809" y="891"/>
      <point x="795" y="895"/>
      <point x="770" y="876" type="curve" smooth="yes"/>
      <point x="298" y="515" type="line"/>
      <point x="412" y="863" type="line" smooth="yes"/>
      <point x="418" y="881"/>
      <point x="405" y="890"/>
      <point x="377" y="890" type="curve" smooth="yes"/>
      <point x="348" y="890"/>
      <point x="330" y="881"/>
      <point x="324" y="863" type="curve" smooth="yes"/>
      <point x="48" y="14" type="line" smooth="yes"/>
      <point x="42" y="-5"/>
      <point x="54" y="-14"/>
    </contour>
  </outline>
</glyph>
<glyph name="M" format="2">
  <advance width="1051"/>
  <unicode hex="004D"/>
  <anchor x="455" y="0" name="bottom"/>
  <anchor x="704" y="838" name="top"/>
  <outline>
    <contour>
      <point x="90" y="-14" type="curve" smooth="yes"/>
      <point x="120" y="-14"/>
      <point x="134" y="-5"/>
      <point x="140" y="14" type="curve" smooth="yes"/>
      <point x="365" y="715" type="line"/>
      <point x="475" y="234" type="line" smooth="yes"/>
      <point x="480" y="211"/>
      <point x="495" y="209"/>
      <point x="521" y="209" type="curve" smooth="yes"/>
      <point x="546" y="209"/>
      <point x="554" y="214"/>
      <point x="569" y="230" type="curve" smooth="yes"/>
      <point x="978" y="698" type="line"/>
      <point x="763" y="16" type="line" smooth="yes"/>
      <point x="756" y="-5"/>
      <point x="770" y="-14"/>
      <point x="800" y="-14" type="curve" smooth="yes"/>
      <point x="830" y="-14"/>
      <point x="843" y="-5"/>
      <point x="849" y="14" type="curve" smooth="yes"/>
      <point x="1115" y="860" type="line" smooth="yes"/>
      <point x="1121" y="881"/>
      <point x="1106" y="890"/>
      <point x="1076" y="890" type="curve" smooth="yes"/>
      <point x="1045" y="890"/>
      <point x="1034" y="881"/>
      <point x="1018" y="863" type="curve" smooth="yes"/>
      <point x="541" y="316" type="line"/>
      <point x="415" y="863" type="line" smooth="yes"/>
      <point x="411" y="879"/>
      <point x="401" y="890"/>
      <point x="375" y="890" type="curve" smooth="yes"/>
      <point x="345" y="890"/>
      <point x="330" y="881"/>
      <point x="324" y="863" type="curve" smooth="yes"/>
      <point x="54" y="16" type="line" smooth="yes"/>
      <point x="48" y="-5"/>
      <point x="60" y="-14"/>
    </contour>
  </outline>
</glyph>
<glyph name="O" format="2">
	<unicode hex="004F"/>
	<advance width="740"/>
	<outline>
		<contour>
			<point x="345" y="-15" type="curve" smooth="yes"/>
			<point x="596" y="-15"/>
			<point x="733" y="240"/>
			<point x="733" y="445" type="curve" smooth="yes"/>
			<point x="733" y="607"/>
			<point x="637" y="712"/>
			<point x="492" y="712" type="curve" smooth="yes"/>
			<point x="228" y="712"/>
			<point x="102" y="436"/>
			<point x="102" y="252" type="curve" smooth="yes"/>
			<point x="102" y="90"/>
			<point x="199" y="-15"/>
		</contour>
		<contour>
			<point x="357" y="53" type="curve" smooth="yes"/>
			<point x="236" y="53"/>
			<point x="177" y="128"/>
			<point x="177" y="265" type="curve" smooth="yes"/>
			<point x="177" y="417"/>
			<point x="286" y="644"/>
			<point x="480" y="644" type="curve" smooth="yes"/>
			<point x="598" y="644"/>
			<point x="659" y="570"/>
			<point x="659" y="432" type="curve" smooth="yes"/>
			<point x="659" y="276"/>
			<point x="555" y="53"/>
		</contour>
	</outline>
	<anchor name="bottom" x="305" y="0"/>
	<anchor name="center" x="419" y="350"/>
	<anchor name="ogonek" x="604" y="10"/>
	<anchor name="top" x="504" y="670"/>
	<anchor name="topright" x="571" y="700"/>
</glyph>
<glyph name="P" format="2">
  <advance width="560"/>
  <unicode hex="0050"/>
  <outline>
    <contour>
      <point x="71" y="-11" type="curve" smooth="yes"/>
      <point x="95" y="-11"/>
      <point x="105" y="-4"/>
      <point x="110" y="11" type="curve" smooth="yes"/>
      <point x="196" y="276" type="line"/>
      <point x="233" y="276"/>
      <point x="281" y="278"/>
      <point x="321" y="283" type="curve" smooth="yes"/>
      <point x="509" y="307"/>
      <point x="643" y="381"/>
      <point x="643" y="543" type="curve" smooth="yes"/>
      <point x="643" y="647"/>
      <point x="568" y="700"/>
      <point x="420" y="700" type="curve" smooth="yes"/>
      <point x="296" y="700" type="line" smooth="yes"/>
      <point x="272" y="700"/>
      <point x="260" y="693"/>
      <point x="255" y="678" type="curve" smooth="yes"/>
      <point x="40" y="13" type="line" smooth="yes"/>
      <point x="35" y="-4"/>
      <point x="47" y="-11"/>
    </contour>
    <contour>
      <point x="216" y="340" type="curve"/>
      <point x="312" y="636" type="line"/>
      <point x="409" y="636" type="line" smooth="yes"/>
      <point x="523" y="636"/>
      <point x="571" y="606"/>
      <point x="571" y="534" type="curve" smooth="yes"/>
      <point x="571" y="429"/>
      <point x="489" y="371"/>
      <point x="342" y="348" type="curve" smooth="yes"/>
      <point x="302" y="342"/>
      <point x="254" y="340"/>
    </contour>
  </outline>
</glyph>
<glyph name="Q" format="2">
	<unicode hex="0051"/>
	<advance width="740"/>
	<outline>
		<contour>
			<point x="470" y="-153" type="curve" smooth="yes"/>
			<point x="491" y="-149"/>
			<point x="502" y="-132"/>
			<point x="494" y="-111" type="curve" smooth="yes"/>
			<point x="412" y="134" type="line" smooth="yes"/>
			<point x="406" y="153"/>
			<point x="392" y="162"/>
			<point x="374" y="158" type="curve" smooth="yes"/>
			<point x="353" y="154"/>
			<point x="342" y="137"/>
			<point x="350" y="116" type="curve" smooth="yes"/>
			<point x="432" y="-129" type="line" smooth="yes"/>
			<point x="438" y="-148"/>
			<point x="452" y="-157"/>
		</contour>
		<component base="O"/>
	</outline>
	<anchor name="bottom" x="305" y="0"/>
	<anchor name="center" x="419" y="350"/>
	<anchor name="ogonek" x="604" y="10"/>
	<anchor name="top" x="504" y="670"/>
	<anchor name="topright" x="571" y="700"/>
</glyph>
<glyph name="S" format="2">
	<unicode hex="0053"/>
	<advance width="550"/>
	<outline>
		<contour>
			<point x="240" y="-15" type="curve" smooth="yes"/>
			<point x="387" y="-15"/>
			<point x="494" y="68"/>
			<point x="494" y="189" type="curve" smooth="yes"/>
			<point x="494" y="277"/>
			<point x="444" y="337"/>
			<point x="351" y="384" type="curve" smooth="yes"/>
			<point x="262" y="429"/>
			<point x="235" y="462"/>
			<point x="235" y="527" type="curve" smooth="yes"/>
			<point x="235" y="606"/>
			<point x="300" y="644"/>
			<point x="393" y="644" type="curve" smooth="yes"/>
			<point x="464" y="644"/>
			<point x="499" y="617"/>
			<point x="537" y="589" type="curve" smooth="yes"/>
			<point x="548" y="581"/>
			<point x="561" y="582"/>
			<point x="573" y="594" type="curve" smooth="yes"/>
			<point x="587" y="607"/>
			<point x="590" y="619"/>
			<point x="579" y="630" type="curve" smooth="yes"/>
			<point x="535" y="672"/>
			<point x="475" y="712"/>
			<point x="393" y="712" type="curve" smooth="yes"/>
			<point x="250" y="712"/>
			<point x="161" y="634"/>
			<point x="161" y="527" type="curve" smooth="yes"/>
			<point x="161" y="423"/>
			<point x="226" y="370"/>
			<point x="312" y="324" type="curve" smooth="yes"/>
			<point x="384" y="286"/>
			<point x="420" y="247"/>
			<point x="420" y="189" type="curve" smooth="yes"/>
			<point x="420" y="96"/>
			<point x="343" y="53"/>
			<point x="240" y="53" type="curve" smooth="yes"/>
			<point x="168" y="53"/>
			<point x="108" y="91"/>
			<point x="72" y="134" type="curve" smooth="yes"/>
			<point x="62" y="146"/>
			<point x="50" y="141"/>
			<point x="36" y="129" type="curve" smooth="yes"/>
			<point x="25" y="119"/>
			<point x="17" y="108"/>
			<point x="26" y="95" type="curve" smooth="yes"/>
			<point x="70" y="36"/>
			<point x="143" y="-15"/>
		</contour>
	</outline>
	<anchor name="bottom" x="229" y="0"/>
	<anchor name="top" x="387" y="670"/>
</glyph>
<glyph name="U" format="2">
  <advance width="863"/>
  <unicode hex="0055"/>
  <anchor x="350" y="0" name="bottom"/>
  <anchor x="515" y="13" name="ogonek"/>
  <anchor x="601" y="838" name="top"/>
  <anchor x="913" y="888" name="topright"/>
  <outline>
    <contour>
      <point x="368" y="-19" type="curve" smooth="yes"/>
      <point x="559" y="-19"/>
      <point x="699" y="83"/>
      <point x="758" y="273" type="curve" smooth="yes"/>
      <point x="939" y="860" type="line" smooth="yes"/>
      <point x="945" y="881"/>
      <point x="930" y="890"/>
      <point x="900" y="890" type="curve" smooth="yes"/>
      <point x="869" y="890"/>
      <point x="855" y="881"/>
      <point x="849" y="863" type="curve" smooth="yes"/>
      <point x="671" y="284" type="line" smooth="yes"/>
      <point x="629" y="144"/>
      <point x="530" y="66"/>
      <point x="375" y="66" type="curve" smooth="yes"/>
      <point x="239" y="66"/>
      <point x="165" y="126"/>
      <point x="216" y="284" type="curve" smooth="yes"/>
      <point x="403" y="860" type="line" smooth="yes"/>
      <point x="409" y="881"/>
      <point x="393" y="890"/>
      <point x="363" y="890" type="curve" smooth="yes"/>
      <point x="331" y="890"/>
      <point x="318" y="881"/>
      <point x="311" y="863" type="curve" smooth="yes"/>
      <point x="130" y="295" type="line" smooth="yes"/>
      <point x="65" y="91"/>
      <point x="166" y="-19"/>
    </contour>
  </outline>
</glyph>
<glyph name="V" format="2">
	<unicode hex="0056"/>
	<advance width="580"/>
	<outline>
		<contour>
			<point x="222" y="-11" type="curve" smooth="yes"/>
			<point x="248" y="-11"/>
			<point x="260" y="-3"/>
			<point x="277" y="21" type="curve" smooth="yes"/>
			<point x="720" y="670" type="line" smooth="yes"/>
			<point x="736" y="693"/>
			<point x="726" y="712"/>
			<point x="698" y="712" type="curve" smooth="yes"/>
			<point x="671" y="712"/>
			<point x="665" y="708"/>
			<point x="646" y="680" type="curve" smooth="yes"/>
			<point x="253" y="102" type="line"/>
			<point x="237" y="683" type="line" smooth="yes"/>
			<point x="236" y="704"/>
			<point x="231" y="712"/>
			<point x="207" y="712" type="curve" smooth="yes"/>
			<point x="179" y="712"/>
			<point x="167" y="698"/>
			<point x="168" y="676" type="curve" smooth="yes"/>
			<point x="188" y="30" type="line" smooth="yes"/>
			<point x="189" y="-4"/>
			<point x="202" y="-11"/>
		</contour>
	</outline>
</glyph>
<glyph name="X" format="2">
  <advance width="550"/>
  <unicode hex="0058"/>
  <outline>
    <contour>
      <point x="429" y="-11" type="curve" smooth="yes"/>
      <point x="452" y="-11"/>
      <point x="465" y="7"/>
      <point x="457" y="36" type="curve" smooth="yes"/>
      <point x="366" y="352" type="line"/>
      <point x="665" y="665" type="line" smooth="yes"/>
      <point x="692" y="694"/>
      <point x="671" y="712"/>
      <point x="650" y="712" type="curve" smooth="yes"/>
      <point x="630" y="712"/>
      <point x="616" y="707"/>
      <point x="595" y="685" type="curve" smooth="yes"/>
      <point x="346" y="422" type="line"/>
      <point x="270" y="685" type="line" smooth="yes"/>
      <point x="263" y="708"/>
      <point x="253" y="712"/>
      <point x="232" y="712" type="curve" smooth="yes"/>
      <point x="209" y="712"/>
      <point x="196" y="694"/>
      <point x="204" y="665" type="curve" smooth="yes"/>
      <point x="291" y="362" type="line"/>
      <point x="-18" y="36" type="line" smooth="yes"/>
      <point x="-45" y="7"/>
      <point x="-24" y="-11"/>
      <point x="-3" y="-11" type="curve" smooth="yes"/>
      <point x="17" y="-11"/>
      <point x="31" y="-6"/>
      <point x="52" y="16" type="curve" smooth="yes"/>
      <point x="312" y="292" type="line"/>
      <point x="391" y="16" type="line" smooth="yes"/>
      <point x="398" y="-7"/>
      <point x="408" y="-11"/>
    </contour>
  </outline>
</glyph>
<glyph name="Y" format="2">
	<unicode hex="0059"/>
	<advance width="490"/>
	<outline>
		<contour>
			<point x="167" y="-11" type="curve" smooth="yes"/>
			<point x="190" y="-11"/>
			<point x="206" y="-4"/>
			<point x="211" y="11" type="curve" smooth="yes"/>
			<point x="307" y="306" type="line"/>
			<point x="639" y="670" type="line" smooth="yes"/>
			<point x="658" y="691"/>
			<point x="645" y="712"/>
			<point x="619" y="712" type="curve" smooth="yes"/>
			<point x="591" y="712"/>
			<point x="581" y="702"/>
			<point x="564" y="683" type="curve" smooth="yes"/>
			<point x="289" y="383" type="line"/>
			<point x="229" y="683" type="line" smooth="yes"/>
			<point x="225" y="702"/>
			<point x="218" y="712"/>
			<point x="194" y="712" type="curve" smooth="yes"/>
			<point x="166" y="712"/>
			<point x="156" y="697"/>
			<point x="160" y="676" type="curve" smooth="yes"/>
			<point x="236" y="308" type="line"/>
			<point x="139" y="11" type="line" smooth="yes"/>
			<point x="134" y="-4"/>
			<point x="144" y="-11"/>
		</contour>
	</outline>
	<anchor name="bottom" x="189" y="0"/>
	<anchor name="top" x="376" y="670"/>
</glyph>
<glyph name="Z" format="2">
	<unicode hex="005A"/>
	<advance width="490"/>
	<outline>
		<contour>
			<point x="-30" y="0" type="curve" smooth="yes"/>
			<point x="398" y="0" type="line" smooth="yes"/>
			<point x="410" y="0"/>
			<point x="421" y="11"/>
			<point x="427" y="32" type="curve" smooth="yes"/>
			<point x="433" y="54"/>
			<point x="428" y="64"/>
			<point x="416" y="64" type="curve" smooth="yes"/>
			<point x="71" y="64" type="line"/>
			<point x="617" y="654" type="line" smooth="yes"/>
			<point x="634" y="672"/>
			<point x="627" y="700"/>
			<point x="608" y="700" type="curve" smooth="yes"/>
			<point x="214" y="700" type="line" smooth="yes"/>
			<point x="202" y="700"/>
			<point x="191" y="689"/>
			<point x="185" y="668" type="curve" smooth="yes"/>
			<point x="179" y="646"/>
			<point x="184" y="636"/>
			<point x="196" y="636" type="curve" smooth="yes"/>
			<point x="507" y="636" type="line"/>
			<point x="-39" y="46" type="line" smooth="yes"/>
			<point x="-56" y="28"/>
			<point x="-49" y="0"/>
		</contour>
	</outline>
	<anchor name="bottom" x="190" y="0"/>
	<anchor name="center" x="294" y="369"/>
	<anchor name="top" x="367" y="670"/>
</glyph>
<glyph name="backslash" format="2">
	<unicode hex="005C"/>
	<advance width="258"/>
	<outline>
		<contour>
			<point x="211" y="-61" type="curve" smooth="yes"/>
			<point x="234" y="-59"/>
			<point x="246" y="-51"/>
			<point x="245" y="-35" type="curve" smooth="yes"/>
			<point x="184" y="740" type="line" smooth="yes"/>
			<point x="183" y="756"/>
			<point x="170" y="762"/>
			<point x="147" y="760" type="curve" smooth="yes"/>
			<point x="124" y="758"/>
			<point x="113" y="750"/>
			<point x="114" y="734" type="curve" smooth="yes"/>
			<point x="175" y="-41" type="line" smooth="yes"/>
			<point x="176" y="-57"/>
			<point x="188" y="-63"/>
		</contour>
	</outline>
</glyph>
<glyph name="bracketright" format="2">
  <advance width="300"/>
  <unicode hex="005D"/>
  <outline>
    <contour>
      <point x="-51" y="-28" type="curve" smooth="yes"/>
      <point x="-59" y="-52"/>
      <point x="-55" y="-60"/>
      <point x="-39" y="-60" type="curve" smooth="yes"/>
      <point x="81" y="-60" type="line" smooth="yes"/>
      <point x="104" y="-60"/>
      <point x="118" y="-53"/>
      <point x="123" y="-38" type="curve" smooth="yes"/>
      <point x="375" y="738" type="line" smooth="yes"/>
      <point x="380" y="753"/>
      <point x="370" y="760"/>
      <point x="347" y="760" type="curve" smooth="yes"/>
      <point x="227" y="760" type="line" smooth="yes"/>
      <point x="211" y="760"/>
      <point x="203" y="752"/>
      <point x="195" y="728" type="curve" smooth="yes"/>
      <point x="187" y="704"/>
      <point x="190" y="696"/>
      <point x="206" y="696" type="curve" smooth="yes"/>
      <point x="287" y="696" type="line"/>
      <point x="63" y="4" type="line"/>
      <point x="-18" y="4" type="line" smooth="yes"/>
      <point x="-34" y="4"/>
      <point x="-43" y="-4"/>
    </contour>
  </outline>
</glyph>
<glyph name="asciicircum" format="2">
  <advance width="763"/>
  <unicode hex="005E"/>
  <outline>
    <contour>
      <point x="201" y="520" type="line" smooth="yes"/>
      <point x="178" y="496"/>
      <point x="178" y="485"/>
      <point x="198" y="468" type="curve" smooth="yes"/>
      <point x="220" y="449"/>
      <point x="236" y="449"/>
      <point x="260" y="474" type="curve" smooth="yes"/>
      <point x="556" y="786" type="line"/>
      <point x="640" y="498" type="line" smooth="yes"/>
      <point x="649" y="466"/>
      <point x="665" y="458"/>
      <point x="694" y="469" type="curve" smooth="yes"/>
      <point x="721" y="479"/>
      <point x="728" y="493"/>
      <point x="720" y="519" type="curve" smooth="yes"/>
      <point x="619" y="859" type="line" smooth="yes"/>
      <point x="613" y="880"/>
      <point x="604" y="890"/>
      <point x="581" y="890" type="curve" smooth="yes"/>
      <point x="559" y="890"/>
      <point x="545" y="881"/>
      <point x="524" y="859" type="curve" smooth="yes"/>
    </contour>
  </outline>
</glyph>
<glyph name="underscore" format="2">
  <advance width="440"/>
  <unicode hex="005F"/>
  <outline>
    <contour>
      <point x="-49" y="-107" type="curve" smooth="yes"/>
      <point x="291" y="-107" type="line" smooth="yes"/>
      <point x="307" y="-107"/>
      <point x="315" y="-99"/>
      <point x="323" y="-75" type="curve" smooth="yes"/>
      <point x="331" y="-51"/>
      <point x="327" y="-43"/>
      <point x="311" y="-43" type="curve" smooth="yes"/>
      <point x="-29" y="-43" type="line" smooth="yes"/>
      <point x="-45" y="-43"/>
      <point x="-53" y="-51"/>
      <point x="-61" y="-75" type="curve" smooth="yes"/>
      <point x="-69" y="-99"/>
      <point x="-65" y="-107"/>
    </contour>
  </outline>
</glyph>
<glyph name="a" format="2">
	<unicode hex="0061"/>
	<advance width="498"/>
	<outline>
		<contour>
			<point x="118" y="-14" type="curve" smooth="yes"/>
			<point x="173" y="-14"/>
			<point x="236" y="32"/>
			<point x="304" y="126" type="curve"/>
			<point x="303" y="123"/>
			<point x="302" y="121"/>
			<point x="301" y="118" type="curve" smooth="yes"/>
			<point x="284" y="68"/>
			<point x="268" y="-12"/>
			<point x="348" y="-12" type="curve" smooth="yes"/>
			<point x="406" y="-12"/>
			<point x="447" y="40"/>
			<point x="462" y="65" type="curve" smooth="yes"/>
			<point x="468" y="75"/>
			<point x="465" y="86"/>
			<point x="448" y="97" type="curve" smooth="yes"/>
			<point x="436" y="105"/>
			<point x="428" y="103"/>
			<point x="420" y="93" type="curve" smooth="yes"/>
			<point x="397" y="65"/>
			<point x="380" y="49"/>
			<point x="364" y="49" type="curve" smooth="yes"/>
			<point x="355" y="49"/>
			<point x="349" y="53"/>
			<point x="359" y="82" type="curve" smooth="yes"/>
			<point x="459" y="381" type="line" smooth="yes"/>
			<point x="466" y="402"/>
			<point x="459" y="412"/>
			<point x="426" y="412" type="curve" smooth="yes"/>
			<point x="408" y="412"/>
			<point x="398" y="410"/>
			<point x="393" y="395" type="curve" smooth="yes"/>
			<point x="392" y="392" type="line"/>
			<point x="360" y="407"/>
			<point x="324" y="415"/>
			<point x="294" y="415" type="curve" smooth="yes"/>
			<point x="125" y="415"/>
			<point x="28" y="226"/>
			<point x="28" y="104" type="curve" smooth="yes"/>
			<point x="28" y="31"/>
			<point x="64" y="-14"/>
		</contour>
		<contour>
			<point x="101" y="117" type="curve" smooth="yes"/>
			<point x="101" y="202"/>
			<point x="168" y="352"/>
			<point x="283" y="352" type="curve" smooth="yes"/>
			<point x="308" y="352"/>
			<point x="338" y="349"/>
			<point x="373" y="335" type="curve"/>
			<point x="364" y="309" type="line"/>
			<point x="279" y="142"/>
			<point x="197" y="50"/>
			<point x="141" y="50" type="curve" smooth="yes"/>
			<point x="116" y="50"/>
			<point x="101" y="76"/>
		</contour>
	</outline>
	<anchor name="bottom" x="184" y="0"/>
	<anchor name="ogonek" x="406" y="10"/>
	<anchor name="top" x="297" y="400"/>
</glyph>
<glyph name="c" format="2">
	<unicode hex="0063"/>
	<advance width="418"/>
	<outline>
		<contour>
			<point x="182" y="-15" type="curve" smooth="yes"/>
			<point x="242" y="-15"/>
			<point x="308" y="9"/>
			<point x="369" y="85" type="curve" smooth="yes"/>
			<point x="382" y="101"/>
			<point x="379" y="113"/>
			<point x="368" y="125" type="curve" smooth="yes"/>
			<point x="357" y="137"/>
			<point x="338" y="144"/>
			<point x="325" y="129" type="curve" smooth="yes"/>
			<point x="287" y="86"/>
			<point x="245" y="48"/>
			<point x="190" y="49" type="curve" smooth="yes"/>
			<point x="135" y="50"/>
			<point x="111" y="84"/>
			<point x="111" y="136" type="curve" smooth="yes"/>
			<point x="111" y="225"/>
			<point x="167" y="351"/>
			<point x="277" y="351" type="curve" smooth="yes"/>
			<point x="321" y="351"/>
			<point x="349" y="339"/>
			<point x="369" y="317" type="curve" smooth="yes"/>
			<point x="383" y="301"/>
			<point x="397" y="304"/>
			<point x="411" y="315" type="curve" smooth="yes"/>
			<point x="424" y="326"/>
			<point x="432" y="339"/>
			<point x="416" y="358" type="curve" smooth="yes"/>
			<point x="384" y="395"/>
			<point x="343" y="415"/>
			<point x="284" y="415" type="curve" smooth="yes"/>
			<point x="120" y="415"/>
			<point x="39" y="254"/>
			<point x="39" y="131" type="curve" smooth="yes"/>
			<point x="39" y="50"/>
			<point x="82" y="-15"/>
		</contour>
	</outline>
	<anchor name="bottom" x="172" y="0"/>
	<anchor name="top" x="292" y="400"/>
</glyph>
<glyph name="d" format="2">
  <advance width="503"/>
  <unicode hex="0064"/>
  <guideline x="350" y="96" angle="72"/>
  <anchor x="137" y="0" name="bottom"/>
  <anchor x="466" y="558" name="center"/>
  <anchor x="274" y="400" name="top"/>
  <anchor x="551" y="726" name="topright"/>
  <outline>
    <contour>
      <point x="118" y="-14" type="curve" smooth="yes"/>
      <point x="173" y="-14"/>
      <point x="240" y="32"/>
      <point x="309" y="127" type="curve"/>
      <point x="308" y="124"/>
      <point x="307" y="120"/>
      <point x="306" y="117" type="curve" smooth="yes"/>
      <point x="280" y="32"/>
      <point x="296" y="-12"/>
      <point x="354" y="-12" type="curve" smooth="yes"/>
      <point x="397" y="-12"/>
      <point x="434" y="11"/>
      <point x="468" y="65" type="curve" smooth="yes"/>
      <point x="474" y="75"/>
      <point x="471" y="86"/>
      <point x="454" y="97" type="curve" smooth="yes"/>
      <point x="442" y="105"/>
      <point x="434" y="103"/>
      <point x="426" y="93" type="curve" smooth="yes"/>
      <point x="400" y="62"/>
      <point x="388" y="49"/>
      <point x="373" y="49" type="curve" smooth="yes"/>
      <point x="360" y="49"/>
      <point x="358" y="60"/>
      <point x="365" y="82" type="curve" smooth="yes"/>
      <point x="563" y="681" type="line" smooth="yes"/>
      <point x="570" y="702"/>
      <point x="563" y="712"/>
      <point x="530" y="712" type="curve" smooth="yes"/>
      <point x="509" y="712"/>
      <point x="501" y="708"/>
      <point x="494" y="686" type="curve" smooth="yes"/>
      <point x="396" y="390" type="line"/>
      <point x="363" y="406"/>
      <point x="325" y="415"/>
      <point x="294" y="415" type="curve" smooth="yes"/>
      <point x="125" y="415"/>
      <point x="28" y="226"/>
      <point x="28" y="104" type="curve" smooth="yes"/>
      <point x="28" y="31"/>
      <point x="64" y="-14"/>
    </contour>
    <contour>
      <point x="101" y="117" type="curve" smooth="yes"/>
      <point x="101" y="202"/>
      <point x="168" y="352"/>
      <point x="283" y="352" type="curve" smooth="yes"/>
      <point x="309" y="352"/>
      <point x="340" y="349"/>
      <point x="377" y="334" type="curve"/>
      <point x="367" y="303" type="line"/>
      <point x="282" y="139"/>
      <point x="197" y="50"/>
      <point x="141" y="50" type="curve" smooth="yes"/>
      <point x="116" y="50"/>
      <point x="101" y="76"/>
    </contour>
  </outline>
</glyph>
<glyph name="e" format="2">
  <advance width="526"/>
  <unicode hex="0065"/>
  <anchor x="206" y="0" name="bottom"/>
  <anchor x="340" y="13" name="ogonek"/>
  <anchor x="345" y="500" name="top"/>
  <outline>
    <contour>
      <point x="221" y="-19" type="curve" smooth="yes"/>
      <point x="294" y="-19"/>
      <point x="373" y="10"/>
      <point x="449" y="105" type="curve" smooth="yes"/>
      <point x="465" y="125"/>
      <point x="461" y="140"/>
      <point x="448" y="155" type="curve" smooth="yes"/>
      <point x="434" y="170"/>
      <point x="410" y="179"/>
      <point x="394" y="160" type="curve" smooth="yes"/>
      <point x="346" y="106"/>
      <point x="298" y="61"/>
      <point x="233" y="61" type="curve" smooth="yes"/>
      <point x="166" y="61"/>
      <point x="139" y="105"/>
      <point x="139" y="170" type="curve" smooth="yes"/>
      <point x="139" y="288"/>
      <point x="221" y="440"/>
      <point x="353" y="440" type="curve" smooth="yes"/>
      <point x="390" y="440"/>
      <point x="415" y="426"/>
      <point x="415" y="393" type="curve" smooth="yes"/>
      <point x="415" y="295"/>
      <point x="211" y="258"/>
      <point x="100" y="240" type="curve"/>
      <point x="91" y="169" type="line"/>
      <point x="266" y="194"/>
      <point x="506" y="259"/>
      <point x="506" y="400" type="curve" smooth="yes"/>
      <point x="506" y="471"/>
      <point x="460" y="519"/>
      <point x="363" y="519" type="curve" smooth="yes"/>
      <point x="163" y="519"/>
      <point x="49" y="324"/>
      <point x="49" y="164" type="curve" smooth="yes"/>
      <point x="49" y="63"/>
      <point x="100" y="-19"/>
    </contour>
  </outline>
</glyph>
<glyph name="g" format="2">
  <advance width="598"/>
  <unicode hex="0067"/>
  <anchor x="359" y="500" name="top"/>
  <outline>
    <contour>
      <point x="120" y="-394" type="curve" smooth="yes"/>
      <point x="243" y="-394"/>
      <point x="309" y="-350"/>
      <point x="374" y="-150" type="curve" smooth="yes"/>
      <point x="579" y="476" type="line" smooth="yes"/>
      <point x="588" y="503"/>
      <point x="579" y="515"/>
      <point x="538" y="515" type="curve" smooth="yes"/>
      <point x="511" y="515"/>
      <point x="501" y="510"/>
      <point x="493" y="483" type="curve" smooth="yes"/>
      <point x="289" y="-147" type="line" smooth="yes"/>
      <point x="249" y="-271"/>
      <point x="210" y="-316"/>
      <point x="126" y="-316" type="curve" smooth="yes"/>
      <point x="78" y="-316"/>
      <point x="31" y="-295"/>
      <point x="-2" y="-266" type="curve" smooth="yes"/>
      <point x="-25" y="-246"/>
      <point x="-40" y="-241"/>
      <point x="-61" y="-262" type="curve" smooth="yes"/>
      <point x="-86" y="-286"/>
      <point x="-81" y="-306"/>
      <point x="-52" y="-330" type="curve" smooth="yes"/>
      <point x="-2" y="-371"/>
      <point x="59" y="-394"/>
    </contour>
    <contour>
      <point x="148" y="-17" type="curve" smooth="yes"/>
      <point x="250" y="-17"/>
      <point x="384" y="110"/>
      <point x="515" y="378" type="curve"/>
      <point x="478" y="415" type="line"/>
      <point x="365" y="188"/>
      <point x="250" y="63"/>
      <point x="176" y="63" type="curve" smooth="yes"/>
      <point x="145" y="63"/>
      <point x="126" y="95"/>
      <point x="126" y="146" type="curve" smooth="yes"/>
      <point x="126" y="253"/>
      <point x="210" y="440"/>
      <point x="354" y="440" type="curve" smooth="yes"/>
      <point x="395" y="440"/>
      <point x="445" y="434"/>
      <point x="510" y="399" type="curve"/>
      <point x="529" y="468" type="line"/>
      <point x="481" y="500"/>
      <point x="418" y="519"/>
      <point x="368" y="519" type="curve" smooth="yes"/>
      <point x="156" y="519"/>
      <point x="35" y="283"/>
      <point x="35" y="130" type="curve" smooth="yes"/>
      <point x="35" y="39"/>
      <point x="80" y="-17"/>
    </contour>
  </outline>
</glyph>
<glyph name="h" format="2">
  <advance width="651"/>
  <unicode hex="0068"/>
  <anchor x="260" y="0" name="bottom"/>
  <anchor x="323" y="698" name="center"/>
  <anchor x="336" y="838" name="top"/>
  <outline>
    <contour>
      <point x="464" y="-15" type="curve" smooth="yes"/>
      <point x="536" y="-15"/>
      <point x="588" y="50"/>
      <point x="606" y="81" type="curve" smooth="yes"/>
      <point x="614" y="94"/>
      <point x="610" y="108"/>
      <point x="589" y="121" type="curve" smooth="yes"/>
      <point x="574" y="131"/>
      <point x="564" y="129"/>
      <point x="554" y="116" type="curve" smooth="yes"/>
      <point x="526" y="83"/>
      <point x="503" y="61"/>
      <point x="484" y="61" type="curve" smooth="yes"/>
      <point x="473" y="61"/>
      <point x="465" y="66"/>
      <point x="478" y="104" type="curve" smooth="yes"/>
      <point x="553" y="321" type="line" smooth="yes"/>
      <point x="596" y="450"/>
      <point x="565" y="519"/>
      <point x="475" y="519" type="curve" smooth="yes"/>
      <point x="385" y="519"/>
      <point x="293" y="446"/>
      <point x="211" y="319" type="curve"/>
      <point x="384" y="851" type="line" smooth="yes"/>
      <point x="393" y="878"/>
      <point x="384" y="890"/>
      <point x="343" y="890" type="curve" smooth="yes"/>
      <point x="316" y="890"/>
      <point x="306" y="885"/>
      <point x="298" y="858" type="curve" smooth="yes"/>
      <point x="26" y="18" type="line" smooth="yes"/>
      <point x="18" y="-7"/>
      <point x="43" y="-15"/>
      <point x="64" y="-15" type="curve" smooth="yes"/>
      <point x="94" y="-15"/>
      <point x="105" y="-7"/>
      <point x="111" y="11" type="curve" smooth="yes"/>
      <point x="121" y="43" type="line"/>
      <point x="218" y="274"/>
      <point x="353" y="439"/>
      <point x="443" y="439" type="curve" smooth="yes"/>
      <point x="491" y="439"/>
      <point x="489" y="395"/>
      <point x="471" y="344" type="curve" smooth="yes"/>
      <point x="404" y="148" type="line" smooth="yes"/>
      <point x="383" y="85"/>
      <point x="360" y="-15"/>
    </contour>
  </outline>
</glyph>
<glyph name="i" format="2">
  <advance width="305"/>
  <unicode hex="0069"/>
  <anchor x="111" y="0" name="bottom"/>
  <anchor x="178" y="0" name="ogonek"/>
  <outline>
    <contour>
      <point x="119" y="-15" type="curve" smooth="yes"/>
      <point x="173" y="-15"/>
      <point x="219" y="14"/>
      <point x="261" y="81" type="curve" smooth="yes"/>
      <point x="269" y="94"/>
      <point x="265" y="108"/>
      <point x="244" y="121" type="curve" smooth="yes"/>
      <point x="229" y="131"/>
      <point x="220" y="129"/>
      <point x="209" y="116" type="curve" smooth="yes"/>
      <point x="176" y="78"/>
      <point x="161" y="61"/>
      <point x="143" y="61" type="curve" smooth="yes"/>
      <point x="126" y="61"/>
      <point x="124" y="75"/>
      <point x="133" y="103" type="curve" smooth="yes"/>
      <point x="255" y="476" type="line" smooth="yes"/>
      <point x="264" y="503"/>
      <point x="255" y="515"/>
      <point x="214" y="515" type="curve" smooth="yes"/>
      <point x="188" y="515"/>
      <point x="178" y="510"/>
      <point x="169" y="483" type="curve" smooth="yes"/>
      <point x="63" y="159" type="line" smooth="yes"/>
      <point x="25" y="45"/>
      <point x="44" y="-15"/>
    </contour>
    <contour>
      <point x="276" y="669" type="curve" smooth="yes"/>
      <point x="326" y="669"/>
      <point x="349" y="708"/>
      <point x="349" y="744" type="curve" smooth="yes"/>
      <point x="349" y="778"/>
      <point x="328" y="795"/>
      <point x="300" y="795" type="curve" smooth="yes"/>
      <point x="250" y="795"/>
      <point x="228" y="756"/>
      <point x="228" y="720" type="curve" smooth="yes"/>
      <point x="228" y="686"/>
      <point x="249" y="669"/>
    </contour>
  </outline>
</glyph>
<glyph name="k" format="2">
  <advance width="564"/>
  <unicode hex="006B"/>
  <anchor x="221" y="0" name="bottom"/>
  <anchor x="333" y="838" name="top"/>
  <outline>
    <contour>
      <point x="65" y="-15" type="curve" smooth="yes"/>
      <point x="95" y="-15"/>
      <point x="106" y="-7"/>
      <point x="113" y="11" type="curve" smooth="yes"/>
      <point x="181" y="224" type="line"/>
      <point x="255" y="31"/>
      <point x="291" y="-19"/>
      <point x="363" y="-19" type="curve" smooth="yes"/>
      <point x="403" y="-19"/>
      <point x="458" y="9"/>
      <point x="513" y="83" type="curve" smooth="yes"/>
      <point x="524" y="99"/>
      <point x="520" y="111"/>
      <point x="506" y="124" type="curve" smooth="yes"/>
      <point x="493" y="136"/>
      <point x="478" y="138"/>
      <point x="463" y="121" type="curve" smooth="yes"/>
      <point x="419" y="73"/>
      <point x="398" y="58"/>
      <point x="375" y="58" type="curve" smooth="yes"/>
      <point x="343" y="58"/>
      <point x="319" y="85"/>
      <point x="251" y="276" type="curve"/>
      <point x="541" y="436" type="line" smooth="yes"/>
      <point x="574" y="454"/>
      <point x="571" y="473"/>
      <point x="560" y="493" type="curve" smooth="yes"/>
      <point x="546" y="516"/>
      <point x="531" y="518"/>
      <point x="506" y="504" type="curve" smooth="yes"/>
      <point x="221" y="346" type="line"/>
      <point x="384" y="851" type="line" smooth="yes"/>
      <point x="393" y="878"/>
      <point x="384" y="890"/>
      <point x="343" y="890" type="curve" smooth="yes"/>
      <point x="316" y="890"/>
      <point x="306" y="885"/>
      <point x="298" y="858" type="curve" smooth="yes"/>
      <point x="28" y="18" type="line" smooth="yes"/>
      <point x="20" y="-7"/>
      <point x="44" y="-15"/>
    </contour>
  </outline>
</glyph>
<glyph name="l" format="2">
	<unicode hex="006C"/>
	<advance width="244"/>
	<outline>
		<contour>
			<point x="96" y="-12" type="curve" smooth="yes"/>
			<point x="139" y="-12"/>
			<point x="176" y="11"/>
			<point x="209" y="65" type="curve" smooth="yes"/>
			<point x="215" y="75"/>
			<point x="212" y="86"/>
			<point x="195" y="97" type="curve" smooth="yes"/>
			<point x="183" y="105"/>
			<point x="175" y="103"/>
			<point x="167" y="93" type="curve" smooth="yes"/>
			<point x="142" y="62"/>
			<point x="130" y="49"/>
			<point x="115" y="49" type="curve" smooth="yes"/>
			<point x="102" y="49"/>
			<point x="100" y="60"/>
			<point x="107" y="82" type="curve" smooth="yes"/>
			<point x="305" y="681" type="line" smooth="yes"/>
			<point x="312" y="702"/>
			<point x="305" y="712"/>
			<point x="272" y="712" type="curve" smooth="yes"/>
			<point x="251" y="712"/>
			<point x="243" y="708"/>
			<point x="236" y="686" type="curve" smooth="yes"/>
			<point x="51" y="127" type="line" smooth="yes"/>
			<point x="21" y="36"/>
			<point x="36" y="-12"/>
		</contour>
	</outline>
	<anchor name="bottom" x="94" y="0"/>
	<anchor name="center" x="162" y="350"/>
	<anchor name="top" x="261" y="670"/>
	<anchor name="topright" x="284" y="699"/>
</glyph>
<glyph name="p" format="2">
	<unicode hex="0070"/>
	<advance width="478"/>
	<outline>
		<contour>
			<point x="-47" y="-312" type="curve" smooth="yes"/>
			<point x="-23" y="-312"/>
			<point x="-14" y="-306"/>
			<point x="-9" y="-291" type="curve" smooth="yes"/>
			<point x="90" y="13" type="line"/>
			<point x="121" y="-3"/>
			<point x="156" y="-14"/>
			<point x="189" y="-14" type="curve" smooth="yes"/>
			<point x="350" y="-14"/>
			<point x="450" y="175"/>
			<point x="450" y="297" type="curve" smooth="yes"/>
			<point x="450" y="370"/>
			<point x="414" y="415"/>
			<point x="360" y="415" type="curve" smooth="yes"/>
			<point x="304" y="415"/>
			<point x="242" y="371"/>
			<point x="177" y="282" type="curve"/>
			<point x="209" y="381" type="line" smooth="yes"/>
			<point x="216" y="402"/>
			<point x="209" y="412"/>
			<point x="176" y="412" type="curve" smooth="yes"/>
			<point x="155" y="412"/>
			<point x="147" y="408"/>
			<point x="140" y="386" type="curve" smooth="yes"/>
			<point x="-77" y="-286" type="line" smooth="yes"/>
			<point x="-84" y="-306"/>
			<point x="-64" y="-312"/>
		</contour>
		<contour>
			<point x="107" y="67" type="curve"/>
			<point x="121" y="111" type="line"/>
			<point x="203" y="266"/>
			<point x="279" y="351"/>
			<point x="337" y="351" type="curve" smooth="yes"/>
			<point x="362" y="351"/>
			<point x="377" y="325"/>
			<point x="377" y="284" type="curve" smooth="yes"/>
			<point x="377" y="200"/>
			<point x="309" y="49"/>
			<point x="197" y="49" type="curve" smooth="yes"/>
			<point x="170" y="49"/>
			<point x="141" y="53"/>
		</contour>
	</outline>
</glyph>
<glyph name="q" format="2">
  <advance width="478"/>
  <unicode hex="0071"/>
  <outline>
    <contour>
      <point x="118" y="-14" type="curve" smooth="yes"/>
      <point x="174" y="-14"/>
      <point x="241" y="33"/>
      <point x="312" y="131" type="curve"/>
      <point x="177" y="-286" type="line" smooth="yes"/>
      <point x="170" y="-306"/>
      <point x="190" y="-312"/>
      <point x="207" y="-312" type="curve" smooth="yes"/>
      <point x="231" y="-312"/>
      <point x="240" y="-306"/>
      <point x="245" y="-291" type="curve" smooth="yes"/>
      <point x="463" y="381" type="line" smooth="yes"/>
      <point x="470" y="402"/>
      <point x="463" y="412"/>
      <point x="430" y="412" type="curve" smooth="yes"/>
      <point x="409" y="412"/>
      <point x="400" y="406"/>
      <point x="396" y="393" type="curve" smooth="yes"/>
      <point x="395" y="390" type="line"/>
      <point x="362" y="406"/>
      <point x="325" y="415"/>
      <point x="294" y="415" type="curve" smooth="yes"/>
      <point x="125" y="415"/>
      <point x="28" y="226"/>
      <point x="28" y="104" type="curve" smooth="yes"/>
      <point x="28" y="31"/>
      <point x="64" y="-14"/>
    </contour>
    <contour>
      <point x="101" y="117" type="curve" smooth="yes"/>
      <point x="101" y="202"/>
      <point x="168" y="352"/>
      <point x="283" y="352" type="curve" smooth="yes"/>
      <point x="309" y="352"/>
      <point x="340" y="349"/>
      <point x="377" y="334" type="curve"/>
      <point x="367" y="303" type="line"/>
      <point x="282" y="139"/>
      <point x="197" y="50"/>
      <point x="141" y="50" type="curve" smooth="yes"/>
      <point x="116" y="50"/>
      <point x="101" y="76"/>
    </contour>
  </outline>
</glyph>
<glyph name="r" format="2">
  <advance width="454"/>
  <unicode hex="0072"/>
  <anchor x="51" y="0" name="bottom"/>
  <anchor x="335" y="500" name="top"/>
  <outline>
    <contour>
      <point x="56" y="-15" type="curve" smooth="yes"/>
      <point x="86" y="-15"/>
      <point x="98" y="-7"/>
      <point x="104" y="11" type="curve" smooth="yes"/>
      <point x="114" y="44" type="line"/>
      <point x="210" y="274"/>
      <point x="354" y="439"/>
      <point x="424" y="439" type="curve" smooth="yes"/>
      <point x="439" y="439"/>
      <point x="456" y="429"/>
      <point x="469" y="418" type="curve" smooth="yes"/>
      <point x="480" y="406"/>
      <point x="493" y="415"/>
      <point x="508" y="430" type="curve" smooth="yes"/>
      <point x="521" y="444"/>
      <point x="524" y="460"/>
      <point x="514" y="475" type="curve" smooth="yes"/>
      <point x="498" y="499"/>
      <point x="471" y="519"/>
      <point x="435" y="519" type="curve" smooth="yes"/>
      <point x="375" y="519"/>
      <point x="285" y="445"/>
      <point x="203" y="316" type="curve"/>
      <point x="255" y="476" type="line" smooth="yes"/>
      <point x="264" y="503"/>
      <point x="255" y="515"/>
      <point x="214" y="515" type="curve" smooth="yes"/>
      <point x="188" y="515"/>
      <point x="178" y="510"/>
      <point x="169" y="483" type="curve" smooth="yes"/>
      <point x="19" y="18" type="line" smooth="yes"/>
      <point x="10" y="-7"/>
      <point x="35" y="-15"/>
    </contour>
  </outline>
</glyph>
<glyph name="t" format="2">
	<unicode hex="0074"/>
	<advance width="310"/>
	<outline>
		<contour>
			<point x="123" y="-12" type="curve" smooth="yes"/>
			<point x="196" y="-12"/>
			<point x="249" y="48"/>
			<point x="266" y="80" type="curve" smooth="yes"/>
			<point x="270" y="88"/>
			<point x="270" y="99"/>
			<point x="254" y="109" type="curve" smooth="yes"/>
			<point x="239" y="118"/>
			<point x="230" y="117"/>
			<point x="221" y="106" type="curve" smooth="yes"/>
			<point x="191" y="66"/>
			<point x="160" y="49"/>
			<point x="138" y="49" type="curve" smooth="yes"/>
			<point x="118" y="49"/>
			<point x="113" y="64"/>
			<point x="125" y="100" type="curve" smooth="yes"/>
			<point x="203" y="336" type="line"/>
			<point x="307" y="336" type="line" smooth="yes"/>
			<point x="319" y="336"/>
			<point x="330" y="347"/>
			<point x="336" y="368" type="curve" smooth="yes"/>
			<point x="342" y="390"/>
			<point x="337" y="400"/>
			<point x="325" y="400" type="curve" smooth="yes"/>
			<point x="224" y="400" type="line"/>
			<point x="275" y="553" type="line" smooth="yes"/>
			<point x="282" y="574"/>
			<point x="275" y="584"/>
			<point x="242" y="584" type="curve" smooth="yes"/>
			<point x="221" y="584"/>
			<point x="213" y="580"/>
			<point x="206" y="558" type="curve" smooth="yes"/>
			<point x="154" y="400" type="line"/>
			<point x="90" y="400" type="line" smooth="yes"/>
			<point x="78" y="400"/>
			<point x="67" y="389"/>
			<point x="61" y="368" type="curve" smooth="yes"/>
			<point x="55" y="346"/>
			<point x="60" y="336"/>
			<point x="72" y="336" type="curve" smooth="yes"/>
			<point x="133" y="336" type="line"/>
			<point x="62" y="118" type="line" smooth="yes"/>
			<point x="34" y="33"/>
			<point x="58" y="-12"/>
		</contour>
	</outline>
	<anchor name="bottom" x="112" y="0"/>
	<anchor name="center" x="160" y="235"/>
	<anchor name="top" x="245" y="558"/>
	<anchor name="topright" x="283" y="625"/>
</glyph>
<glyph name="u" format="2">
	<unicode hex="0075"/>
	<advance width="517"/>
	<outline>
		<contour>
			<point x="119" y="-12" type="curve" smooth="yes"/>
			<point x="222" y="-12"/>
			<point x="328" y="105"/>
			<point x="408" y="302" type="curve"/>
			<point x="404" y="374" type="line"/>
			<point x="327" y="187"/>
			<point x="218" y="52"/>
			<point x="145" y="52" type="curve" smooth="yes"/>
			<point x="101" y="52"/>
			<point x="105" y="87"/>
			<point x="119" y="128" type="curve" smooth="yes"/>
			<point x="204" y="381" type="line" smooth="yes"/>
			<point x="211" y="402"/>
			<point x="204" y="412"/>
			<point x="171" y="412" type="curve" smooth="yes"/>
			<point x="150" y="412"/>
			<point x="142" y="408"/>
			<point x="135" y="386" type="curve" smooth="yes"/>
			<point x="55" y="146" type="line" smooth="yes"/>
			<point x="21" y="43"/>
			<point x="45" y="-12"/>
		</contour>
		<contour>
			<point x="367" y="-12" type="curve" smooth="yes"/>
			<point x="425" y="-12"/>
			<point x="465" y="41"/>
			<point x="481" y="66" type="curve" smooth="yes"/>
			<point x="488" y="76"/>
			<point x="484" y="85"/>
			<point x="470" y="95" type="curve" smooth="yes"/>
			<point x="457" y="104"/>
			<point x="445" y="105"/>
			<point x="435" y="92" type="curve" smooth="yes"/>
			<point x="414" y="65"/>
			<point x="398" y="49"/>
			<point x="383" y="49" type="curve" smooth="yes"/>
			<point x="375" y="49"/>
			<point x="368" y="53"/>
			<point x="378" y="82" type="curve" smooth="yes"/>
			<point x="477" y="381" type="line" smooth="yes"/>
			<point x="484" y="402"/>
			<point x="477" y="412"/>
			<point x="444" y="412" type="curve" smooth="yes"/>
			<point x="423" y="412"/>
			<point x="415" y="408"/>
			<point x="408" y="386" type="curve" smooth="yes"/>
			<point x="319" y="118" type="line" smooth="yes"/>
			<point x="302" y="68"/>
			<point x="285" y="-12"/>
		</contour>
	</outline>
	<anchor name="bottom" x="175" y="0"/>
	<anchor name="ogonek" x="419" y="10"/>
	<anchor name="top" x="305" y="400"/>
	<anchor name="topright" x="442" y="411"/>
	<guideline x="311" y="401" angle="72"/>
</glyph>
<glyph name="v" format="2">
  <advance width="407"/>
  <unicode hex="0076"/>
  <outline>
    <contour>
      <point x="134" y="-12" type="curve" smooth="yes"/>
      <point x="157" y="-12"/>
      <point x="168" y="-4"/>
      <point x="178" y="9" type="curve" smooth="yes"/>
      <point x="444" y="374" type="line" smooth="yes"/>
      <point x="458" y="393"/>
      <point x="445" y="412"/>
      <point x="415" y="412" type="curve" smooth="yes"/>
      <point x="400" y="412"/>
      <point x="390" y="408"/>
      <point x="377" y="390" type="curve" smooth="yes"/>
      <point x="162" y="88" type="line"/>
      <point x="141" y="385" type="line" smooth="yes"/>
      <point x="139" y="408"/>
      <point x="127" y="412"/>
      <point x="109" y="412" type="curve" smooth="yes"/>
      <point x="88" y="412"/>
      <point x="74" y="398"/>
      <point x="76" y="374" type="curve" smooth="yes"/>
      <point x="104" y="12" type="line" smooth="yes"/>
      <point x="105" y="-4"/>
      <point x="111" y="-12"/>
    </contour>
  </outline>
</glyph>
<glyph name="x" format="2">
  <advance width="427"/>
  <unicode hex="0078"/>
  <outline>
    <contour>
      <point x="325" y="32" type="curve" smooth="yes"/>
      <point x="252" y="191" type="line"/>
      <point x="447" y="369" type="line" smooth="yes"/>
      <point x="474" y="393"/>
      <point x="451" y="413"/>
      <point x="424" y="413" type="curve" smooth="yes"/>
      <point x="409" y="413"/>
      <point x="399" y="406"/>
      <point x="384" y="393" type="curve" smooth="yes"/>
      <point x="225" y="249" type="line"/>
      <point x="160" y="390" type="line" smooth="yes"/>
      <point x="152" y="407"/>
      <point x="145" y="413"/>
      <point x="127" y="413" type="curve" smooth="yes"/>
      <point x="103" y="413"/>
      <point x="86" y="396"/>
      <point x="99" y="368" type="curve" smooth="yes"/>
      <point x="174" y="206" type="line"/>
      <point x="-12" y="35" type="line" smooth="yes"/>
      <point x="-42" y="7"/>
      <point x="-23" y="-12"/>
      <point x="4" y="-12" type="curve" smooth="yes"/>
      <point x="21" y="-12"/>
      <point x="34" y="-7"/>
      <point x="48" y="6" type="curve" smooth="yes"/>
      <point x="199" y="150" type="line"/>
      <point x="264" y="10" type="line" smooth="yes"/>
      <point x="272" y="-7"/>
      <point x="279" y="-12"/>
      <point x="291" y="-12" type="curve" smooth="yes"/>
      <point x="316" y="-12"/>
      <point x="339" y="1"/>
    </contour>
  </outline>
</glyph>
<glyph name="y" format="2">
	<unicode hex="0079"/>
	<advance width="492"/>
	<outline>
		<contour>
			<point x="119" y="-12" type="curve" smooth="yes"/>
			<point x="192" y="-12"/>
			<point x="266" y="47"/>
			<point x="332" y="151" type="curve"/>
			<point x="245" y="-118" type="line" smooth="yes"/>
			<point x="213" y="-217"/>
			<point x="182" y="-253"/>
			<point x="115" y="-253" type="curve" smooth="yes"/>
			<point x="73" y="-253"/>
			<point x="39" y="-236"/>
			<point x="12" y="-214" type="curve" smooth="yes"/>
			<point x="-6" y="-198"/>
			<point x="-14" y="-200"/>
			<point x="-33" y="-216" type="curve" smooth="yes"/>
			<point x="-55" y="-235"/>
			<point x="-46" y="-249"/>
			<point x="-28" y="-264" type="curve" smooth="yes"/>
			<point x="6" y="-292"/>
			<point x="53" y="-315"/>
			<point x="111" y="-315" type="curve" smooth="yes"/>
			<point x="221" y="-315"/>
			<point x="264" y="-270"/>
			<point x="313" y="-120" type="curve" smooth="yes"/>
			<point x="477" y="381" type="line" smooth="yes"/>
			<point x="484" y="402"/>
			<point x="477" y="412"/>
			<point x="444" y="412" type="curve" smooth="yes"/>
			<point x="423" y="412"/>
			<point x="415" y="408"/>
			<point x="408" y="386" type="curve" smooth="yes"/>
			<point x="404" y="374" type="line" smooth="yes"/>
			<point x="327" y="187"/>
			<point x="218" y="52"/>
			<point x="145" y="52" type="curve" smooth="yes"/>
			<point x="101" y="52"/>
			<point x="105" y="87"/>
			<point x="119" y="128" type="curve" smooth="yes"/>
			<point x="204" y="381" type="line" smooth="yes"/>
			<point x="211" y="402"/>
			<point x="204" y="412"/>
			<point x="171" y="412" type="curve" smooth="yes"/>
			<point x="150" y="412"/>
			<point x="142" y="408"/>
			<point x="135" y="386" type="curve" smooth="yes"/>
			<point x="55" y="146" type="line" smooth="yes"/>
			<point x="21" y="43"/>
			<point x="45" y="-12"/>
		</contour>
	</outline>
	<anchor name="bottom" x="181" y="0"/>
	<anchor name="top" x="297" y="400"/>
</glyph>
<glyph name="z" format="2">
	<unicode hex="007A"/>
	<advance width="396"/>
	<outline>
		<contour>
			<point x="9" y="0" type="curve" smooth="yes"/>
			<point x="285" y="0" type="line" smooth="yes"/>
			<point x="297" y="0"/>
			<point x="308" y="11"/>
			<point x="314" y="32" type="curve" smooth="yes"/>
			<point x="320" y="54"/>
			<point x="315" y="64"/>
			<point x="303" y="64" type="curve" smooth="yes"/>
			<point x="110" y="64" type="line"/>
			<point x="393" y="356" type="line" smooth="yes"/>
			<point x="407" y="370"/>
			<point x="403" y="400"/>
			<point x="376" y="400" type="curve" smooth="yes"/>
			<point x="125" y="400" type="line" smooth="yes"/>
			<point x="113" y="400"/>
			<point x="102" y="389"/>
			<point x="96" y="368" type="curve" smooth="yes"/>
			<point x="90" y="346"/>
			<point x="95" y="336"/>
			<point x="107" y="336" type="curve" smooth="yes"/>
			<point x="282" y="336" type="line"/>
			<point x="-2" y="44" type="line" smooth="yes"/>
			<point x="-20" y="26"/>
			<point x="-14" y="0"/>
		</contour>
	</outline>
	<anchor name="bottom" x="140" y="0"/>
	<anchor name="center" x="205" y="200"/>
	<anchor name="top" x="260" y="400"/>
</glyph>
<glyph name="bar" format="2">
  <advance width="388"/>
  <unicode hex="007C"/>
  <outline>
    <contour>
      <point x="88" y="-77" type="curve" smooth="yes"/>
      <point x="116" y="-77"/>
      <point x="133" y="-69"/>
      <point x="139" y="-50" type="curve" smooth="yes"/>
      <point x="456" y="925" type="line" smooth="yes"/>
      <point x="463" y="944"/>
      <point x="451" y="953"/>
      <point x="423" y="953" type="curve" smooth="yes"/>
      <point x="394" y="953"/>
      <point x="376" y="944"/>
      <point x="370" y="925" type="curve" smooth="yes"/>
      <point x="53" y="-50" type="line" smooth="yes"/>
      <point x="46" y="-69"/>
      <point x="59" y="-77"/>
    </contour>
  </outline>
</glyph>
<glyph name="asciitilde" format="2">
  <advance width="763"/>
  <unicode hex="007E"/>
  <outline>
    <contour>
      <point x="584" y="316" type="curve" smooth="yes"/>
      <point x="679" y="316"/>
      <point x="743" y="380"/>
      <point x="768" y="501" type="curve" smooth="yes"/>
      <point x="775" y="535"/>
      <point x="765" y="545"/>
      <point x="730" y="545" type="curve" smooth="yes"/>
      <point x="703" y="545"/>
      <point x="688" y="534"/>
      <point x="683" y="508" type="curve" smooth="yes"/>
      <point x="669" y="430"/>
      <point x="629" y="400"/>
      <point x="595" y="400" type="curve" smooth="yes"/>
      <point x="560" y="400"/>
      <point x="529" y="420"/>
      <point x="465" y="480" type="curve" smooth="yes"/>
      <point x="409" y="533"/>
      <point x="361" y="556"/>
      <point x="301" y="556" type="curve" smooth="yes"/>
      <point x="206" y="556"/>
      <point x="141" y="493"/>
      <point x="116" y="371" type="curve" smooth="yes"/>
      <point x="109" y="338"/>
      <point x="119" y="328"/>
      <point x="154" y="328" type="curve" smooth="yes"/>
      <point x="181" y="328"/>
      <point x="196" y="339"/>
      <point x="201" y="365" type="curve" smooth="yes"/>
      <point x="215" y="443"/>
      <point x="256" y="473"/>
      <point x="295" y="473" type="curve" smooth="yes"/>
      <point x="335" y="473"/>
      <point x="365" y="456"/>
      <point x="415" y="409" type="curve" smooth="yes"/>
      <point x="481" y="345"/>
      <point x="530" y="316"/>
    </contour>
  </outline>
</glyph>
<glyph name="cent" format="2">
  <advance width="424"/>
  <unicode hex="00A2"/>
  <outline>
    <contour>
      <point x="182" y="-15" type="curve" smooth="yes"/>
      <point x="242" y="-15"/>
      <point x="308" y="9"/>
      <point x="369" y="85" type="curve" smooth="yes"/>
      <point x="382" y="101"/>
      <point x="379" y="113"/>
      <point x="368" y="125" type="curve" smooth="yes"/>
      <point x="357" y="137"/>
      <point x="338" y="144"/>
      <point x="325" y="129" type="curve" smooth="yes"/>
      <point x="287" y="86"/>
      <point x="245" y="48"/>
      <point x="190" y="49" type="curve" smooth="yes"/>
      <point x="135" y="50"/>
      <point x="111" y="84"/>
      <point x="111" y="136" type="curve" smooth="yes"/>
      <point x="111" y="225"/>
      <point x="167" y="351"/>
      <point x="277" y="351" type="curve" smooth="yes"/>
      <point x="321" y="351"/>
      <point x="349" y="339"/>
      <point x="369" y="317" type="curve" smooth="yes"/>
      <point x="383" y="301"/>
      <point x="397" y="304"/>
      <point x="411" y="315" type="curve" smooth="yes"/>
      <point x="424" y="326"/>
      <point x="432" y="339"/>
      <point x="416" y="358" type="curve" smooth="yes"/>
      <point x="384" y="395"/>
      <point x="343" y="415"/>
      <point x="284" y="415" type="curve" smooth="yes"/>
      <point x="120" y="415"/>
      <point x="39" y="254"/>
      <point x="39" y="131" type="curve" smooth="yes"/>
      <point x="39" y="50"/>
      <point x="82" y="-15"/>
    </contour>
    <contour>
      <point x="117" y="-120" type="curve" smooth="yes"/>
      <point x="138" y="-120"/>
      <point x="151" y="-113"/>
      <point x="156" y="-98" type="curve" smooth="yes"/>
      <point x="354" y="510" type="line" smooth="yes"/>
      <point x="359" y="525"/>
      <point x="350" y="532"/>
      <point x="329" y="532" type="curve" smooth="yes"/>
      <point x="308" y="532"/>
      <point x="295" y="525"/>
      <point x="290" y="510" type="curve" smooth="yes"/>
      <point x="92" y="-98" type="line" smooth="yes"/>
      <point x="87" y="-113"/>
      <point x="96" y="-120"/>
    </contour>
  </outline>
</glyph>
<glyph name="sterling" format="2">
  <advance width="675"/>
  <unicode hex="00A3"/>
  <outline>
    <contour>
      <point x="-16" y="0" type="curve" smooth="yes"/>
      <point x="559" y="0" type="line" smooth="yes"/>
      <point x="581" y="0"/>
      <point x="591" y="14"/>
      <point x="600" y="43" type="curve" smooth="yes"/>
      <point x="609" y="71"/>
      <point x="604" y="80"/>
      <point x="585" y="80" type="curve" smooth="yes"/>
      <point x="216" y="80" type="line"/>
      <point x="301" y="339" type="line"/>
      <point x="510" y="339" type="line" smooth="yes"/>
      <point x="530" y="339"/>
      <point x="541" y="348"/>
      <point x="550" y="378" type="curve" smooth="yes"/>
      <point x="559" y="408"/>
      <point x="556" y="416"/>
      <point x="536" y="416" type="curve" smooth="yes"/>
      <point x="326" y="416" type="line"/>
      <point x="411" y="676" type="line" smooth="yes"/>
      <point x="441" y="766"/>
      <point x="483" y="809"/>
      <point x="566" y="809" type="curve" smooth="yes"/>
      <point x="610" y="809"/>
      <point x="670" y="790"/>
      <point x="711" y="755" type="curve" smooth="yes"/>
      <point x="730" y="739"/>
      <point x="744" y="736"/>
      <point x="766" y="755" type="curve" smooth="yes"/>
      <point x="789" y="774"/>
      <point x="789" y="790"/>
      <point x="774" y="808" type="curve" smooth="yes"/>
      <point x="734" y="853"/>
      <point x="654" y="890"/>
      <point x="571" y="890" type="curve" smooth="yes"/>
      <point x="441" y="890"/>
      <point x="371" y="819"/>
      <point x="326" y="683" type="curve" smooth="yes"/>
      <point x="239" y="416" type="line"/>
      <point x="140" y="416" type="line" smooth="yes"/>
      <point x="120" y="416"/>
      <point x="109" y="408"/>
      <point x="99" y="378" type="curve" smooth="yes"/>
      <point x="89" y="348"/>
      <point x="94" y="339"/>
      <point x="114" y="339" type="curve" smooth="yes"/>
      <point x="214" y="339" type="line"/>
      <point x="129" y="80" type="line"/>
      <point x="10" y="80" type="line" smooth="yes"/>
      <point x="-9" y="80"/>
      <point x="-20" y="73"/>
      <point x="-30" y="43" type="curve" smooth="yes"/>
      <point x="-39" y="15"/>
      <point x="-39" y="0"/>
    </contour>
  </outline>
</glyph>
<glyph name="yen" format="2">
  <advance width="668"/>
  <unicode hex="00A5"/>
  <outline>
    <contour>
      <point x="245" y="-14" type="curve" smooth="yes"/>
      <point x="274" y="-14"/>
      <point x="294" y="-5"/>
      <point x="300" y="14" type="curve" smooth="yes"/>
      <point x="360" y="200" type="line"/>
      <point x="553" y="200" type="line" smooth="yes"/>
      <point x="573" y="200"/>
      <point x="584" y="209"/>
      <point x="594" y="239" type="curve" smooth="yes"/>
      <point x="603" y="269"/>
      <point x="599" y="278"/>
      <point x="579" y="278" type="curve" smooth="yes"/>
      <point x="386" y="278" type="line"/>
      <point x="409" y="350" type="line"/>
      <point x="601" y="350" type="line" smooth="yes"/>
      <point x="621" y="350"/>
      <point x="633" y="359"/>
      <point x="641" y="389" type="curve" smooth="yes"/>
      <point x="651" y="419"/>
      <point x="648" y="428"/>
      <point x="628" y="428" type="curve" smooth="yes"/>
      <point x="459" y="428" type="line"/>
      <point x="819" y="838" type="line" smooth="yes"/>
      <point x="843" y="865"/>
      <point x="826" y="890"/>
      <point x="794" y="890" type="curve" smooth="yes"/>
      <point x="759" y="890"/>
      <point x="746" y="878"/>
      <point x="725" y="854" type="curve" smooth="yes"/>
      <point x="398" y="479" type="line"/>
      <point x="306" y="854" type="line" smooth="yes"/>
      <point x="300" y="878"/>
      <point x="293" y="890"/>
      <point x="263" y="890" type="curve" smooth="yes"/>
      <point x="228" y="890"/>
      <point x="214" y="871"/>
      <point x="220" y="845" type="curve" smooth="yes"/>
      <point x="321" y="428" type="line"/>
      <point x="163" y="428" type="line" smooth="yes"/>
      <point x="143" y="428"/>
      <point x="131" y="419"/>
      <point x="121" y="389" type="curve" smooth="yes"/>
      <point x="113" y="359"/>
      <point x="116" y="350"/>
      <point x="136" y="350" type="curve" smooth="yes"/>
      <point x="320" y="350" type="line"/>
      <point x="296" y="278" type="line"/>
      <point x="114" y="278" type="line" smooth="yes"/>
      <point x="94" y="278"/>
      <point x="83" y="269"/>
      <point x="74" y="239" type="curve" smooth="yes"/>
      <point x="64" y="209"/>
      <point x="68" y="200"/>
      <point x="88" y="200" type="curve" smooth="yes"/>
      <point x="271" y="200" type="line"/>
      <point x="210" y="14" type="line" smooth="yes"/>
      <point x="204" y="-5"/>
      <point x="216" y="-14"/>
    </contour>
  </outline>
</glyph>
<glyph name="section" format="2">
  <advance width="666"/>
  <unicode hex="00A7"/>
  <outline>
    <contour>
      <point x="643" y="244" type="curve" smooth="yes"/>
      <point x="643" y="455"/>
      <point x="319" y="494"/>
      <point x="319" y="666" type="curve" smooth="yes"/>
      <point x="319" y="758"/>
      <point x="374" y="805"/>
      <point x="463" y="805" type="curve" smooth="yes"/>
      <point x="546" y="805"/>
      <point x="618" y="761"/>
      <point x="656" y="724" type="curve" smooth="yes"/>
      <point x="668" y="711"/>
      <point x="685" y="713"/>
      <point x="701" y="726" type="curve" smooth="yes"/>
      <point x="720" y="741"/>
      <point x="725" y="756"/>
      <point x="713" y="771" type="curve" smooth="yes"/>
      <point x="668" y="826"/>
      <point x="560" y="890"/>
      <point x="463" y="890" type="curve" smooth="yes"/>
      <point x="311" y="890"/>
      <point x="226" y="793"/>
      <point x="226" y="666" type="curve" smooth="yes"/>
      <point x="226" y="444"/>
      <point x="550" y="389"/>
      <point x="550" y="244" type="curve" smooth="yes"/>
      <point x="550" y="139"/>
      <point x="471" y="83"/>
      <point x="350" y="44" type="curve"/>
      <point x="411" y="-4" type="line"/>
      <point x="534" y="38"/>
      <point x="643" y="104"/>
    </contour>
    <contour>
      <point x="83" y="293" type="curve" smooth="yes"/>
      <point x="83" y="73"/>
      <point x="398" y="39"/>
      <point x="398" y="-130" type="curve" smooth="yes"/>
      <point x="398" y="-247"/>
      <point x="306" y="-309"/>
      <point x="208" y="-309" type="curve" smooth="yes"/>
      <point x="120" y="-309"/>
      <point x="33" y="-266"/>
      <point x="-6" y="-222" type="curve" smooth="yes"/>
      <point x="-19" y="-207"/>
      <point x="-32" y="-211"/>
      <point x="-51" y="-225" type="curve" smooth="yes"/>
      <point x="-66" y="-236"/>
      <point x="-79" y="-251"/>
      <point x="-67" y="-266" type="curve" smooth="yes"/>
      <point x="-16" y="-331"/>
      <point x="89" y="-394"/>
      <point x="208" y="-394" type="curve" smooth="yes"/>
      <point x="363" y="-394"/>
      <point x="490" y="-282"/>
      <point x="490" y="-130" type="curve" smooth="yes"/>
      <point x="490" y="105"/>
      <point x="175" y="123"/>
      <point x="175" y="293" type="curve" smooth="yes"/>
      <point x="175" y="398"/>
      <point x="254" y="456"/>
      <point x="375" y="493" type="curve"/>
      <point x="314" y="540" type="line"/>
      <point x="191" y="501"/>
      <point x="83" y="433"/>
    </contour>
  </outline>
</glyph>
<glyph name="copyright" format="2">
  <advance width="905"/>
  <unicode hex="00A9"/>
  <outline>
    <contour>
      <point x="509" y="65" type="curve" smooth="yes"/>
      <point x="713" y="65"/>
      <point x="875" y="228"/>
      <point x="875" y="431" type="curve" smooth="yes"/>
      <point x="875" y="635"/>
      <point x="713" y="798"/>
      <point x="509" y="798" type="curve" smooth="yes"/>
      <point x="305" y="798"/>
      <point x="143" y="635"/>
      <point x="143" y="431" type="curve" smooth="yes"/>
      <point x="143" y="228"/>
      <point x="305" y="65"/>
    </contour>
    <contour>
      <point x="509" y="115" type="curve" smooth="yes"/>
      <point x="335" y="115"/>
      <point x="193" y="258"/>
      <point x="193" y="431" type="curve" smooth="yes"/>
      <point x="193" y="605"/>
      <point x="335" y="748"/>
      <point x="509" y="748" type="curve" smooth="yes"/>
      <point x="683" y="748"/>
      <point x="825" y="605"/>
      <point x="825" y="431" type="curve" smooth="yes"/>
      <point x="825" y="258"/>
      <point x="683" y="115"/>
    </contour>
    <contour>
      <point x="500" y="229" type="curve" smooth="yes"/>
      <point x="541" y="229"/>
      <point x="608" y="254"/>
      <point x="646" y="316" type="curve" smooth="yes"/>
      <point x="653" y="325"/>
      <point x="645" y="338"/>
      <point x="634" y="345" type="curve" smooth="yes"/>
      <point x="618" y="356"/>
      <point x="606" y="359"/>
      <point x="596" y="350" type="curve" smooth="yes"/>
      <point x="574" y="330"/>
      <point x="540" y="300"/>
      <point x="500" y="300" type="curve" smooth="yes"/>
      <point x="454" y="300"/>
      <point x="411" y="336"/>
      <point x="411" y="429" type="curve" smooth="yes"/>
      <point x="411" y="519"/>
      <point x="451" y="568"/>
      <point x="515" y="568" type="curve" smooth="yes"/>
      <point x="555" y="568"/>
      <point x="580" y="549"/>
      <point x="600" y="533" type="curve" smooth="yes"/>
      <point x="608" y="526"/>
      <point x="621" y="526"/>
      <point x="635" y="541" type="curve" smooth="yes"/>
      <point x="643" y="550"/>
      <point x="653" y="561"/>
      <point x="641" y="575" type="curve" smooth="yes"/>
      <point x="601" y="626"/>
      <point x="554" y="638"/>
      <point x="513" y="638" type="curve" smooth="yes"/>
      <point x="396" y="638"/>
      <point x="334" y="539"/>
      <point x="334" y="429" type="curve" smooth="yes"/>
      <point x="334" y="319"/>
      <point x="393" y="229"/>
    </contour>
  </outline>
</glyph>
<glyph name="ordfeminine" format="2">
  <advance width="384"/>
  <unicode hex="00AA"/>
  <outline>
    <contour>
      <point x="203" y="389" type="curve" smooth="yes"/>
      <point x="242" y="389"/>
      <point x="288" y="420"/>
      <point x="338" y="480" type="curve"/>
      <point x="340" y="487"/>
      <point x="342" y="496"/>
      <point x="344" y="501" type="curve" smooth="yes"/>
      <point x="332" y="466"/>
      <point x="312" y="391"/>
      <point x="384" y="391" type="curve" smooth="yes"/>
      <point x="432" y="391"/>
      <point x="461" y="431"/>
      <point x="472" y="450" type="curve" smooth="yes"/>
      <point x="476" y="458"/>
      <point x="473" y="468"/>
      <point x="459" y="477" type="curve" smooth="yes"/>
      <point x="447" y="485"/>
      <point x="440" y="482"/>
      <point x="433" y="474" type="curve" smooth="yes"/>
      <point x="415" y="452"/>
      <point x="408" y="446"/>
      <point x="399" y="446" type="curve" smooth="yes"/>
      <point x="393" y="446"/>
      <point x="391" y="451"/>
      <point x="396" y="466" type="curve" smooth="yes"/>
      <point x="472" y="690" type="line" smooth="yes"/>
      <point x="478" y="708"/>
      <point x="471" y="717"/>
      <point x="444" y="717" type="curve" smooth="yes"/>
      <point x="430" y="717"/>
      <point x="421" y="713"/>
      <point x="414" y="706" type="curve" smooth="yes"/>
      <point x="412" y="704" type="line"/>
      <point x="388" y="714"/>
      <point x="361" y="720"/>
      <point x="339" y="720" type="curve" smooth="yes"/>
      <point x="208" y="720"/>
      <point x="134" y="573"/>
      <point x="134" y="480" type="curve" smooth="yes"/>
      <point x="134" y="424"/>
      <point x="162" y="389"/>
    </contour>
    <contour>
      <point x="201" y="493" type="curve" smooth="yes"/>
      <point x="201" y="551"/>
      <point x="246" y="662"/>
      <point x="329" y="662" type="curve" smooth="yes"/>
      <point x="353" y="662"/>
      <point x="374" y="659"/>
      <point x="395" y="652" type="curve"/>
      <point x="389" y="636" type="line"/>
      <point x="326" y="516"/>
      <point x="265" y="448"/>
      <point x="226" y="448" type="curve" smooth="yes"/>
      <point x="211" y="448"/>
      <point x="201" y="465"/>
    </contour>
  </outline>
</glyph>
<glyph name="registered" format="2">
  <advance width="546"/>
  <unicode hex="00AE"/>
  <outline>
    <contour>
      <point x="385" y="342" type="curve" smooth="yes"/>
      <point x="510" y="342"/>
      <point x="610" y="442"/>
      <point x="610" y="567" type="curve" smooth="yes"/>
      <point x="610" y="692"/>
      <point x="510" y="792"/>
      <point x="385" y="792" type="curve" smooth="yes"/>
      <point x="260" y="792"/>
      <point x="160" y="692"/>
      <point x="160" y="567" type="curve" smooth="yes"/>
      <point x="160" y="442"/>
      <point x="260" y="342"/>
    </contour>
    <contour>
      <point x="385" y="372" type="curve" smooth="yes"/>
      <point x="278" y="372"/>
      <point x="190" y="460"/>
      <point x="190" y="567" type="curve" smooth="yes"/>
      <point x="190" y="674"/>
      <point x="278" y="762"/>
      <point x="385" y="762" type="curve" smooth="yes"/>
      <point x="492" y="762"/>
      <point x="580" y="674"/>
      <point x="580" y="567" type="curve" smooth="yes"/>
      <point x="580" y="460"/>
      <point x="492" y="372"/>
    </contour>
    <contour>
      <point x="325" y="429" type="curve" smooth="yes"/>
      <point x="345" y="429"/>
      <point x="352" y="435"/>
      <point x="352" y="446" type="curve" smooth="yes"/>
      <point x="352" y="547" type="line"/>
      <point x="381" y="503"/>
      <point x="414" y="468"/>
      <point x="451" y="438" type="curve" smooth="yes"/>
      <point x="465" y="427"/>
      <point x="476" y="429"/>
      <point x="489" y="443" type="curve" smooth="yes"/>
      <point x="502" y="458"/>
      <point x="500" y="468"/>
      <point x="486" y="479" type="curve" smooth="yes"/>
      <point x="457" y="502"/>
      <point x="431" y="526"/>
      <point x="406" y="559" type="curve"/>
      <point x="452" y="571"/>
      <point x="484" y="597"/>
      <point x="484" y="639" type="curve" smooth="yes"/>
      <point x="484" y="694"/>
      <point x="445" y="713"/>
      <point x="378" y="713" type="curve" smooth="yes"/>
      <point x="330" y="713" type="line" smooth="yes"/>
      <point x="310" y="713"/>
      <point x="299" y="707"/>
      <point x="299" y="696" type="curve" smooth="yes"/>
      <point x="299" y="446" type="line" smooth="yes"/>
      <point x="299" y="435"/>
      <point x="306" y="429"/>
    </contour>
    <contour>
      <point x="352" y="595" type="curve"/>
      <point x="352" y="660" type="line"/>
      <point x="392" y="660" type="line" smooth="yes"/>
      <point x="412" y="660"/>
      <point x="430" y="652"/>
      <point x="430" y="634" type="curve" smooth="yes"/>
      <point x="430" y="607"/>
      <point x="398" y="595"/>
    </contour>
  </outline>
</glyph>
<glyph name="paragraph" format="2">
  <advance width="921"/>
  <unicode hex="00B6"/>
  <outline>
    <contour>
      <point x="233" y="-390" type="curve" smooth="yes"/>
      <point x="261" y="-390"/>
      <point x="279" y="-381"/>
      <point x="285" y="-362" type="curve" smooth="yes"/>
      <point x="661" y="795" type="line"/>
      <point x="798" y="795" type="line"/>
      <point x="421" y="-362" type="line" smooth="yes"/>
      <point x="415" y="-381"/>
      <point x="428" y="-390"/>
      <point x="456" y="-390" type="curve" smooth="yes"/>
      <point x="485" y="-390"/>
      <point x="503" y="-381"/>
      <point x="509" y="-362" type="curve" smooth="yes"/>
      <point x="885" y="795" type="line"/>
      <point x="978" y="795" type="line" smooth="yes"/>
      <point x="998" y="795"/>
      <point x="1008" y="805"/>
      <point x="1018" y="835" type="curve" smooth="yes"/>
      <point x="1028" y="865"/>
      <point x="1023" y="875"/>
      <point x="1003" y="875" type="curve" smooth="yes"/>
      <point x="599" y="875" type="line"/>
      <point x="198" y="-362" type="line" smooth="yes"/>
      <point x="191" y="-381"/>
      <point x="204" y="-390"/>
    </contour>
    <contour>
      <point x="409" y="264" type="curve" smooth="yes"/>
      <point x="469" y="264" type="line"/>
      <point x="674" y="875" type="line"/>
      <point x="538" y="875" type="line" smooth="yes"/>
      <point x="303" y="875"/>
      <point x="185" y="683"/>
      <point x="185" y="518" type="curve" smooth="yes"/>
      <point x="185" y="371"/>
      <point x="284" y="264"/>
    </contour>
  </outline>
</glyph>
<glyph name="ordmasculine" format="2">
  <advance width="363"/>
  <unicode hex="00BA"/>
  <outline>
    <contour>
      <point x="266" y="388" type="curve" smooth="yes"/>
      <point x="391" y="388"/>
      <point x="451" y="520"/>
      <point x="451" y="602" type="curve" smooth="yes"/>
      <point x="451" y="671"/>
      <point x="408" y="720"/>
      <point x="328" y="720" type="curve" smooth="yes"/>
      <point x="205" y="720"/>
      <point x="143" y="596"/>
      <point x="143" y="511" type="curve" smooth="yes"/>
      <point x="143" y="440"/>
      <point x="186" y="388"/>
    </contour>
    <contour>
      <point x="274" y="447" type="curve" smooth="yes"/>
      <point x="234" y="447"/>
      <point x="208" y="471"/>
      <point x="208" y="516" type="curve" smooth="yes"/>
      <point x="208" y="570"/>
      <point x="247" y="661"/>
      <point x="322" y="661" type="curve" smooth="yes"/>
      <point x="359" y="661"/>
      <point x="384" y="640"/>
      <point x="384" y="594" type="curve" smooth="yes"/>
      <point x="384" y="537"/>
      <point x="345" y="447"/>
    </contour>
  </outline>
</glyph>
<glyph name="AE" format="2">
  <advance width="771"/>
  <unicode hex="00C6"/>
  <anchor x="675" y="670" name="top"/>
  <outline>
    <contour>
      <point x="656" y="0" type="line" smooth="yes"/>
      <point x="668" y="0"/>
      <point x="679" y="11"/>
      <point x="685" y="32" type="curve" smooth="yes"/>
      <point x="691" y="54"/>
      <point x="686" y="64"/>
      <point x="674" y="64" type="curve" smooth="yes"/>
      <point x="410" y="64" type="line"/>
      <point x="594" y="636" type="line"/>
      <point x="861" y="636" type="line" smooth="yes"/>
      <point x="873" y="636"/>
      <point x="884" y="647"/>
      <point x="890" y="668" type="curve" smooth="yes"/>
      <point x="896" y="690"/>
      <point x="891" y="700"/>
      <point x="879" y="700" type="curve" smooth="yes"/>
      <point x="514" y="700" type="line" smooth="yes"/>
      <point x="495" y="700"/>
      <point x="483" y="692"/>
      <point x="470" y="675" type="curve" smooth="yes"/>
      <point x="-38" y="26" type="line" smooth="yes"/>
      <point x="-50" y="11"/>
      <point x="-42" y="-5"/>
      <point x="-21" y="-10" type="curve" smooth="yes"/>
      <point x="0" y="-15"/>
      <point x="16" y="-12"/>
      <point x="27" y="2" type="curve" smooth="yes"/>
      <point x="524" y="640" type="line"/>
      <point x="329" y="32" type="line" smooth="yes"/>
      <point x="321" y="8"/>
      <point x="333" y="0"/>
      <point x="360" y="0" type="curve" smooth="yes"/>
    </contour>
    <contour>
      <point x="708" y="318" type="line" smooth="yes"/>
      <point x="720" y="318"/>
      <point x="731" y="329"/>
      <point x="737" y="350" type="curve" smooth="yes"/>
      <point x="743" y="372"/>
      <point x="738" y="382"/>
      <point x="726" y="382" type="curve" smooth="yes"/>
      <point x="276" y="382" type="line"/>
      <point x="252" y="318" type="line"/>
    </contour>
  </outline>
</glyph>
<glyph name="multiply" format="2">
  <advance width="763"/>
  <unicode hex="00D7"/>
  <outline>
    <contour>
      <point x="571" y="219" type="curve" smooth="yes"/>
      <point x="596" y="236"/>
      <point x="596" y="255"/>
      <point x="581" y="276" type="curve" smooth="yes"/>
      <point x="328" y="651" type="line" smooth="yes"/>
      <point x="315" y="670"/>
      <point x="295" y="671"/>
      <point x="269" y="653" type="curve" smooth="yes"/>
      <point x="248" y="638"/>
      <point x="246" y="621"/>
      <point x="258" y="605" type="curve" smooth="yes"/>
      <point x="511" y="229" type="line" smooth="yes"/>
      <point x="529" y="203"/>
      <point x="546" y="201"/>
    </contour>
    <contour>
      <point x="136" y="226" type="curve" smooth="yes"/>
      <point x="154" y="203"/>
      <point x="170" y="200"/>
      <point x="190" y="215" type="curve" smooth="yes"/>
      <point x="699" y="596" type="line" smooth="yes"/>
      <point x="720" y="613"/>
      <point x="721" y="629"/>
      <point x="704" y="653" type="curve" smooth="yes"/>
      <point x="685" y="674"/>
      <point x="669" y="675"/>
      <point x="650" y="661" type="curve" smooth="yes"/>
      <point x="148" y="283" type="line" smooth="yes"/>
      <point x="125" y="265"/>
      <point x="121" y="249"/>
    </contour>
  </outline>
</glyph>
<glyph name="germandbls" format="2">
  <advance width="560"/>
  <unicode hex="00DF"/>
  <outline>
    <contour>
      <point x="502" y="219" type="curve" smooth="yes"/>
      <point x="502" y="300"/>
      <point x="450" y="393"/>
      <point x="342" y="395" type="curve"/>
      <point x="356" y="379" type="line"/>
      <point x="487" y="379"/>
      <point x="580" y="480"/>
      <point x="580" y="575" type="curve" smooth="yes"/>
      <point x="580" y="659"/>
      <point x="530" y="715"/>
      <point x="436" y="715" type="curve" smooth="yes"/>
      <point x="319" y="715"/>
      <point x="239" y="630"/>
      <point x="201" y="512" type="curve" smooth="yes"/>
      <point x="-59" y="-286" type="line" smooth="yes"/>
      <point x="-66" y="-306"/>
      <point x="-46" y="-312"/>
      <point x="-29" y="-312" type="curve" smooth="yes"/>
      <point x="-5" y="-312"/>
      <point x="4" y="-306"/>
      <point x="9" y="-291" type="curve" smooth="yes"/>
      <point x="266" y="497" type="line" smooth="yes"/>
      <point x="295" y="586"/>
      <point x="346" y="651"/>
      <point x="430" y="651" type="curve" smooth="yes"/>
      <point x="487" y="651"/>
      <point x="511" y="616"/>
      <point x="511" y="567" type="curve" smooth="yes"/>
      <point x="511" y="495"/>
      <point x="443" y="419"/>
      <point x="342" y="419" type="curve" smooth="yes"/>
      <point x="331" y="419" type="line" smooth="yes"/>
      <point x="316" y="419"/>
      <point x="310" y="408"/>
      <point x="306" y="394" type="curve" smooth="yes"/>
      <point x="300" y="376"/>
      <point x="297" y="355"/>
      <point x="315" y="355" type="curve" smooth="yes"/>
      <point x="320" y="355" type="line" smooth="yes"/>
      <point x="393" y="355"/>
      <point x="434" y="282"/>
      <point x="434" y="215" type="curve" smooth="yes"/>
      <point x="434" y="133"/>
      <point x="380" y="49"/>
      <point x="277" y="49" type="curve" smooth="yes"/>
      <point x="248" y="49"/>
      <point x="223" y="53"/>
      <point x="192" y="62" type="curve" smooth="yes"/>
      <point x="182" y="65"/>
      <point x="174" y="61"/>
      <point x="166" y="47" type="curve" smooth="yes"/>
      <point x="155" y="28"/>
      <point x="158" y="11"/>
      <point x="172" y="2" type="curve" smooth="yes"/>
      <point x="195" y="-10"/>
      <point x="227" y="-15"/>
      <point x="275" y="-15" type="curve" smooth="yes"/>
      <point x="424" y="-15"/>
      <point x="502" y="108"/>
    </contour>
  </outline>
</glyph>
<glyph name="ae" format="2">
  <advance width="704"/>
  <unicode hex="00E6"/>
  <anchor x="408" y="400" name="top"/>
  <outline>
    <contour>
      <point x="33" y="109" type="curve" smooth="yes"/>
      <point x="33" y="38"/>
      <point x="58" y="-14"/>
      <point x="114" y="-14" type="curve" smooth="yes"/>
      <point x="178" y="-14"/>
      <point x="256" y="43"/>
      <point x="425" y="337" type="curve"/>
      <point x="406" y="350" type="line"/>
      <point x="244" y="77"/>
      <point x="171" y="14"/>
      <point x="117" y="14" type="curve" smooth="yes"/>
      <point x="75" y="14"/>
      <point x="67" y="58"/>
      <point x="67" y="110" type="curve" smooth="yes"/>
      <point x="67" y="241"/>
      <point x="144" y="388"/>
      <point x="282" y="388" type="curve" smooth="yes"/>
      <point x="333" y="388"/>
      <point x="381" y="373"/>
      <point x="420" y="356" type="curve"/>
      <point x="420" y="372" type="line"/>
      <point x="382" y="316"/>
      <point x="331" y="224"/>
      <point x="331" y="138" type="curve" smooth="yes"/>
      <point x="331" y="52"/>
      <point x="376" y="-15"/>
      <point x="460" y="-15" type="curve" smooth="yes"/>
      <point x="544" y="-15"/>
      <point x="612" y="48"/>
      <point x="646" y="88" type="curve" smooth="yes"/>
      <point x="652" y="96"/>
      <point x="649" y="102"/>
      <point x="644" y="106" type="curve" smooth="yes"/>
      <point x="638" y="111"/>
      <point x="633" y="111"/>
      <point x="626" y="104" type="curve" smooth="yes"/>
      <point x="597" y="72"/>
      <point x="535" y="12"/>
      <point x="461" y="12" type="curve" smooth="yes"/>
      <point x="406" y="12"/>
      <point x="362" y="52"/>
      <point x="362" y="137" type="curve" smooth="yes"/>
      <point x="362" y="220"/>
      <point x="406" y="301"/>
      <point x="457" y="373" type="curve"/>
      <point x="392" y="401"/>
      <point x="344" y="415"/>
      <point x="287" y="415" type="curve" smooth="yes"/>
      <point x="124" y="415"/>
      <point x="33" y="253"/>
    </contour>
    <contour>
      <point x="679" y="332" type="curve" smooth="yes"/>
      <point x="679" y="383"/>
      <point x="635" y="415"/>
      <point x="564" y="415" type="curve" smooth="yes"/>
      <point x="510" y="415"/>
      <point x="470" y="399"/>
      <point x="424" y="373" type="curve"/>
      <point x="433" y="345" type="line"/>
      <point x="476" y="372"/>
      <point x="516" y="388"/>
      <point x="560" y="388" type="curve" smooth="yes"/>
      <point x="609" y="388"/>
      <point x="646" y="368"/>
      <point x="646" y="329" type="curve" smooth="yes"/>
      <point x="646" y="231"/>
      <point x="485" y="193"/>
      <point x="361" y="178" type="curve"/>
      <point x="360" y="152" type="line"/>
      <point x="473" y="167"/>
      <point x="679" y="201"/>
    </contour>
  </outline>
</glyph>
<glyph name="thorn" format="2">
  <advance width="478"/>
  <unicode hex="00FE"/>
  <outline>
    <contour>
      <point x="-47" y="-312" type="curve" smooth="yes"/>
      <point x="-23" y="-312"/>
      <point x="-14" y="-306"/>
      <point x="-9" y="-291" type="curve" smooth="yes"/>
      <point x="90" y="13" type="line"/>
      <point x="121" y="-3"/>
      <point x="156" y="-14"/>
      <point x="189" y="-14" type="curve" smooth="yes"/>
      <point x="350" y="-14"/>
      <point x="450" y="175"/>
      <point x="450" y="297" type="curve" smooth="yes"/>
      <point x="450" y="370"/>
      <point x="414" y="415"/>
      <point x="360" y="415" type="curve" smooth="yes"/>
      <point x="304" y="415"/>
      <point x="242" y="371"/>
      <point x="177" y="282" type="curve"/>
      <point x="307" y="681" type="line" smooth="yes"/>
      <point x="314" y="702"/>
      <point x="307" y="712"/>
      <point x="274" y="712" type="curve" smooth="yes"/>
      <point x="253" y="712"/>
      <point x="245" y="707"/>
      <point x="238" y="686" type="curve" smooth="yes"/>
      <point x="-77" y="-286" type="line" smooth="yes"/>
      <point x="-83" y="-304"/>
      <point x="-64" y="-312"/>
    </contour>
    <contour>
      <point x="107" y="67" type="curve"/>
      <point x="121" y="111" type="line"/>
      <point x="203" y="266"/>
      <point x="279" y="351"/>
      <point x="337" y="351" type="curve" smooth="yes"/>
      <point x="362" y="351"/>
      <point x="377" y="325"/>
      <point x="377" y="284" type="curve" smooth="yes"/>
      <point x="377" y="200"/>
      <point x="309" y="49"/>
      <point x="197" y="49" type="curve" smooth="yes"/>
      <point x="170" y="49"/>
      <point x="141" y="53"/>
    </contour>
  </outline>
</glyph>
<glyph name="idotless" format="2">
	<unicode hex="0131"/>
	<advance width="244"/>
	<outline>
		<contour>
			<point x="95" y="-12" type="curve" smooth="yes"/>
			<point x="153" y="-12"/>
			<point x="194" y="41"/>
			<point x="209" y="66" type="curve" smooth="yes"/>
			<point x="215" y="76"/>
			<point x="212" y="85"/>
			<point x="198" y="95" type="curve" smooth="yes"/>
			<point x="186" y="104"/>
			<point x="173" y="105"/>
			<point x="163" y="92" type="curve" smooth="yes"/>
			<point x="143" y="64"/>
			<point x="126" y="49"/>
			<point x="111" y="49" type="curve" smooth="yes"/>
			<point x="103" y="49"/>
			<point x="96" y="53"/>
			<point x="106" y="82" type="curve" smooth="yes"/>
			<point x="206" y="386" type="line" smooth="yes"/>
			<point x="211" y="401"/>
			<point x="200" y="412"/>
			<point x="175" y="412" type="curve" smooth="yes"/>
			<point x="150" y="412"/>
			<point x="142" y="408"/>
			<point x="135" y="386" type="curve" smooth="yes"/>
			<point x="48" y="118" type="line" smooth="yes"/>
			<point x="32" y="68"/>
			<point x="15" y="-12"/>
		</contour>
	</outline>
	<anchor name="bottom" x="89" y="0"/>
	<anchor name="ogonek" x="142" y="0"/>
	<anchor name="top" x="171" y="400"/>
</glyph>
<glyph name="eng" format="2">
  <advance width="490"/>
  <unicode hex="014B"/>
  <outline>
    <contour>
      <point x="323" y="-87" type="curve" smooth="yes"/>
      <point x="438" y="257" type="line" smooth="yes"/>
      <point x="472" y="360"/>
      <point x="448" y="415"/>
      <point x="374" y="415" type="curve" smooth="yes"/>
      <point x="302" y="415"/>
      <point x="228" y="358"/>
      <point x="163" y="256" type="curve"/>
      <point x="204" y="381" type="line" smooth="yes"/>
      <point x="211" y="402"/>
      <point x="204" y="412"/>
      <point x="171" y="412" type="curve" smooth="yes"/>
      <point x="150" y="412"/>
      <point x="142" y="408"/>
      <point x="135" y="386" type="curve" smooth="yes"/>
      <point x="15" y="14" type="line" smooth="yes"/>
      <point x="8" y="-6"/>
      <point x="28" y="-12"/>
      <point x="45" y="-12" type="curve" smooth="yes"/>
      <point x="69" y="-12"/>
      <point x="78" y="-6"/>
      <point x="83" y="9" type="curve" smooth="yes"/>
      <point x="91" y="35" type="line"/>
      <point x="168" y="219"/>
      <point x="276" y="351"/>
      <point x="348" y="351" type="curve" smooth="yes"/>
      <point x="392" y="351"/>
      <point x="387" y="315"/>
      <point x="374" y="275" type="curve" smooth="yes"/>
      <point x="258" y="-70" type="line" smooth="yes"/>
      <point x="240" y="-125"/>
      <point x="232" y="-144"/>
      <point x="211" y="-144" type="curve" smooth="yes"/>
      <point x="197" y="-144"/>
      <point x="186" y="-136"/>
      <point x="167" y="-113" type="curve" smooth="yes"/>
      <point x="157" y="-100"/>
      <point x="144" y="-100"/>
      <point x="128" y="-112" type="curve" smooth="yes"/>
      <point x="108" y="-127"/>
      <point x="111" y="-138"/>
      <point x="122" y="-154" type="curve" smooth="yes"/>
      <point x="144" y="-186"/>
      <point x="174" y="-204"/>
      <point x="205" y="-204" type="curve" smooth="yes"/>
      <point x="255" y="-204"/>
      <point x="289" y="-190"/>
    </contour>
  </outline>
</glyph>
<glyph name="oe" format="2">
  <advance width="735"/>
  <unicode hex="0153"/>
  <anchor x="430" y="400" name="top"/>
  <outline>
    <contour>
      <point x="170" y="-15" type="curve" smooth="yes"/>
      <point x="330" y="-15"/>
      <point x="407" y="163"/>
      <point x="407" y="275" type="curve" smooth="yes"/>
      <point x="407" y="354"/>
      <point x="359" y="415"/>
      <point x="278" y="415" type="curve" smooth="yes"/>
      <point x="116" y="415"/>
      <point x="39" y="248"/>
      <point x="39" y="131" type="curve" smooth="yes"/>
      <point x="39" y="44"/>
      <point x="85" y="-15"/>
    </contour>
    <contour>
      <point x="173" y="13" type="curve" smooth="yes"/>
      <point x="107" y="13"/>
      <point x="71" y="61"/>
      <point x="71" y="132" type="curve" smooth="yes"/>
      <point x="71" y="235"/>
      <point x="141" y="387"/>
      <point x="274" y="387" type="curve" smooth="yes"/>
      <point x="344" y="387"/>
      <point x="379" y="341"/>
      <point x="379" y="271" type="curve" smooth="yes"/>
      <point x="379" y="169"/>
      <point x="310" y="13"/>
    </contour>
    <contour>
      <point x="489" y="-15" type="curve" smooth="yes"/>
      <point x="573" y="-15"/>
      <point x="643" y="48"/>
      <point x="677" y="88" type="curve" smooth="yes"/>
      <point x="683" y="96"/>
      <point x="680" y="102"/>
      <point x="675" y="106" type="curve" smooth="yes"/>
      <point x="669" y="111"/>
      <point x="664" y="111"/>
      <point x="657" y="104" type="curve" smooth="yes"/>
      <point x="628" y="72"/>
      <point x="568" y="12"/>
      <point x="496" y="12" type="curve" smooth="yes"/>
      <point x="427" y="12"/>
      <point x="395" y="54"/>
      <point x="395" y="134" type="curve" smooth="yes"/>
      <point x="395" y="263"/>
      <point x="480" y="388"/>
      <point x="607" y="388" type="curve" smooth="yes"/>
      <point x="653" y="388"/>
      <point x="680" y="368"/>
      <point x="680" y="329" type="curve" smooth="yes"/>
      <point x="680" y="231"/>
      <point x="514" y="193"/>
      <point x="390" y="178" type="curve"/>
      <point x="389" y="152" type="line"/>
      <point x="502" y="167"/>
      <point x="713" y="201"/>
      <point x="713" y="334" type="curve" smooth="yes"/>
      <point x="713" y="377"/>
      <point x="686" y="415"/>
      <point x="611" y="415" type="curve" smooth="yes"/>
      <point x="474" y="415"/>
      <point x="368" y="288"/>
      <point x="368" y="132" type="curve" smooth="yes"/>
      <point x="368" y="38"/>
      <point x="412" y="-15"/>
    </contour>
  </outline>
</glyph>
<glyph name="uhorn" format="2">
  <advance width="645"/>
  <unicode hex="01B0"/>
  <guideline x="545" y="713" angle="0"/>
  <anchor x="219" y="0" name="bottom"/>
  <anchor x="524" y="13" name="ogonek"/>
  <anchor x="381" y="500" name="top"/>
  <outline>
    <contour>
      <point x="149" y="-15" type="curve" smooth="yes"/>
      <point x="278" y="-15"/>
      <point x="410" y="131"/>
      <point x="510" y="378" type="curve"/>
      <point x="505" y="468" type="line"/>
      <point x="409" y="234"/>
      <point x="273" y="65"/>
      <point x="181" y="65" type="curve" smooth="yes"/>
      <point x="126" y="65"/>
      <point x="131" y="109"/>
      <point x="149" y="160" type="curve" smooth="yes"/>
      <point x="255" y="476" type="line" smooth="yes"/>
      <point x="264" y="503"/>
      <point x="255" y="515"/>
      <point x="214" y="515" type="curve" smooth="yes"/>
      <point x="188" y="515"/>
      <point x="178" y="510"/>
      <point x="169" y="483" type="curve" smooth="yes"/>
      <point x="69" y="183" type="line" smooth="yes"/>
      <point x="26" y="54"/>
      <point x="56" y="-15"/>
    </contour>
    <contour>
      <point x="459" y="-15" type="curve" smooth="yes"/>
      <point x="531" y="-15"/>
      <point x="581" y="51"/>
      <point x="601" y="83" type="curve" smooth="yes"/>
      <point x="610" y="95"/>
      <point x="605" y="106"/>
      <point x="588" y="119" type="curve" smooth="yes"/>
      <point x="571" y="130"/>
      <point x="556" y="131"/>
      <point x="544" y="115" type="curve" smooth="yes"/>
      <point x="518" y="81"/>
      <point x="498" y="61"/>
      <point x="479" y="61" type="curve" smooth="yes"/>
      <point x="469" y="61"/>
      <point x="460" y="66"/>
      <point x="473" y="103" type="curve" smooth="yes"/>
      <point x="591" y="460" type="line"/>
      <point x="744" y="476"/>
      <point x="779" y="555"/>
      <point x="769" y="682" type="curve" smooth="yes"/>
      <point x="766" y="728"/>
      <point x="689" y="724"/>
      <point x="691" y="678" type="curve" smooth="yes"/>
      <point x="696" y="554"/>
      <point x="667" y="519"/>
      <point x="555" y="515" type="curve"/>
      <point x="529" y="515"/>
      <point x="519" y="510"/>
      <point x="510" y="483" type="curve" smooth="yes"/>
      <point x="399" y="148" type="line" smooth="yes"/>
      <point x="378" y="85"/>
      <point x="356" y="-15"/>
    </contour>
  </outline>
</glyph>
<glyph name="circumflexcomb" format="2">
  <unicode hex="0302"/>
  <anchor x="81" y="500" name="_top"/>
  <anchor x="184" y="818" name="top"/>
  <outline>
    <contour>
      <point x="-12" y="610" type="curve" smooth="yes"/>
      <point x="-1" y="610"/>
      <point x="8" y="619"/>
      <point x="16" y="625" type="curve" smooth="yes"/>
      <point x="163" y="739" type="line"/>
      <point x="249" y="626" type="line" smooth="yes"/>
      <point x="255" y="618"/>
      <point x="261" y="610"/>
      <point x="275" y="610" type="curve" smooth="yes"/>
      <point x="288" y="610"/>
      <point x="314" y="623"/>
      <point x="314" y="639" type="curve" smooth="yes"/>
      <point x="314" y="645"/>
      <point x="313" y="651"/>
      <point x="308" y="661" type="curve" smooth="yes"/>
      <point x="226" y="814" type="line" smooth="yes"/>
      <point x="218" y="831"/>
      <point x="201" y="840"/>
      <point x="184" y="840" type="curve" smooth="yes"/>
      <point x="163" y="840"/>
      <point x="145" y="835"/>
      <point x="126" y="818" type="curve" smooth="yes"/>
      <point x="-32" y="669" type="line" smooth="yes"/>
      <point x="-37" y="664"/>
      <point x="-44" y="656"/>
      <point x="-44" y="644" type="curve" smooth="yes"/>
      <point x="-44" y="628"/>
      <point x="-29" y="610"/>
    </contour>
  </outline>
</glyph>
<glyph name="tildecomb" format="2">
  <unicode hex="0303"/>
  <anchor x="65" y="400" name="_top"/>
  <anchor x="147" y="654" name="top"/>
  <outline>
    <contour>
      <point x="-8" y="512" type="curve" smooth="yes"/>
      <point x="10" y="512"/>
      <point x="21" y="518"/>
      <point x="23" y="533" type="curve" smooth="yes"/>
      <point x="26" y="558"/>
      <point x="34" y="570"/>
      <point x="47" y="570" type="curve" smooth="yes"/>
      <point x="85" y="570"/>
      <point x="133" y="513"/>
      <point x="199" y="513" type="curve" smooth="yes"/>
      <point x="249" y="513"/>
      <point x="272" y="550"/>
      <point x="276" y="621" type="curve" smooth="yes"/>
      <point x="277" y="635"/>
      <point x="271" y="642"/>
      <point x="254" y="642" type="curve" smooth="yes"/>
      <point x="234" y="642"/>
      <point x="222" y="635"/>
      <point x="220" y="621" type="curve" smooth="yes"/>
      <point x="216" y="594"/>
      <point x="206" y="583"/>
      <point x="197" y="583" type="curve" smooth="yes"/>
      <point x="163" y="583"/>
      <point x="108" y="641"/>
      <point x="44" y="641" type="curve" smooth="yes"/>
      <point x="-1" y="641"/>
      <point x="-28" y="605"/>
      <point x="-32" y="534" type="curve" smooth="yes"/>
      <point x="-33" y="519"/>
      <point x="-26" y="512"/>
    </contour>
  </outline>
</glyph>
<glyph name="macroncomb" format="2">
	<unicode hex="0304"/>
	<outline>
		<contour>
			<point x="14" y="549" type="curve" smooth="yes"/>
			<point x="220" y="549" type="line" smooth="yes"/>
			<point x="239" y="549"/>
			<point x="247" y="560"/>
			<point x="253" y="582" type="curve" smooth="yes"/>
			<point x="258" y="602"/>
			<point x="255" y="617"/>
			<point x="234" y="617" type="curve" smooth="yes"/>
			<point x="28" y="617" type="line" smooth="yes"/>
			<point x="9" y="617"/>
			<point x="1" y="605"/>
			<point x="-5" y="582" type="curve" smooth="yes"/>
			<point x="-10" y="563"/>
			<point x="-7" y="549"/>
		</contour>
	</outline>
	<anchor name="_top" x="65" y="400"/>
	<anchor name="top" x="136" y="619"/>
</glyph>
<glyph name="brevecomb" format="2">
  <unicode hex="0306"/>
  <anchor x="81" y="500" name="_top"/>
  <anchor x="184" y="818" name="top"/>
  <outline>
    <contour>
      <point x="133" y="618" type="curve" smooth="yes"/>
      <point x="243" y="618"/>
      <point x="306" y="669"/>
      <point x="354" y="813" type="curve" smooth="yes"/>
      <point x="360" y="833"/>
      <point x="346" y="846"/>
      <point x="320" y="846" type="curve" smooth="yes"/>
      <point x="300" y="846"/>
      <point x="290" y="840"/>
      <point x="280" y="816" type="curve" smooth="yes"/>
      <point x="254" y="758"/>
      <point x="206" y="706"/>
      <point x="148" y="706" type="curve" smooth="yes"/>
      <point x="98" y="706"/>
      <point x="70" y="746"/>
      <point x="75" y="820" type="curve" smooth="yes"/>
      <point x="76" y="836"/>
      <point x="63" y="848"/>
      <point x="40" y="848" type="curve" smooth="yes"/>
      <point x="18" y="848"/>
      <point x="6" y="840"/>
      <point x="3" y="820" type="curve" smooth="yes"/>
      <point x="-20" y="691"/>
      <point x="30" y="618"/>
    </contour>
  </outline>
</glyph>
<glyph name="hungarumlautcomb" format="2">
	<unicode hex="030B"/>
	<outline>
		<contour>
			<point x="12" y="493" type="curve" smooth="yes"/>
			<point x="18" y="493"/>
			<point x="27" y="495"/>
			<point x="35" y="505" type="curve" smooth="yes"/>
			<point x="134" y="618" type="line" smooth="yes"/>
			<point x="140" y="625"/>
			<point x="144" y="628"/>
			<point x="144" y="637" type="curve" smooth="yes"/>
			<point x="144" y="656"/>
			<point x="118" y="675"/>
			<point x="102" y="675" type="curve" smooth="yes"/>
			<point x="93" y="675"/>
			<point x="86" y="673"/>
			<point x="77" y="659" type="curve" smooth="yes"/>
			<point x="-7" y="537" type="line" smooth="yes"/>
			<point x="-12" y="530"/>
			<point x="-15" y="524"/>
			<point x="-15" y="517" type="curve" smooth="yes"/>
			<point x="-15" y="505"/>
			<point x="2" y="493"/>
		</contour>
		<contour>
			<point x="150" y="493" type="curve" smooth="yes"/>
			<point x="156" y="493"/>
			<point x="164" y="496"/>
			<point x="173" y="505" type="curve" smooth="yes"/>
			<point x="283" y="618" type="line" smooth="yes"/>
			<point x="289" y="624"/>
			<point x="293" y="628"/>
			<point x="293" y="637" type="curve" smooth="yes"/>
			<point x="293" y="656"/>
			<point x="267" y="675"/>
			<point x="251" y="675" type="curve" smooth="yes"/>
			<point x="242" y="675"/>
			<point x="236" y="672"/>
			<point x="226" y="659" type="curve" smooth="yes"/>
			<point x="131" y="537" type="line" smooth="yes"/>
			<point x="125" y="530"/>
			<point x="123" y="524"/>
			<point x="123" y="517" type="curve" smooth="yes"/>
			<point x="123" y="505"/>
			<point x="140" y="493"/>
		</contour>
	</outline>
	<anchor name="_top" x="65" y="400"/>
	<anchor name="top" x="147" y="654"/>
</glyph>
<glyph name="horncomb" format="2">
  <unicode hex="031B"/>
  <anchor x="86" y="515" name="_topright"/>
  <outline>
    <contour>
      <point x="303" y="686" type="curve" smooth="yes"/>
      <point x="300" y="722"/>
      <point x="225" y="718"/>
      <point x="226" y="682" type="curve" smooth="yes"/>
      <point x="231" y="558"/>
      <point x="205" y="520"/>
      <point x="85" y="515" type="curve"/>
      <point x="68" y="458" type="line"/>
      <point x="274" y="460"/>
      <point x="314" y="548"/>
    </contour>
  </outline>
</glyph>
<glyph name="ogonekcomb" format="2">
  <unicode hex="0328"/>
  <anchor x="22" y="0" name="_ogonek"/>
  <outline>
    <contour>
      <point x="-120" y="-206" type="curve" smooth="yes"/>
      <point x="-74" y="-206"/>
      <point x="-13" y="-177"/>
      <point x="18" y="-137" type="curve" smooth="yes"/>
      <point x="25" y="-127"/>
      <point x="23" y="-117"/>
      <point x="14" y="-108" type="curve" smooth="yes"/>
      <point x="2" y="-96"/>
      <point x="-11" y="-101"/>
      <point x="-16" y="-106" type="curve" smooth="yes"/>
      <point x="-45" y="-131"/>
      <point x="-62" y="-145"/>
      <point x="-81" y="-145" type="curve" smooth="yes"/>
      <point x="-89" y="-145"/>
      <point x="-94" y="-141"/>
      <point x="-94" y="-131" type="curve" smooth="yes"/>
      <point x="-94" y="-104"/>
      <point x="-40" y="-52"/>
      <point x="40" y="10" type="curve"/>
      <point x="40" y="14" type="line"/>
      <point x="-8" y="16" type="line"/>
      <point x="-109" y="-54"/>
      <point x="-169" y="-106"/>
      <point x="-169" y="-159" type="curve" smooth="yes"/>
      <point x="-169" y="-189"/>
      <point x="-150" y="-206"/>
    </contour>
  </outline>
</glyph>
<glyph name="strokeshortcomb" format="2">
  <unicode hex="0335"/>
  <anchor x="25" y="274" name="_center"/>
  <outline>
    <contour>
      <point x="-105" y="245" type="curve" smooth="yes"/>
      <point x="136" y="245" type="line" smooth="yes"/>
      <point x="155" y="245"/>
      <point x="161" y="259"/>
      <point x="164" y="273" type="curve" smooth="yes"/>
      <point x="167" y="288"/>
      <point x="168" y="303"/>
      <point x="148" y="303" type="curve" smooth="yes"/>
      <point x="-91" y="303" type="line" smooth="yes"/>
      <point x="-111" y="303"/>
      <point x="-117" y="288"/>
      <point x="-120" y="273" type="curve" smooth="yes"/>
      <point x="-123" y="259"/>
      <point x="-124" y="245"/>
    </contour>
  </outline>
</glyph>
<glyph name="slashlongcomb" format="2">
  <unicode hex="0338"/>
  <anchor x="0" y="268" name="_center"/>
  <outline>
    <contour>
      <point x="-210" y="-25" type="curve" smooth="yes"/>
      <point x="261" y="503" type="line" smooth="yes"/>
      <point x="273" y="515"/>
      <point x="266" y="531"/>
      <point x="253" y="545" type="curve" smooth="yes"/>
      <point x="236" y="560"/>
      <point x="218" y="559"/>
      <point x="208" y="548" type="curve" smooth="yes"/>
      <point x="-261" y="23" type="line" smooth="yes"/>
      <point x="-276" y="6"/>
      <point x="-271" y="-10"/>
      <point x="-256" y="-21" type="curve" smooth="yes"/>
      <point x="-242" y="-34"/>
      <point x="-221" y="-37"/>
    </contour>
  </outline>
</glyph>
<glyph name="Germandbls" format="2">
  <advance width="888"/>
  <unicode hex="1E9E"/>
  <outline>
    <contour>
      <point x="461" y="-19" type="curve" smooth="yes"/>
      <point x="638" y="-19"/>
      <point x="779" y="85"/>
      <point x="779" y="249" type="curve" smooth="yes"/>
      <point x="779" y="464"/>
      <point x="578" y="531"/>
      <point x="574" y="658" type="curve" smooth="yes"/>
      <point x="571" y="754"/>
      <point x="670" y="808"/>
      <point x="781" y="808" type="curve" smooth="yes"/>
      <point x="801" y="808"/>
      <point x="813" y="819"/>
      <point x="821" y="849" type="curve" smooth="yes"/>
      <point x="831" y="879"/>
      <point x="828" y="890"/>
      <point x="808" y="890" type="curve" smooth="yes"/>
      <point x="786" y="890" type="line" smooth="yes"/>
      <point x="389" y="890"/>
      <point x="276" y="734"/>
      <point x="198" y="490" type="curve" smooth="yes"/>
      <point x="44" y="14" type="line" smooth="yes"/>
      <point x="38" y="-5"/>
      <point x="50" y="-14"/>
      <point x="79" y="-14" type="curve" smooth="yes"/>
      <point x="108" y="-14"/>
      <point x="125" y="-5"/>
      <point x="131" y="14" type="curve" smooth="yes"/>
      <point x="285" y="490" type="line" smooth="yes"/>
      <point x="329" y="628"/>
      <point x="392" y="751"/>
      <point x="583" y="796" type="curve"/>
      <point x="524" y="761"/>
      <point x="485" y="708"/>
      <point x="484" y="640" type="curve" smooth="yes"/>
      <point x="483" y="494"/>
      <point x="685" y="421"/>
      <point x="686" y="249" type="curve" smooth="yes"/>
      <point x="688" y="124"/>
      <point x="585" y="66"/>
      <point x="468" y="66" type="curve" smooth="yes"/>
      <point x="401" y="66"/>
      <point x="354" y="79"/>
      <point x="308" y="99" type="curve" smooth="yes"/>
      <point x="283" y="111"/>
      <point x="271" y="103"/>
      <point x="259" y="78" type="curve" smooth="yes"/>
      <point x="245" y="51"/>
      <point x="253" y="40"/>
      <point x="274" y="28" type="curve" smooth="yes"/>
      <point x="324" y="-1"/>
      <point x="391" y="-19"/>
    </contour>
  </outline>
</glyph>
<glyph name="emdash" format="2">
  <advance width="1000"/>
  <unicode hex="2014"/>
  <outline>
    <contour>
      <point x="84" y="241" type="curve" smooth="yes"/>
      <point x="944" y="241" type="line" smooth="yes"/>
      <point x="960" y="241"/>
      <point x="968" y="249"/>
      <point x="976" y="273" type="curve" smooth="yes"/>
      <point x="984" y="297"/>
      <point x="980" y="305"/>
      <point x="964" y="305" type="curve" smooth="yes"/>
      <point x="104" y="305" type="line" smooth="yes"/>
      <point x="88" y="305"/>
      <point x="80" y="297"/>
      <point x="72" y="273" type="curve" smooth="yes"/>
      <point x="64" y="249"/>
      <point x="68" y="241"/>
    </contour>
  </outline>
</glyph>
<glyph name="quoteleft" format="2">
  <advance width="145"/>
  <unicode hex="2018"/>
  <outline>
    <contour>
      <point x="185" y="520" type="curve" smooth="yes"/>
      <point x="211" y="520"/>
      <point x="226" y="535"/>
      <point x="227" y="555" type="curve" smooth="yes"/>
      <point x="229" y="604"/>
      <point x="244" y="638"/>
      <point x="288" y="696" type="curve" smooth="yes"/>
      <point x="292" y="702"/>
      <point x="294" y="707"/>
      <point x="294" y="712" type="curve" smooth="yes"/>
      <point x="294" y="723"/>
      <point x="278" y="736"/>
      <point x="267" y="736" type="curve" smooth="yes"/>
      <point x="261" y="736"/>
      <point x="253" y="733"/>
      <point x="244" y="726" type="curve" smooth="yes"/>
      <point x="188" y="683"/>
      <point x="147" y="605"/>
      <point x="147" y="552" type="curve" smooth="yes"/>
      <point x="147" y="534"/>
      <point x="159" y="520"/>
    </contour>
  </outline>
</glyph>
<glyph name="bullet" format="2">
	<unicode hex="2022"/>
	<advance width="367"/>
	<outline>
		<contour>
			<point x="155" y="65" type="curve" smooth="yes"/>
			<point x="284" y="65"/>
			<point x="334" y="191"/>
			<point x="334" y="277" type="curve" smooth="yes"/>
			<point x="334" y="343"/>
			<point x="290" y="375"/>
			<point x="228" y="375" type="curve" smooth="yes"/>
			<point x="102" y="375"/>
			<point x="47" y="260"/>
			<point x="47" y="167" type="curve" smooth="yes"/>
			<point x="47" y="100"/>
			<point x="90" y="65"/>
		</contour>
	</outline>
</glyph>
<glyph name="guilsinglleft" format="2">
	<unicode hex="2039"/>
	<advance width="380"/>
	<outline>
		<contour>
			<point x="195" y="-11" type="curve" smooth="yes"/>
			<point x="224" y="-11"/>
			<point x="238" y="8"/>
			<point x="227" y="32" type="curve" smooth="yes"/>
			<point x="133" y="236" type="line"/>
			<point x="135" y="166" type="line"/>
			<point x="362" y="369" type="line" smooth="yes"/>
			<point x="384" y="389"/>
			<point x="362" y="412"/>
			<point x="333" y="412" type="curve" smooth="yes"/>
			<point x="317" y="412"/>
			<point x="302" y="406"/>
			<point x="283" y="390" type="curve" smooth="yes"/>
			<point x="104" y="231" type="line" smooth="yes"/>
			<point x="83" y="213"/>
			<point x="74" y="205"/>
			<point x="74" y="197" type="curve" smooth="yes"/>
			<point x="74" y="192"/>
			<point x="77" y="185"/>
			<point x="84" y="171" type="curve" smooth="yes"/>
			<point x="159" y="11" type="line" smooth="yes"/>
			<point x="167" y="-6"/>
			<point x="179" y="-11"/>
		</contour>
	</outline>
</glyph>
<glyph name="guilsinglright" format="2">
	<unicode hex="203A"/>
	<advance width="380"/>
	<outline>
		<contour>
			<point x="47" y="-12" type="curve" smooth="yes"/>
			<point x="63" y="-12"/>
			<point x="78" y="-6"/>
			<point x="97" y="10" type="curve" smooth="yes"/>
			<point x="276" y="169" type="line" smooth="yes"/>
			<point x="297" y="187"/>
			<point x="306" y="195"/>
			<point x="306" y="203" type="curve" smooth="yes"/>
			<point x="306" y="208"/>
			<point x="303" y="215"/>
			<point x="296" y="229" type="curve" smooth="yes"/>
			<point x="221" y="389" type="line" smooth="yes"/>
			<point x="213" y="406"/>
			<point x="201" y="411"/>
			<point x="185" y="411" type="curve" smooth="yes"/>
			<point x="156" y="411"/>
			<point x="142" y="392"/>
			<point x="153" y="368" type="curve" smooth="yes"/>
			<point x="247" y="164" type="line"/>
			<point x="245" y="234" type="line"/>
			<point x="18" y="31" type="line" smooth="yes"/>
			<point x="-4" y="11"/>
			<point x="18" y="-12"/>
		</contour>
	</outline>
</glyph>
<glyph name="euro" format="2">
  <advance width="620"/>
  <unicode hex="20AC"/>
  <outline>
    <contour>
      <point x="320" y="-15" type="curve" smooth="yes"/>
      <point x="394" y="-15"/>
      <point x="483" y="15"/>
      <point x="554" y="93" type="curve" smooth="yes"/>
      <point x="566" y="106"/>
      <point x="563" y="119"/>
      <point x="549" y="130" type="curve" smooth="yes"/>
      <point x="536" y="141"/>
      <point x="526" y="141"/>
      <point x="512" y="128" type="curve" smooth="yes"/>
      <point x="459" y="79"/>
      <point x="391" y="52"/>
      <point x="327" y="52" type="curve" smooth="yes"/>
      <point x="241" y="52"/>
      <point x="197" y="129"/>
      <point x="197" y="239" type="curve" smooth="yes"/>
      <point x="197" y="396"/>
      <point x="325" y="645"/>
      <point x="501" y="645" type="curve" smooth="yes"/>
      <point x="552" y="645"/>
      <point x="593" y="623"/>
      <point x="627" y="586" type="curve" smooth="yes"/>
      <point x="637" y="576"/>
      <point x="649" y="572"/>
      <point x="665" y="583" type="curve" smooth="yes"/>
      <point x="682" y="594"/>
      <point x="682" y="605"/>
      <point x="675" y="617" type="curve" smooth="yes"/>
      <point x="639" y="678"/>
      <point x="579" y="712"/>
      <point x="507" y="712" type="curve" smooth="yes"/>
      <point x="282" y="712"/>
      <point x="125" y="438"/>
      <point x="125" y="238" type="curve" smooth="yes"/>
      <point x="125" y="104"/>
      <point x="190" y="-15"/>
    </contour>
    <contour>
      <point x="104" y="386" type="curve" smooth="yes"/>
      <point x="503" y="386" type="line" smooth="yes"/>
      <point x="519" y="386"/>
      <point x="527" y="393"/>
      <point x="535" y="417" type="curve" smooth="yes"/>
      <point x="543" y="441"/>
      <point x="539" y="448"/>
      <point x="523" y="448" type="curve" smooth="yes"/>
      <point x="124" y="448" type="line" smooth="yes"/>
      <point x="108" y="448"/>
      <point x="100" y="441"/>
      <point x="92" y="417" type="curve" smooth="yes"/>
      <point x="84" y="393"/>
      <point x="88" y="386"/>
    </contour>
    <contour>
      <point x="65" y="266" type="curve" smooth="yes"/>
      <point x="464" y="266" type="line" smooth="yes"/>
      <point x="480" y="266"/>
      <point x="488" y="273"/>
      <point x="496" y="297" type="curve" smooth="yes"/>
      <point x="504" y="321"/>
      <point x="500" y="328"/>
      <point x="484" y="328" type="curve" smooth="yes"/>
      <point x="85" y="328" type="line" smooth="yes"/>
      <point x="69" y="328"/>
      <point x="61" y="321"/>
      <point x="53" y="297" type="curve" smooth="yes"/>
      <point x="45" y="273"/>
      <point x="49" y="266"/>
    </contour>
  </outline>
</glyph>
<glyph name="trademark" format="2">
  <advance width="960"/>
  <unicode hex="2122"/>
  <outline>
    <contour>
      <point x="338" y="430" type="curve" smooth="yes"/>
      <point x="364" y="430"/>
      <point x="378" y="439"/>
      <point x="378" y="454" type="curve" smooth="yes"/>
      <point x="378" y="804" type="line"/>
      <point x="486" y="804" type="line" smooth="yes"/>
      <point x="506" y="804"/>
      <point x="513" y="809"/>
      <point x="513" y="839" type="curve" smooth="yes"/>
      <point x="513" y="866"/>
      <point x="508" y="875"/>
      <point x="486" y="875" type="curve" smooth="yes"/>
      <point x="190" y="875" type="line" smooth="yes"/>
      <point x="169" y="875"/>
      <point x="163" y="869"/>
      <point x="163" y="839" type="curve" smooth="yes"/>
      <point x="163" y="810"/>
      <point x="169" y="804"/>
      <point x="190" y="804" type="curve" smooth="yes"/>
      <point x="298" y="804" type="line"/>
      <point x="298" y="454" type="line" smooth="yes"/>
      <point x="298" y="439"/>
      <point x="311" y="430"/>
    </contour>
    <contour>
      <point x="614" y="430" type="curve" smooth="yes"/>
      <point x="639" y="430"/>
      <point x="654" y="438"/>
      <point x="654" y="454" type="curve" smooth="yes"/>
      <point x="654" y="693" type="line"/>
      <point x="750" y="514" type="line" smooth="yes"/>
      <point x="758" y="501"/>
      <point x="766" y="500"/>
      <point x="794" y="500" type="curve" smooth="yes"/>
      <point x="818" y="500"/>
      <point x="826" y="505"/>
      <point x="833" y="515" type="curve" smooth="yes"/>
      <point x="930" y="693" type="line"/>
      <point x="930" y="454" type="line" smooth="yes"/>
      <point x="930" y="438"/>
      <point x="944" y="430"/>
      <point x="970" y="430" type="curve" smooth="yes"/>
      <point x="995" y="430"/>
      <point x="1010" y="438"/>
      <point x="1010" y="454" type="curve" smooth="yes"/>
      <point x="1010" y="851" type="line" smooth="yes"/>
      <point x="1010" y="866"/>
      <point x="1003" y="875"/>
      <point x="976" y="875" type="curve" smooth="yes"/>
      <point x="955" y="875"/>
      <point x="943" y="864"/>
      <point x="934" y="849" type="curve" smooth="yes"/>
      <point x="791" y="590" type="line"/>
      <point x="650" y="849" type="line" smooth="yes"/>
      <point x="641" y="865"/>
      <point x="630" y="875"/>
      <point x="608" y="875" type="curve" smooth="yes"/>
      <point x="581" y="875"/>
      <point x="574" y="866"/>
      <point x="574" y="851" type="curve" smooth="yes"/>
      <point x="574" y="454" type="line" smooth="yes"/>
      <point x="574" y="438"/>
      <point x="588" y="430"/>
    </contour>
  </outline>
</glyph>
<glyph name="integral" format="2">
	<unicode hex="222B"/>
	<advance width="405"/>
	<outline>
		<contour>
			<point x="-25" y="-60" type="curve" smooth="yes"/>
			<point x="62" y="-60"/>
			<point x="114" y="-28"/>
			<point x="149" y="47" type="curve" smooth="yes"/>
			<point x="402" y="592" type="line" smooth="yes"/>
			<point x="424" y="639"/>
			<point x="451" y="655"/>
			<point x="508" y="655" type="curve" smooth="yes"/>
			<point x="534" y="655"/>
			<point x="543" y="674"/>
			<point x="543" y="695" type="curve" smooth="yes"/>
			<point x="543" y="709"/>
			<point x="531" y="715"/>
			<point x="513" y="715" type="curve" smooth="yes"/>
			<point x="425" y="715"/>
			<point x="374" y="683"/>
			<point x="339" y="608" type="curve" smooth="yes"/>
			<point x="86" y="63" type="line" smooth="yes"/>
			<point x="64" y="16"/>
			<point x="37" y="0"/>
			<point x="-20" y="0" type="curve" smooth="yes"/>
			<point x="-50" y="0"/>
			<point x="-54" y="-22"/>
			<point x="-54" y="-38" type="curve" smooth="yes"/>
			<point x="-54" y="-52"/>
			<point x="-44" y="-60"/>
		</contour>
	</outline>
</glyph>
<glyph name="A.cur" format="2">
  <advance width="979"/>
  <anchor x="309" y="0" name="bottom"/>
  <anchor x="805" y="13" name="ogonek"/>
  <anchor x="655" y="838" name="top"/>
  <outline>
    <contour>
      <point x="308" y="-17" type="curve" smooth="yes"/>
      <point x="434" y="-17"/>
      <point x="573" y="84"/>
      <point x="710" y="281" type="curve"/>
      <point x="678" y="181" type="line" smooth="yes"/>
      <point x="633" y="44"/>
      <point x="660" y="-17"/>
      <point x="736" y="-17" type="curve" smooth="yes"/>
      <point x="815" y="-17"/>
      <point x="885" y="73"/>
      <point x="913" y="111" type="curve" smooth="yes"/>
      <point x="926" y="130"/>
      <point x="923" y="151"/>
      <point x="901" y="165" type="curve" smooth="yes"/>
      <point x="884" y="176"/>
      <point x="869" y="175"/>
      <point x="854" y="154" type="curve" smooth="yes"/>
      <point x="804" y="89"/>
      <point x="779" y="68"/>
      <point x="760" y="68" type="curve" smooth="yes"/>
      <point x="736" y="68"/>
      <point x="740" y="103"/>
      <point x="763" y="171" type="curve" smooth="yes"/>
      <point x="890" y="559" type="line" smooth="yes"/>
      <point x="898" y="580"/>
      <point x="881" y="589"/>
      <point x="851" y="589" type="curve" smooth="yes"/>
      <point x="819" y="589"/>
      <point x="809" y="578"/>
      <point x="801" y="554" type="curve"/>
      <point x="633" y="244"/>
      <point x="459" y="68"/>
      <point x="325" y="68" type="curve" smooth="yes"/>
      <point x="254" y="68"/>
      <point x="190" y="120"/>
      <point x="190" y="234" type="curve" smooth="yes"/>
      <point x="190" y="506"/>
      <point x="421" y="805"/>
      <point x="661" y="805" type="curve" smooth="yes"/>
      <point x="759" y="805"/>
      <point x="825" y="776"/>
      <point x="865" y="718" type="curve" smooth="yes"/>
      <point x="878" y="698"/>
      <point x="891" y="693"/>
      <point x="914" y="705" type="curve" smooth="yes"/>
      <point x="939" y="718"/>
      <point x="943" y="735"/>
      <point x="929" y="761" type="curve" smooth="yes"/>
      <point x="881" y="846"/>
      <point x="795" y="890"/>
      <point x="675" y="890" type="curve" smooth="yes"/>
      <point x="376" y="890"/>
      <point x="99" y="569"/>
      <point x="99" y="236" type="curve" smooth="yes"/>
      <point x="99" y="85"/>
      <point x="184" y="-17"/>
    </contour>
  </outline>
</glyph>
<glyph name="A.cur.ini" format="2">
	<advance width="743"/>
	<outline>
		<contour>
			<point x="246" y="-14" type="curve" smooth="yes"/>
			<point x="387" y="-14"/>
			<point x="547" y="144"/>
			<point x="699" y="448" type="curve"/>
			<point x="646" y="450" type="line"/>
			<point x="512" y="202"/>
			<point x="370" y="54"/>
			<point x="260" y="54" type="curve" smooth="yes"/>
			<point x="203" y="54"/>
			<point x="152" y="96"/>
			<point x="152" y="187" type="curve" smooth="yes"/>
			<point x="152" y="405"/>
			<point x="337" y="644"/>
			<point x="529" y="644" type="curve" smooth="yes"/>
			<point x="607" y="644"/>
			<point x="660" y="621"/>
			<point x="692" y="574" type="curve" smooth="yes"/>
			<point x="702" y="558"/>
			<point x="713" y="554"/>
			<point x="731" y="564" type="curve" smooth="yes"/>
			<point x="751" y="574"/>
			<point x="754" y="588"/>
			<point x="743" y="609" type="curve" smooth="yes"/>
			<point x="705" y="677"/>
			<point x="636" y="712"/>
			<point x="540" y="712" type="curve" smooth="yes"/>
			<point x="301" y="712"/>
			<point x="79" y="455"/>
			<point x="79" y="189" type="curve" smooth="yes"/>
			<point x="79" y="68"/>
			<point x="147" y="-14"/>
		</contour>
		<contour>
			<point x="609" y="-14" type="curve" smooth="yes"/>
			<point x="649" y="-14"/>
			<point x="664" y="46"/>
			<point x="624" y="46" type="curve" smooth="yes"/>
			<point x="586" y="46"/>
			<point x="590" y="77"/>
			<point x="616" y="155" type="curve" smooth="yes"/>
			<point x="712" y="447" type="line" smooth="yes"/>
			<point x="718" y="464"/>
			<point x="705" y="471"/>
			<point x="681" y="471" type="curve" smooth="yes"/>
			<point x="658" y="471"/>
			<point x="647" y="464"/>
			<point x="642" y="449" type="curve" smooth="yes"/>
			<point x="548" y="163" type="line" smooth="yes"/>
			<point x="506" y="35"/>
			<point x="533" y="-14"/>
		</contour>
	</outline>
	<anchor name="bottom" x="247" y="0"/>
	<anchor name="cnct" x="678" y="0"/>
	<anchor name="ogonek" x="644" y="10"/>
	<anchor name="top" x="524" y="670"/>
</glyph>
<glyph name="A.cur_locl" format="2">
	<advance width="783"/>
	<outline>
		<contour>
			<point x="246" y="-14" type="curve" smooth="yes"/>
			<point x="387" y="-14"/>
			<point x="547" y="144"/>
			<point x="699" y="448" type="curve"/>
			<point x="646" y="450" type="line"/>
			<point x="512" y="202"/>
			<point x="370" y="54"/>
			<point x="260" y="54" type="curve" smooth="yes"/>
			<point x="203" y="54"/>
			<point x="152" y="96"/>
			<point x="152" y="187" type="curve" smooth="yes"/>
			<point x="152" y="405"/>
			<point x="337" y="644"/>
			<point x="529" y="644" type="curve" smooth="yes"/>
			<point x="609" y="644"/>
			<point x="656" y="624"/>
			<point x="690" y="577" type="curve"/>
			<point x="713" y="645" type="line"/>
			<point x="673" y="689"/>
			<point x="614" y="712"/>
			<point x="540" y="712" type="curve" smooth="yes"/>
			<point x="301" y="712"/>
			<point x="79" y="455"/>
			<point x="79" y="189" type="curve" smooth="yes"/>
			<point x="79" y="68"/>
			<point x="147" y="-14"/>
		</contour>
		<contour>
			<point x="589" y="-14" type="curve" smooth="yes"/>
			<point x="652" y="-14"/>
			<point x="708" y="58"/>
			<point x="730" y="89" type="curve" smooth="yes"/>
			<point x="741" y="104"/>
			<point x="738" y="121"/>
			<point x="721" y="132" type="curve" smooth="yes"/>
			<point x="707" y="141"/>
			<point x="695" y="140"/>
			<point x="683" y="123" type="curve"/>
			<point x="643" y="71"/>
			<point x="623" y="54"/>
			<point x="608" y="54" type="curve" smooth="yes"/>
			<point x="589" y="54"/>
			<point x="591" y="80"/>
			<point x="610" y="137" type="curve" smooth="yes"/>
			<point x="792" y="688" type="line" smooth="yes"/>
			<point x="798" y="705"/>
			<point x="785" y="712"/>
			<point x="761" y="712" type="curve" smooth="yes"/>
			<point x="738" y="712"/>
			<point x="727" y="705"/>
			<point x="722" y="690" type="curve" smooth="yes"/>
			<point x="542" y="145" type="line" smooth="yes"/>
			<point x="505" y="34"/>
			<point x="528" y="-14"/>
		</contour>
	</outline>
	<anchor name="bottom" x="247" y="0"/>
	<anchor name="ogonek" x="644" y="10"/>
	<anchor name="top" x="524" y="670"/>
</glyph>
<glyph name="A.cur_locl.ini" format="2">
  <advance width="929"/>
  <anchor x="309" y="0" name="bottom"/>
  <anchor x="848" y="0" name="cnct"/>
  <anchor x="805" y="13" name="ogonek"/>
  <anchor x="655" y="838" name="top"/>
  <outline>
    <contour>
      <point x="308" y="-17" type="curve" smooth="yes"/>
      <point x="434" y="-17"/>
      <point x="573" y="84"/>
      <point x="710" y="281" type="curve"/>
      <point x="685" y="204" type="line" smooth="yes"/>
      <point x="633" y="44"/>
      <point x="666" y="-17"/>
      <point x="761" y="-17" type="curve" smooth="yes"/>
      <point x="811" y="-17"/>
      <point x="830" y="58"/>
      <point x="780" y="58" type="curve" smooth="yes"/>
      <point x="733" y="58"/>
      <point x="738" y="96"/>
      <point x="770" y="194" type="curve" smooth="yes"/>
      <point x="990" y="860" type="line" smooth="yes"/>
      <point x="998" y="881"/>
      <point x="981" y="890"/>
      <point x="951" y="890" type="curve" smooth="yes"/>
      <point x="923" y="890"/>
      <point x="909" y="881"/>
      <point x="903" y="863" type="curve" smooth="yes"/>
      <point x="886" y="813" type="line"/>
      <point x="836" y="864"/>
      <point x="764" y="890"/>
      <point x="675" y="890" type="curve" smooth="yes"/>
      <point x="376" y="890"/>
      <point x="99" y="569"/>
      <point x="99" y="236" type="curve" smooth="yes"/>
      <point x="99" y="85"/>
      <point x="184" y="-17"/>
    </contour>
    <contour>
      <point x="190" y="234" type="curve" smooth="yes"/>
      <point x="190" y="506"/>
      <point x="421" y="805"/>
      <point x="661" y="805" type="curve" smooth="yes"/>
      <point x="758" y="805"/>
      <point x="816" y="781"/>
      <point x="858" y="728" type="curve"/>
      <point x="798" y="544" type="line"/>
      <point x="633" y="245"/>
      <point x="460" y="68"/>
      <point x="325" y="68" type="curve" smooth="yes"/>
      <point x="254" y="68"/>
      <point x="190" y="120"/>
    </contour>
  </outline>
</glyph>
<glyph name="A.dec" format="2">
  <advance width="745"/>
  <anchor x="385" y="0" name="bottom"/>
  <anchor x="598" y="0" name="ogonek"/>
  <anchor x="582" y="670" name="top"/>
  <outline>
    <contour>
      <point x="110" y="-14" type="curve" smooth="yes"/>
      <point x="198" y="-14"/>
      <point x="283" y="37"/>
      <point x="629" y="683" type="curve"/>
      <point x="588" y="682" type="line"/>
      <point x="561" y="461"/>
      <point x="541" y="243"/>
      <point x="553" y="7" type="curve" smooth="yes"/>
      <point x="554" y="-9"/>
      <point x="564" y="-15"/>
      <point x="586" y="-13" type="curve" smooth="yes"/>
      <point x="611" y="-11"/>
      <point x="621" y="-2"/>
      <point x="620" y="15" type="curve" smooth="yes"/>
      <point x="611" y="247"/>
      <point x="628" y="470"/>
      <point x="654" y="679" type="curve" smooth="yes"/>
      <point x="656" y="702"/>
      <point x="639" y="712"/>
      <point x="609" y="712" type="curve" smooth="yes"/>
      <point x="587" y="712"/>
      <point x="572" y="704"/>
      <point x="562" y="686" type="curve" smooth="yes"/>
      <point x="243" y="100"/>
      <point x="174" y="51"/>
      <point x="114" y="51" type="curve" smooth="yes"/>
      <point x="91" y="51"/>
      <point x="70" y="61"/>
      <point x="49" y="82" type="curve" smooth="yes"/>
      <point x="38" y="93"/>
      <point x="26" y="94"/>
      <point x="11" y="80" type="curve" smooth="yes"/>
      <point x="-5" y="66"/>
      <point x="-8" y="53"/>
      <point x="3" y="39" type="curve" smooth="yes"/>
      <point x="14" y="25"/>
      <point x="56" y="-14"/>
    </contour>
    <contour>
      <point x="552" y="27" type="curve"/>
      <point x="598" y="32" type="line"/>
      <point x="591" y="282"/>
      <point x="436" y="331"/>
      <point x="329" y="331" type="curve" smooth="yes"/>
      <point x="231" y="331"/>
      <point x="160" y="281"/>
      <point x="160" y="211" type="curve" smooth="yes"/>
      <point x="160" y="131"/>
      <point x="243" y="91"/>
      <point x="352" y="91" type="curve" smooth="yes"/>
      <point x="465" y="91"/>
      <point x="556" y="123"/>
      <point x="714" y="176" type="curve" smooth="yes"/>
      <point x="731" y="182"/>
      <point x="736" y="196"/>
      <point x="728" y="217" type="curve" smooth="yes"/>
      <point x="722" y="235"/>
      <point x="710" y="241"/>
      <point x="697" y="236" type="curve" smooth="yes"/>
      <point x="553" y="186"/>
      <point x="482" y="153"/>
      <point x="363" y="153" type="curve" smooth="yes"/>
      <point x="286" y="153"/>
      <point x="231" y="170"/>
      <point x="231" y="214" type="curve" smooth="yes"/>
      <point x="231" y="248"/>
      <point x="265" y="269"/>
      <point x="320" y="269" type="curve" smooth="yes"/>
      <point x="417" y="269"/>
      <point x="539" y="235"/>
    </contour>
  </outline>
</glyph>
<glyph name="A.dec2.ini" format="2">
	<advance width="728"/>
	<outline>
		<contour>
			<point x="594" y="-14" type="curve" smooth="yes"/>
			<point x="634" y="-14"/>
			<point x="649" y="46"/>
			<point x="609" y="46" type="curve" smooth="yes"/>
			<point x="589" y="46"/>
			<point x="582" y="65"/>
			<point x="584" y="102" type="curve" smooth="yes"/>
			<point x="598" y="282"/>
			<point x="637" y="486"/>
			<point x="685" y="694" type="curve"/>
			<point x="612" y="686" type="line"/>
			<point x="564" y="481"/>
			<point x="528" y="283"/>
			<point x="512" y="112" type="curve" smooth="yes"/>
			<point x="504" y="27"/>
			<point x="532" y="-14"/>
		</contour>
		<contour>
			<point x="161" y="-14" type="curve" smooth="yes"/>
			<point x="388" y="-14"/>
			<point x="406" y="586"/>
			<point x="659" y="643" type="curve" smooth="yes"/>
			<point x="694" y="651"/>
			<point x="704" y="670"/>
			<point x="697" y="696" type="curve" smooth="yes"/>
			<point x="692" y="715"/>
			<point x="678" y="719"/>
			<point x="652" y="712" type="curve" smooth="yes"/>
			<point x="355" y="636"/>
			<point x="313" y="56"/>
			<point x="166" y="56" type="curve" smooth="yes"/>
			<point x="134" y="56"/>
			<point x="120" y="95"/>
			<point x="120" y="147" type="curve" smooth="yes"/>
			<point x="120" y="249"/>
			<point x="195" y="273"/>
			<point x="452" y="273" type="curve" smooth="yes"/>
			<point x="693" y="273" type="line" smooth="yes"/>
			<point x="704" y="273"/>
			<point x="712" y="285"/>
			<point x="716" y="306" type="curve" smooth="yes"/>
			<point x="720" y="329"/>
			<point x="716" y="339"/>
			<point x="700" y="339" type="curve" smooth="yes"/>
			<point x="455" y="339" type="line" smooth="yes"/>
			<point x="146" y="339"/>
			<point x="47" y="288"/>
			<point x="47" y="144" type="curve" smooth="yes"/>
			<point x="47" y="53"/>
			<point x="89" y="-14"/>
		</contour>
	</outline>
	<anchor name="bottom" x="420" y="0"/>
	<anchor name="cnct" x="663" y="0"/>
	<anchor name="ogonek" x="634" y="-2"/>
	<anchor name="top" x="530" y="670"/>
</glyph>
<glyph name="A.dec_locl" format="2">
  <advance width="1056"/>
  <anchor x="481" y="0" name="bottom"/>
  <anchor x="883" y="0" name="ogonek"/>
  <anchor x="728" y="838" name="top"/>
  <outline>
    <contour>
      <point x="138" y="-17" type="curve" smooth="yes"/>
      <point x="248" y="-17"/>
      <point x="354" y="46"/>
      <point x="786" y="854" type="curve"/>
      <point x="735" y="853" type="line"/>
      <point x="710" y="633"/>
      <point x="690" y="415"/>
      <point x="690" y="203" type="curve" smooth="yes"/>
      <point x="690" y="48"/>
      <point x="734" y="-17"/>
      <point x="816" y="-17" type="curve" smooth="yes"/>
      <point x="901" y="-17"/>
      <point x="975" y="58"/>
      <point x="1051" y="206" type="curve" smooth="yes"/>
      <point x="1060" y="223"/>
      <point x="1051" y="240"/>
      <point x="1025" y="251" type="curve" smooth="yes"/>
      <point x="1003" y="261"/>
      <point x="988" y="256"/>
      <point x="978" y="236" type="curve" smooth="yes"/>
      <point x="918" y="121"/>
      <point x="865" y="63"/>
      <point x="828" y="63" type="curve" smooth="yes"/>
      <point x="791" y="63"/>
      <point x="776" y="88"/>
      <point x="776" y="203" type="curve" smooth="yes"/>
      <point x="776" y="411"/>
      <point x="791" y="636"/>
      <point x="818" y="849" type="curve" smooth="yes"/>
      <point x="820" y="878"/>
      <point x="799" y="890"/>
      <point x="761" y="890" type="curve" smooth="yes"/>
      <point x="734" y="890"/>
      <point x="715" y="880"/>
      <point x="703" y="858" type="curve" smooth="yes"/>
      <point x="304" y="125"/>
      <point x="218" y="64"/>
      <point x="143" y="64" type="curve" smooth="yes"/>
      <point x="114" y="64"/>
      <point x="88" y="76"/>
      <point x="61" y="103" type="curve" smooth="yes"/>
      <point x="48" y="116"/>
      <point x="33" y="118"/>
      <point x="14" y="100" type="curve" smooth="yes"/>
      <point x="-6" y="83"/>
      <point x="-10" y="66"/>
      <point x="4" y="49" type="curve" smooth="yes"/>
      <point x="18" y="31"/>
      <point x="70" y="-17"/>
    </contour>
    <contour>
      <point x="418" y="266" type="line"/>
      <point x="721" y="266" type="line"/>
      <point x="744" y="344" type="line"/>
      <point x="440" y="344" type="line"/>
    </contour>
  </outline>
</glyph>
<glyph name="A.dec_locl.ini" format="2">
	<advance width="775"/>
	<outline>
		<contour>
			<point x="110" y="-14" type="curve" smooth="yes"/>
			<point x="198" y="-14"/>
			<point x="283" y="37"/>
			<point x="629" y="683" type="curve"/>
			<point x="588" y="682" type="line"/>
			<point x="568" y="506"/>
			<point x="552" y="332"/>
			<point x="552" y="152" type="curve" smooth="yes"/>
			<point x="552" y="32"/>
			<point x="578" y="-14"/>
			<point x="641" y="-14" type="curve" smooth="yes"/>
			<point x="681" y="-14"/>
			<point x="696" y="46"/>
			<point x="656" y="46" type="curve" smooth="yes"/>
			<point x="631" y="46"/>
			<point x="621" y="77"/>
			<point x="621" y="152" type="curve" smooth="yes"/>
			<point x="621" y="329"/>
			<point x="633" y="509"/>
			<point x="654" y="679" type="curve" smooth="yes"/>
			<point x="656" y="702"/>
			<point x="639" y="712"/>
			<point x="609" y="712" type="curve" smooth="yes"/>
			<point x="587" y="712"/>
			<point x="572" y="704"/>
			<point x="562" y="686" type="curve" smooth="yes"/>
			<point x="243" y="100"/>
			<point x="174" y="51"/>
			<point x="114" y="51" type="curve" smooth="yes"/>
			<point x="91" y="51"/>
			<point x="70" y="61"/>
			<point x="49" y="82" type="curve" smooth="yes"/>
			<point x="38" y="93"/>
			<point x="26" y="94"/>
			<point x="11" y="80" type="curve" smooth="yes"/>
			<point x="-5" y="66"/>
			<point x="-8" y="53"/>
			<point x="3" y="39" type="curve" smooth="yes"/>
			<point x="14" y="25"/>
			<point x="56" y="-14"/>
		</contour>
		<contour>
			<point x="334" y="213" type="line"/>
			<point x="577" y="213" type="line"/>
			<point x="595" y="275" type="line"/>
			<point x="352" y="275" type="line"/>
		</contour>
	</outline>
	<anchor name="bottom" x="385" y="0"/>
	<anchor name="cnct" x="710" y="0"/>
	<anchor name="ogonek" x="598" y="0"/>
	<anchor name="top" x="582" y="670"/>
</glyph>
<glyph name="AE.cur" format="2">
  <advance width="1029"/>
  <anchor x="722" y="670" name="top"/>
  <outline>
    <contour>
      <point x="89" y="-14" type="curve" smooth="yes"/>
      <point x="193" y="-14"/>
      <point x="258" y="69"/>
      <point x="646" y="674" type="curve"/>
      <point x="616" y="673" type="line"/>
      <point x="563" y="491"/>
      <point x="538" y="363"/>
      <point x="521" y="172" type="curve" smooth="yes"/>
      <point x="519" y="153"/>
      <point x="530" y="145"/>
      <point x="553" y="150" type="curve" smooth="yes"/>
      <point x="579" y="156"/>
      <point x="590" y="167"/>
      <point x="592" y="186" type="curve" smooth="yes"/>
      <point x="611" y="371"/>
      <point x="634" y="502"/>
      <point x="678" y="667" type="curve" smooth="yes"/>
      <point x="687" y="700"/>
      <point x="675" y="712"/>
      <point x="644" y="712" type="curve" smooth="yes"/>
      <point x="615" y="712"/>
      <point x="592" y="706"/>
      <point x="571" y="674" type="curve" smooth="yes"/>
      <point x="214" y="130"/>
      <point x="152" y="51"/>
      <point x="93" y="51" type="curve" smooth="yes"/>
      <point x="76" y="51"/>
      <point x="60" y="58"/>
      <point x="45" y="71" type="curve" smooth="yes"/>
      <point x="34" y="80"/>
      <point x="22" y="83"/>
      <point x="7" y="69" type="curve" smooth="yes"/>
      <point x="-9" y="55"/>
      <point x="-10" y="43"/>
      <point x="-1" y="28" type="curve" smooth="yes"/>
      <point x="11" y="9"/>
      <point x="46" y="-14"/>
    </contour>
    <contour>
      <point x="295" y="210" type="line"/>
      <point x="554" y="210" type="line"/>
      <point x="565" y="274" type="line"/>
      <point x="341" y="274" type="line"/>
    </contour>
    <contour>
      <point x="702" y="-15" type="curve" smooth="yes"/>
      <point x="820" y="-15"/>
      <point x="910" y="38"/>
      <point x="979" y="135" type="curve" smooth="yes"/>
      <point x="992" y="154"/>
      <point x="993" y="169"/>
      <point x="980" y="179" type="curve" smooth="yes"/>
      <point x="961" y="195"/>
      <point x="946" y="195"/>
      <point x="931" y="173" type="curve" smooth="yes"/>
      <point x="878" y="99"/>
      <point x="802" y="55"/>
      <point x="720" y="55" type="curve" smooth="yes"/>
      <point x="636" y="55"/>
      <point x="595" y="105"/>
      <point x="595" y="170" type="curve" smooth="yes"/>
      <point x="595" y="306"/>
      <point x="732" y="335"/>
      <point x="851" y="335" type="curve" smooth="yes"/>
      <point x="906" y="335" type="line" smooth="yes"/>
      <point x="922" y="335"/>
      <point x="931" y="344"/>
      <point x="938" y="367" type="curve" smooth="yes"/>
      <point x="945" y="391"/>
      <point x="943" y="399"/>
      <point x="925" y="399" type="curve" smooth="yes"/>
      <point x="875" y="399" type="line" smooth="yes"/>
      <point x="787" y="399"/>
      <point x="751" y="458"/>
      <point x="751" y="516" type="curve" smooth="yes"/>
      <point x="751" y="583"/>
      <point x="804" y="642"/>
      <point x="878" y="642" type="curve" smooth="yes"/>
      <point x="939" y="642"/>
      <point x="981" y="620"/>
      <point x="1019" y="578" type="curve" smooth="yes"/>
      <point x="1035" y="561"/>
      <point x="1053" y="562"/>
      <point x="1067" y="575" type="curve" smooth="yes"/>
      <point x="1081" y="585"/>
      <point x="1083" y="599"/>
      <point x="1072" y="616" type="curve" smooth="yes"/>
      <point x="1038" y="670"/>
      <point x="970" y="712"/>
      <point x="890" y="712" type="curve" smooth="yes"/>
      <point x="762" y="712"/>
      <point x="678" y="623"/>
      <point x="678" y="514" type="curve" smooth="yes"/>
      <point x="678" y="463"/>
      <point x="705" y="403"/>
      <point x="760" y="381" type="curve"/>
      <point x="639" y="369"/>
      <point x="520" y="305"/>
      <point x="520" y="162" type="curve" smooth="yes"/>
      <point x="520" y="64"/>
      <point x="581" y="-15"/>
    </contour>
  </outline>
</glyph>
<glyph name="AE.cur.locl" format="2">
  <advance width="1200"/>
  <anchor x="854" y="838" name="top"/>
  <outline>
    <contour>
      <point x="65" y="-17" type="curve" smooth="yes"/>
      <point x="185" y="-17"/>
      <point x="255" y="64"/>
      <point x="804" y="826" type="curve"/>
      <point x="858" y="826" type="line"/>
      <point x="874" y="875" type="line"/>
      <point x="799" y="875" type="line" smooth="yes"/>
      <point x="763" y="875"/>
      <point x="744" y="866"/>
      <point x="715" y="828" type="curve" smooth="yes"/>
      <point x="213" y="141"/>
      <point x="136" y="64"/>
      <point x="70" y="64" type="curve" smooth="yes"/>
      <point x="48" y="64"/>
      <point x="34" y="74"/>
      <point x="15" y="95" type="curve" smooth="yes"/>
      <point x="3" y="110"/>
      <point x="-14" y="110"/>
      <point x="-32" y="93" type="curve" smooth="yes"/>
      <point x="-52" y="75"/>
      <point x="-55" y="59"/>
      <point x="-42" y="41" type="curve" smooth="yes"/>
      <point x="-20" y="10"/>
      <point x="11" y="-17"/>
    </contour>
    <contour>
      <point x="700" y="398" type="line"/>
      <point x="726" y="478" type="line"/>
      <point x="504" y="478" type="line"/>
      <point x="446" y="398" type="line"/>
    </contour>
    <contour>
      <point x="905" y="0" type="line" smooth="yes"/>
      <point x="1040" y="0"/>
      <point x="1103" y="74"/>
      <point x="1156" y="203" type="curve" smooth="yes"/>
      <point x="1166" y="226"/>
      <point x="1163" y="245"/>
      <point x="1139" y="254" type="curve" smooth="yes"/>
      <point x="1110" y="265"/>
      <point x="1095" y="256"/>
      <point x="1086" y="234" type="curve" smooth="yes"/>
      <point x="1050" y="141"/>
      <point x="1005" y="80"/>
      <point x="913" y="80" type="curve" smooth="yes"/>
      <point x="636" y="80" type="line"/>
      <point x="740" y="398" type="line"/>
      <point x="935" y="398" type="line" smooth="yes"/>
      <point x="955" y="398"/>
      <point x="965" y="408"/>
      <point x="975" y="438" type="curve" smooth="yes"/>
      <point x="985" y="468"/>
      <point x="981" y="478"/>
      <point x="961" y="478" type="curve" smooth="yes"/>
      <point x="766" y="478" type="line"/>
      <point x="869" y="795" type="line"/>
      <point x="1135" y="795" type="line" smooth="yes"/>
      <point x="1155" y="795"/>
      <point x="1166" y="805"/>
      <point x="1176" y="835" type="curve" smooth="yes"/>
      <point x="1185" y="865"/>
      <point x="1181" y="875"/>
      <point x="1161" y="875" type="curve" smooth="yes"/>
      <point x="851" y="875" type="line" smooth="yes"/>
      <point x="823" y="875"/>
      <point x="805" y="866"/>
      <point x="799" y="848" type="curve" smooth="yes"/>
      <point x="536" y="40" type="line" smooth="yes"/>
      <point x="528" y="13"/>
      <point x="539" y="0"/>
      <point x="568" y="0" type="curve" smooth="yes"/>
    </contour>
  </outline>
</glyph>
<glyph name="AE.cur.locl.ini" format="2">
  <advance width="1100"/>
  <anchor x="854" y="838" name="top"/>
  <outline>
    <contour>
      <point x="65" y="-17" type="curve" smooth="yes"/>
      <point x="185" y="-17"/>
      <point x="255" y="64"/>
      <point x="804" y="826" type="curve"/>
      <point x="858" y="826" type="line"/>
      <point x="874" y="875" type="line"/>
      <point x="799" y="875" type="line" smooth="yes"/>
      <point x="763" y="875"/>
      <point x="744" y="866"/>
      <point x="715" y="828" type="curve" smooth="yes"/>
      <point x="213" y="141"/>
      <point x="136" y="64"/>
      <point x="70" y="64" type="curve" smooth="yes"/>
      <point x="48" y="64"/>
      <point x="34" y="74"/>
      <point x="15" y="95" type="curve" smooth="yes"/>
      <point x="3" y="110"/>
      <point x="-14" y="110"/>
      <point x="-32" y="93" type="curve" smooth="yes"/>
      <point x="-52" y="75"/>
      <point x="-55" y="59"/>
      <point x="-42" y="41" type="curve" smooth="yes"/>
      <point x="-20" y="10"/>
      <point x="11" y="-17"/>
    </contour>
    <contour>
      <point x="700" y="398" type="line"/>
      <point x="726" y="478" type="line"/>
      <point x="504" y="478" type="line"/>
      <point x="446" y="398" type="line"/>
    </contour>
    <contour>
      <point x="905" y="0" type="line"/>
      <point x="945" y="0"/>
      <point x="953" y="80"/>
      <point x="913" y="80" type="curve" smooth="yes"/>
      <point x="636" y="80" type="line"/>
      <point x="740" y="398" type="line"/>
      <point x="935" y="398" type="line" smooth="yes"/>
      <point x="955" y="398"/>
      <point x="965" y="408"/>
      <point x="975" y="438" type="curve" smooth="yes"/>
      <point x="985" y="468"/>
      <point x="981" y="478"/>
      <point x="961" y="478" type="curve" smooth="yes"/>
      <point x="766" y="478" type="line"/>
      <point x="869" y="795" type="line"/>
      <point x="1135" y="795" type="line" smooth="yes"/>
      <point x="1155" y="795"/>
      <point x="1166" y="805"/>
      <point x="1176" y="835" type="curve" smooth="yes"/>
      <point x="1185" y="865"/>
      <point x="1181" y="875"/>
      <point x="1161" y="875" type="curve" smooth="yes"/>
      <point x="851" y="875" type="line" smooth="yes"/>
      <point x="823" y="875"/>
      <point x="805" y="866"/>
      <point x="799" y="848" type="curve" smooth="yes"/>
      <point x="536" y="40" type="line" smooth="yes"/>
      <point x="528" y="13"/>
      <point x="539" y="0"/>
      <point x="568" y="0" type="curve" smooth="yes"/>
    </contour>
  </outline>
</glyph>
<glyph name="B.cur" format="2">
  <advance width="894"/>
  <guideline x="130" y="560" angle="251.453"/>
  <anchor x="468" y="0" name="bottom"/>
  <anchor x="294" y="258" name="center"/>
  <anchor x="654" y="838" name="top"/>
  <outline>
    <contour>
      <point x="491" y="-12" type="curve" smooth="yes"/>
      <point x="689" y="-12"/>
      <point x="846" y="130"/>
      <point x="846" y="304" type="curve" smooth="yes"/>
      <point x="846" y="395"/>
      <point x="778" y="455"/>
      <point x="678" y="473" type="curve"/>
      <point x="678" y="474" type="line"/>
      <point x="800" y="504"/>
      <point x="926" y="585"/>
      <point x="926" y="711" type="curve" smooth="yes"/>
      <point x="926" y="815"/>
      <point x="849" y="890"/>
      <point x="660" y="890" type="curve" smooth="yes"/>
      <point x="536" y="890"/>
      <point x="305" y="854"/>
      <point x="168" y="694" type="curve" smooth="yes"/>
      <point x="145" y="668"/>
      <point x="149" y="648"/>
      <point x="164" y="636" type="curve" smooth="yes"/>
      <point x="183" y="623"/>
      <point x="200" y="619"/>
      <point x="224" y="643" type="curve" smooth="yes"/>
      <point x="369" y="784"/>
      <point x="530" y="810"/>
      <point x="660" y="810" type="curve" smooth="yes"/>
      <point x="794" y="810"/>
      <point x="836" y="773"/>
      <point x="836" y="711" type="curve" smooth="yes"/>
      <point x="836" y="620"/>
      <point x="718" y="528"/>
      <point x="598" y="508" type="curve"/>
      <point x="584" y="514"/>
      <point x="566" y="521"/>
      <point x="541" y="521" type="curve" smooth="yes"/>
      <point x="475" y="521"/>
      <point x="458" y="475"/>
      <point x="458" y="451" type="curve" smooth="yes"/>
      <point x="458" y="431"/>
      <point x="473" y="414"/>
      <point x="506" y="414" type="curve" smooth="yes"/>
      <point x="529" y="414"/>
      <point x="550" y="423"/>
      <point x="574" y="433" type="curve"/>
      <point x="674" y="433"/>
      <point x="755" y="386"/>
      <point x="755" y="305" type="curve" smooth="yes"/>
      <point x="755" y="155"/>
      <point x="620" y="71"/>
      <point x="494" y="71" type="curve" smooth="yes"/>
      <point x="459" y="71"/>
      <point x="400" y="88"/>
      <point x="378" y="116" type="curve" smooth="yes"/>
      <point x="364" y="135"/>
      <point x="348" y="130"/>
      <point x="326" y="118" type="curve"/>
      <point x="306" y="103"/>
      <point x="305" y="90"/>
      <point x="314" y="76" type="curve"/>
      <point x="339" y="29"/>
      <point x="404" y="-12"/>
    </contour>
    <contour>
      <point x="129" y="-17" type="curve" smooth="yes"/>
      <point x="218" y="-17"/>
      <point x="275" y="71"/>
      <point x="304" y="160" type="curve" smooth="yes"/>
      <point x="479" y="704" type="line" smooth="yes"/>
      <point x="486" y="725"/>
      <point x="470" y="734"/>
      <point x="440" y="734" type="curve" smooth="yes"/>
      <point x="410" y="734"/>
      <point x="395" y="725"/>
      <point x="389" y="706" type="curve" smooth="yes"/>
      <point x="215" y="165" type="line" smooth="yes"/>
      <point x="190" y="89"/>
      <point x="166" y="68"/>
      <point x="129" y="68" type="curve" smooth="yes"/>
      <point x="91" y="68"/>
      <point x="69" y="91"/>
      <point x="51" y="144" type="curve" smooth="yes"/>
      <point x="44" y="166"/>
      <point x="30" y="176"/>
      <point x="4" y="170" type="curve" smooth="yes"/>
      <point x="-27" y="163"/>
      <point x="-27" y="141"/>
      <point x="-22" y="116" type="curve" smooth="yes"/>
      <point x="-9" y="56"/>
      <point x="43" y="-17"/>
    </contour>
  </outline>
</glyph>
<glyph name="B.dec" format="2">
	<advance width="727"/>
	<outline>
		<contour>
			<point x="423" y="-10" type="curve" smooth="yes"/>
			<point x="564" y="-10"/>
			<point x="684" y="84"/>
			<point x="684" y="212" type="curve" smooth="yes"/>
			<point x="684" y="289"/>
			<point x="635" y="353"/>
			<point x="555" y="380" type="curve"/>
			<point x="556" y="381" type="line"/>
			<point x="660" y="404"/>
			<point x="731" y="489"/>
			<point x="731" y="580" type="curve" smooth="yes"/>
			<point x="731" y="661"/>
			<point x="675" y="712"/>
			<point x="583" y="712" type="curve" smooth="yes"/>
			<point x="451" y="712"/>
			<point x="301" y="568"/>
			<point x="223" y="335" type="curve"/>
			<point x="281" y="335" type="line"/>
			<point x="344" y="520"/>
			<point x="474" y="646"/>
			<point x="579" y="646" type="curve" smooth="yes"/>
			<point x="632" y="646"/>
			<point x="658" y="618"/>
			<point x="658" y="578" type="curve" smooth="yes"/>
			<point x="658" y="503"/>
			<point x="598" y="434"/>
			<point x="500" y="409" type="curve"/>
			<point x="485" y="416"/>
			<point x="467" y="419"/>
			<point x="452" y="419" type="curve" smooth="yes"/>
			<point x="418" y="419"/>
			<point x="393" y="401"/>
			<point x="393" y="375" type="curve" smooth="yes"/>
			<point x="393" y="354"/>
			<point x="411" y="338"/>
			<point x="437" y="338" type="curve" smooth="yes"/>
			<point x="452" y="338"/>
			<point x="474" y="343"/>
			<point x="491" y="353" type="curve"/>
			<point x="571" y="333"/>
			<point x="611" y="288"/>
			<point x="611" y="220" type="curve" smooth="yes"/>
			<point x="611" y="125"/>
			<point x="529" y="56"/>
			<point x="426" y="56" type="curve" smooth="yes"/>
			<point x="383" y="56"/>
			<point x="337" y="67"/>
			<point x="305" y="84" type="curve" smooth="yes"/>
			<point x="287" y="94"/>
			<point x="273" y="90"/>
			<point x="264" y="71" type="curve" smooth="yes"/>
			<point x="251" y="47"/>
			<point x="254" y="30"/>
			<point x="273" y="22" type="curve" smooth="yes"/>
			<point x="315" y="2"/>
			<point x="372" y="-10"/>
		</contour>
		<contour>
			<point x="136" y="-11" type="curve" smooth="yes"/>
			<point x="160" y="-11"/>
			<point x="172" y="-4"/>
			<point x="177" y="11" type="curve" smooth="yes"/>
			<point x="395" y="688" type="line" smooth="yes"/>
			<point x="401" y="705"/>
			<point x="388" y="712"/>
			<point x="365" y="712" type="curve" smooth="yes"/>
			<point x="340" y="712"/>
			<point x="334" y="706"/>
			<point x="323" y="690" type="curve" smooth="yes"/>
			<point x="280" y="627"/>
			<point x="213" y="577"/>
			<point x="129" y="525" type="curve" smooth="yes"/>
			<point x="109" y="513"/>
			<point x="108" y="497"/>
			<point x="118" y="480" type="curve" smooth="yes"/>
			<point x="130" y="461"/>
			<point x="145" y="455"/>
			<point x="166" y="469" type="curve" smooth="yes"/>
			<point x="262" y="532"/>
			<point x="333" y="594"/>
			<point x="392" y="689" type="curve"/>
			<point x="358" y="693" type="line"/>
			<point x="324" y="685" type="line"/>
			<point x="105" y="13" type="line" smooth="yes"/>
			<point x="99" y="-4"/>
			<point x="112" y="-11"/>
		</contour>
	</outline>
	<anchor name="bottom" x="363" y="0"/>
	<anchor name="center" x="204" y="206"/>
	<anchor name="top" x="512" y="670"/>
</glyph>
<glyph name="D.cur" format="2">
  <advance width="800"/>
  <guideline y="91"/>
  <guideline x="137" y="558" angle="250.37"/>
  <anchor x="377" y="0" name="bottom"/>
  <anchor x="334" y="350" name="center"/>
  <anchor x="563" y="670" name="top"/>
  <outline>
    <contour>
      <point x="392" y="-15" type="curve" smooth="yes"/>
      <point x="611" y="-15"/>
      <point x="811" y="236"/>
      <point x="811" y="455" type="curve" smooth="yes"/>
      <point x="811" y="598"/>
      <point x="725" y="712"/>
      <point x="518" y="712" type="curve" smooth="yes"/>
      <point x="376" y="712"/>
      <point x="232" y="654"/>
      <point x="141" y="555" type="curve" smooth="yes"/>
      <point x="123" y="535"/>
      <point x="126" y="518"/>
      <point x="138" y="509" type="curve" smooth="yes"/>
      <point x="153" y="498"/>
      <point x="166" y="496"/>
      <point x="186" y="514" type="curve" smooth="yes"/>
      <point x="282" y="600"/>
      <point x="380" y="644"/>
      <point x="518" y="644" type="curve" smooth="yes"/>
      <point x="672" y="644"/>
      <point x="738" y="568"/>
      <point x="738" y="456" type="curve" smooth="yes"/>
      <point x="738" y="274"/>
      <point x="573" y="53"/>
      <point x="394" y="53" type="curve" smooth="yes"/>
      <point x="357" y="53"/>
      <point x="320" y="62"/>
      <point x="302" y="89" type="curve" smooth="yes"/>
      <point x="292" y="105"/>
      <point x="278" y="102"/>
      <point x="261" y="92" type="curve"/>
      <point x="245" y="80"/>
      <point x="245" y="71"/>
      <point x="251" y="59" type="curve" smooth="yes"/>
      <point x="270" y="19"/>
      <point x="313" y="-15"/>
    </contour>
    <contour>
      <point x="103" y="-14" type="curve" smooth="yes"/>
      <point x="174" y="-14"/>
      <point x="220" y="57"/>
      <point x="243" y="128" type="curve" smooth="yes"/>
      <point x="383" y="563" type="line" smooth="yes"/>
      <point x="389" y="580"/>
      <point x="376" y="587"/>
      <point x="352" y="587" type="curve" smooth="yes"/>
      <point x="328" y="587"/>
      <point x="316" y="580"/>
      <point x="311" y="565" type="curve" smooth="yes"/>
      <point x="172" y="132" type="line" smooth="yes"/>
      <point x="152" y="71"/>
      <point x="133" y="54"/>
      <point x="103" y="54" type="curve" smooth="yes"/>
      <point x="73" y="54"/>
      <point x="55" y="73"/>
      <point x="41" y="115" type="curve" smooth="yes"/>
      <point x="35" y="133"/>
      <point x="24" y="141"/>
      <point x="3" y="136" type="curve" smooth="yes"/>
      <point x="-22" y="130"/>
      <point x="-22" y="113"/>
      <point x="-18" y="93" type="curve" smooth="yes"/>
      <point x="-7" y="45"/>
      <point x="34" y="-14"/>
    </contour>
  </outline>
</glyph>
<glyph name="D.dec" format="2">
  <advance width="1026"/>
  <anchor x="478" y="0" name="bottom"/>
  <anchor x="424" y="438" name="center"/>
  <anchor x="710" y="838" name="top"/>
  <outline>
    <contour>
      <point x="156" y="-17" type="curve" smooth="yes"/>
      <point x="255" y="-17"/>
      <point x="305" y="30"/>
      <point x="349" y="168" type="curve" smooth="yes"/>
      <point x="519" y="696" type="line" smooth="yes"/>
      <point x="525" y="716"/>
      <point x="513" y="726"/>
      <point x="480" y="726" type="curve" smooth="yes"/>
      <point x="451" y="726"/>
      <point x="435" y="718"/>
      <point x="429" y="699" type="curve" smooth="yes"/>
      <point x="261" y="176" type="line" smooth="yes"/>
      <point x="234" y="91"/>
      <point x="220" y="63"/>
      <point x="164" y="63" type="curve" smooth="yes"/>
      <point x="146" y="63"/>
      <point x="119" y="70"/>
      <point x="119" y="95" type="curve" smooth="yes"/>
      <point x="119" y="114"/>
      <point x="129" y="123"/>
      <point x="154" y="123" type="curve" smooth="yes"/>
      <point x="265" y="123"/>
      <point x="406" y="-12"/>
      <point x="569" y="-12" type="curve" smooth="yes"/>
      <point x="808" y="-12"/>
      <point x="1023" y="250"/>
      <point x="1023" y="508" type="curve" smooth="yes"/>
      <point x="1023" y="755"/>
      <point x="855" y="890"/>
      <point x="620" y="890" type="curve" smooth="yes"/>
      <point x="425" y="890"/>
      <point x="269" y="820"/>
      <point x="199" y="684" type="curve" smooth="yes"/>
      <point x="190" y="666"/>
      <point x="196" y="650"/>
      <point x="215" y="640" type="curve" smooth="yes"/>
      <point x="240" y="629"/>
      <point x="254" y="630"/>
      <point x="266" y="650" type="curve" smooth="yes"/>
      <point x="329" y="755"/>
      <point x="439" y="805"/>
      <point x="604" y="805" type="curve" smooth="yes"/>
      <point x="798" y="805"/>
      <point x="931" y="704"/>
      <point x="931" y="503" type="curve" smooth="yes"/>
      <point x="931" y="295"/>
      <point x="749" y="70"/>
      <point x="573" y="70" type="curve" smooth="yes"/>
      <point x="429" y="70"/>
      <point x="313" y="203"/>
      <point x="141" y="203" type="curve" smooth="yes"/>
      <point x="63" y="203"/>
      <point x="28" y="154"/>
      <point x="28" y="100" type="curve" smooth="yes"/>
      <point x="28" y="33"/>
      <point x="89" y="-17"/>
    </contour>
  </outline>
</glyph>
<glyph name="E.cur" format="2">
  <advance width="558"/>
  <guideline x="104" y="130" angle="191.31"/>
  <guideline x="504"/>
  <guideline x="599"/>
  <anchor x="253" y="0" name="bottom"/>
  <anchor x="428" y="10" name="ogonek"/>
  <anchor x="426" y="670" name="top"/>
  <outline>
    <contour>
      <point x="240" y="-15" type="curve" smooth="yes"/>
      <point x="358" y="-15"/>
      <point x="439" y="38"/>
      <point x="508" y="135" type="curve" smooth="yes"/>
      <point x="521" y="154"/>
      <point x="522" y="169"/>
      <point x="509" y="179" type="curve" smooth="yes"/>
      <point x="490" y="195"/>
      <point x="475" y="195"/>
      <point x="460" y="173" type="curve" smooth="yes"/>
      <point x="407" y="99"/>
      <point x="340" y="55"/>
      <point x="258" y="55" type="curve" smooth="yes"/>
      <point x="174" y="55"/>
      <point x="124" y="89"/>
      <point x="124" y="154" type="curve" smooth="yes"/>
      <point x="124" y="250"/>
      <point x="222" y="335"/>
      <point x="341" y="335" type="curve" smooth="yes"/>
      <point x="435" y="335" type="line" smooth="yes"/>
      <point x="451" y="335"/>
      <point x="460" y="344"/>
      <point x="467" y="367" type="curve" smooth="yes"/>
      <point x="474" y="391"/>
      <point x="472" y="399"/>
      <point x="454" y="399" type="curve" smooth="yes"/>
      <point x="365" y="399" type="line" smooth="yes"/>
      <point x="287" y="399"/>
      <point x="241" y="434"/>
      <point x="241" y="492" type="curve" smooth="yes"/>
      <point x="241" y="579"/>
      <point x="303" y="642"/>
      <point x="388" y="642" type="curve" smooth="yes"/>
      <point x="460" y="642"/>
      <point x="515" y="620"/>
      <point x="553" y="578" type="curve" smooth="yes"/>
      <point x="569" y="561"/>
      <point x="587" y="562"/>
      <point x="601" y="575" type="curve" smooth="yes"/>
      <point x="615" y="585"/>
      <point x="617" y="599"/>
      <point x="606" y="616" type="curve" smooth="yes"/>
      <point x="574" y="670"/>
      <point x="495" y="712"/>
      <point x="404" y="712" type="curve" smooth="yes"/>
      <point x="267" y="712"/>
      <point x="168" y="619"/>
      <point x="168" y="490" type="curve" smooth="yes"/>
      <point x="168" y="439"/>
      <point x="192" y="393"/>
      <point x="253" y="371" type="curve"/>
      <point x="136" y="349"/>
      <point x="49" y="249"/>
      <point x="49" y="146" type="curve" smooth="yes"/>
      <point x="49" y="48"/>
      <point x="119" y="-15"/>
    </contour>
  </outline>
</glyph>
<glyph name="F.cur" format="2">
  <advance width="741"/>
  <outline>
    <contour>
      <point x="148" y="-17" type="curve" smooth="yes"/>
      <point x="236" y="-17"/>
      <point x="294" y="71"/>
      <point x="323" y="160" type="curve" smooth="yes"/>
      <point x="400" y="400" type="line"/>
      <point x="696" y="400" type="line" smooth="yes"/>
      <point x="716" y="400"/>
      <point x="728" y="410"/>
      <point x="735" y="438" type="curve" smooth="yes"/>
      <point x="741" y="463"/>
      <point x="739" y="480"/>
      <point x="719" y="480" type="curve" smooth="yes"/>
      <point x="426" y="480" type="line"/>
      <point x="528" y="795" type="line"/>
      <point x="879" y="795" type="line" smooth="yes"/>
      <point x="899" y="795"/>
      <point x="910" y="805"/>
      <point x="918" y="833" type="curve" smooth="yes"/>
      <point x="924" y="858"/>
      <point x="921" y="875"/>
      <point x="901" y="875" type="curve" smooth="yes"/>
      <point x="421" y="875" type="line" smooth="yes"/>
      <point x="259" y="875"/>
      <point x="180" y="806"/>
      <point x="148" y="714" type="curve" smooth="yes"/>
      <point x="138" y="685"/>
      <point x="150" y="674"/>
      <point x="170" y="670" type="curve" smooth="yes"/>
      <point x="194" y="666"/>
      <point x="210" y="670"/>
      <point x="223" y="699" type="curve" smooth="yes"/>
      <point x="256" y="776"/>
      <point x="315" y="795"/>
      <point x="403" y="795" type="curve" smooth="yes"/>
      <point x="438" y="795" type="line"/>
      <point x="234" y="165" type="line" smooth="yes"/>
      <point x="209" y="89"/>
      <point x="185" y="68"/>
      <point x="148" y="68" type="curve" smooth="yes"/>
      <point x="110" y="68"/>
      <point x="88" y="91"/>
      <point x="70" y="144" type="curve" smooth="yes"/>
      <point x="63" y="166"/>
      <point x="49" y="176"/>
      <point x="23" y="170" type="curve" smooth="yes"/>
      <point x="-9" y="163"/>
      <point x="-9" y="141"/>
      <point x="-4" y="116" type="curve" smooth="yes"/>
      <point x="10" y="56"/>
      <point x="61" y="-17"/>
    </contour>
  </outline>
</glyph>
<glyph name="F.cur_locl" format="2">
  <advance width="657"/>
  <guideline x="221" y="611" angle="120.9638"/>
  <outline>
    <contour>
      <point x="170" y="-14" type="curve" smooth="yes"/>
      <point x="393" y="-14"/>
      <point x="620" y="337"/>
      <point x="620" y="547" type="curve" smooth="yes"/>
      <point x="620" y="650"/>
      <point x="566" y="712"/>
      <point x="450" y="712" type="curve" smooth="yes"/>
      <point x="355" y="712"/>
      <point x="260" y="667"/>
      <point x="192" y="616" type="curve" smooth="yes"/>
      <point x="173" y="602"/>
      <point x="170" y="588"/>
      <point x="181" y="572" type="curve" smooth="yes"/>
      <point x="196" y="550"/>
      <point x="207" y="546"/>
      <point x="225" y="560" type="curve" smooth="yes"/>
      <point x="281" y="600"/>
      <point x="360" y="644"/>
      <point x="447" y="644" type="curve" smooth="yes"/>
      <point x="518" y="644"/>
      <point x="547" y="605"/>
      <point x="547" y="544" type="curve" smooth="yes"/>
      <point x="547" y="370"/>
      <point x="345" y="50"/>
      <point x="176" y="50" type="curve" smooth="yes"/>
      <point x="136" y="50"/>
      <point x="113" y="77"/>
      <point x="113" y="122" type="curve" smooth="yes"/>
      <point x="113" y="296"/>
      <point x="315" y="403"/>
      <point x="711" y="430" type="curve"/>
      <point x="675" y="459" type="line"/>
      <point x="641" y="362" type="line" smooth="yes"/>
      <point x="634" y="342"/>
      <point x="643" y="333"/>
      <point x="671" y="333" type="curve" smooth="yes"/>
      <point x="692" y="333"/>
      <point x="704" y="342"/>
      <point x="711" y="362" type="curve" smooth="yes"/>
      <point x="739" y="448" type="line" smooth="yes"/>
      <point x="750" y="482"/>
      <point x="737" y="497"/>
      <point x="702" y="494" type="curve" smooth="yes"/>
      <point x="263" y="458"/>
      <point x="40" y="331"/>
      <point x="40" y="119" type="curve" smooth="yes"/>
      <point x="40" y="37"/>
      <point x="95" y="-14"/>
    </contour>
  </outline>
</glyph>
